{"glyphs":{"0":{"ha":833,"x_min":69,"x_max":764,"o":"m 417 -22 q 232 40 310 -22 q 112 217 154 101 q 69 492 69 333 q 112 767 69 650 q 233 946 154 883 q 417 1008 311 1008 q 601 946 522 1008 q 722 767 679 883 q 764 492 764 650 q 722 217 764 333 q 601 40 679 101 q 417 -22 524 -22 m 417 94 q 580 201 521 94 q 639 492 639 308 q 604 729 639 632 l 288 153 q 417 94 342 94 m 194 492 q 229 256 194 353 l 546 832 q 417 892 493 892 q 253 784 313 892 q 194 492 194 676 z "},"1":{"ha":833,"x_min":83,"x_max":750,"o":"m 83 114 l 394 114 l 394 731 l 136 731 l 136 833 l 269 833 q 383 868 349 833 q 417 986 417 903 l 514 986 l 514 114 l 750 114 l 750 0 l 83 0 l 83 114 z "},"2":{"ha":833,"x_min":69,"x_max":764,"o":"m 69 0 q 103 192 69 108 q 219 350 136 275 q 447 503 301 425 q 560 572 521 542 q 619 635 600 601 q 638 719 638 669 q 587 844 638 797 q 440 892 536 892 q 276 838 338 892 q 200 683 215 785 l 75 692 q 187 924 92 839 q 440 1008 282 1008 q 613 972 540 1008 q 724 872 686 936 q 763 722 763 807 q 738 592 763 646 q 655 492 713 539 q 492 389 597 444 q 292 248 363 321 q 217 117 221 175 l 764 117 l 764 0 l 69 0 z "},"3":{"ha":833,"x_min":69,"x_max":764,"o":"m 408 -22 q 164 53 251 -22 q 69 254 76 129 l 193 263 q 258 135 201 176 q 408 94 315 94 q 574 138 508 94 q 639 275 639 182 q 578 417 639 369 q 415 465 517 465 l 338 465 l 338 582 l 415 582 q 551 619 499 582 q 604 736 604 657 q 556 852 604 813 q 415 892 507 892 q 217 751 236 892 l 92 760 q 190 941 106 874 q 415 1008 275 1008 q 644 936 560 1008 q 729 742 729 864 q 558 531 729 583 q 709 437 654 504 q 764 275 764 369 q 718 115 764 182 q 592 13 672 49 q 408 -22 511 -22 z "},"4":{"ha":833,"x_min":56,"x_max":778,"o":"m 539 214 l 56 214 l 56 322 l 531 986 l 658 986 l 658 331 l 778 331 l 778 214 l 658 214 l 658 0 l 539 0 l 539 214 m 539 331 l 539 803 l 200 331 l 539 331 z "},"5":{"ha":833,"x_min":83,"x_max":750,"o":"m 414 -22 q 183 53 272 -22 q 83 254 94 129 l 208 263 q 272 138 218 181 q 414 94 326 94 q 568 154 511 94 q 625 317 625 214 q 569 481 625 421 q 417 542 514 542 q 304 513 357 542 q 228 432 251 483 l 100 432 l 165 986 l 690 986 l 690 869 l 275 869 l 239 572 q 326 634 274 613 q 433 656 379 656 q 599 612 526 656 q 710 491 671 568 q 750 317 750 414 q 707 141 750 218 q 588 21 664 64 q 414 -22 511 -22 z "},"6":{"ha":833,"x_min":69,"x_max":764,"o":"m 419 -22 q 161 92 253 -22 q 69 417 69 206 q 161 847 69 685 q 458 1008 253 1008 q 764 775 699 1008 l 639 764 q 578 859 621 826 q 458 892 536 892 q 276 803 344 892 q 194 538 208 714 q 297 629 232 594 q 442 664 361 664 q 610 622 538 664 q 724 504 683 581 q 764 328 764 428 q 721 142 764 221 q 599 20 678 63 q 419 -22 521 -22 m 422 94 q 580 157 521 94 q 639 328 639 219 q 583 490 639 429 q 433 550 526 550 q 266 489 332 550 q 200 328 200 428 q 260 160 200 225 q 422 94 321 94 z "},"7":{"ha":833,"x_min":83,"x_max":750,"o":"m 269 0 q 361 452 269 226 q 619 869 453 678 l 83 869 l 83 986 l 750 986 l 750 878 q 477 456 563 664 q 392 0 392 249 l 269 0 z "},"8":{"ha":833,"x_min":69,"x_max":764,"o":"m 417 -22 q 238 12 317 -22 q 115 112 160 46 q 69 271 69 178 q 120 432 69 365 q 260 531 171 499 q 117 738 117 590 q 155 876 117 814 q 262 973 193 938 q 417 1008 331 1008 q 572 973 503 1008 q 678 876 640 938 q 717 738 717 814 q 574 531 717 590 q 713 432 663 499 q 764 271 764 365 q 719 112 764 178 q 595 12 674 46 q 417 -22 517 -22 m 417 94 q 578 141 518 94 q 639 278 639 188 q 582 417 639 367 q 417 468 525 468 q 251 417 308 468 q 194 278 194 367 q 255 141 194 188 q 417 94 315 94 m 417 579 q 545 619 499 579 q 592 738 592 660 q 544 850 592 808 q 417 892 497 892 q 289 850 336 892 q 242 738 242 808 q 289 619 242 660 q 417 579 336 579 z "},"9":{"ha":833,"x_min":69,"x_max":764,"o":"m 414 1008 q 672 894 581 1008 q 764 569 764 781 q 672 140 764 301 q 375 -22 581 -22 q 69 211 135 -22 l 194 222 q 255 127 213 160 q 375 94 297 94 q 557 183 489 94 q 639 449 625 272 q 537 357 601 392 q 392 322 472 322 q 223 364 296 322 q 110 482 150 406 q 69 658 69 558 q 113 844 69 765 q 234 966 156 924 q 414 1008 313 1008 m 411 892 q 253 829 313 892 q 194 658 194 767 q 251 497 194 557 q 400 436 307 436 q 567 497 501 436 q 633 658 633 558 q 573 826 633 761 q 411 892 513 892 z "}," ":{"ha":833,"x_min":0,"x_max":0,"o":""},"A":{"ha":833,"x_min":36,"x_max":797,"o":"m 336 986 l 497 986 l 797 0 l 675 0 l 594 275 l 239 275 l 158 0 l 36 0 l 336 986 m 561 389 l 417 878 l 272 389 l 561 389 z "},"Á":{"ha":833,"x_min":36,"x_max":797,"o":"m 336 986 l 497 986 l 797 0 l 675 0 l 594 275 l 239 275 l 158 0 l 36 0 l 336 986 m 561 389 l 417 878 l 272 389 l 561 389 m 456 1264 l 586 1264 l 461 1086 l 364 1086 l 456 1264 z "},"Ă":{"ha":833,"x_min":36,"x_max":797,"o":"m 336 986 l 497 986 l 797 0 l 675 0 l 594 275 l 239 275 l 158 0 l 36 0 l 336 986 m 561 389 l 417 878 l 272 389 l 561 389 m 417 1088 q 279 1135 332 1088 q 222 1265 226 1183 l 303 1265 q 417 1174 315 1174 q 531 1265 518 1174 l 611 1265 q 554 1135 607 1183 q 417 1088 501 1088 z "},"Ǎ":{"ha":833,"x_min":36,"x_max":797,"o":"m 336 986 l 497 986 l 797 0 l 675 0 l 594 275 l 239 275 l 158 0 l 36 0 l 336 986 m 561 389 l 417 878 l 272 389 l 561 389 m 319 1264 l 417 1139 l 514 1264 l 611 1264 l 482 1079 l 351 1079 l 222 1264 l 319 1264 z "},"Â":{"ha":833,"x_min":36,"x_max":797,"o":"m 336 986 l 497 986 l 797 0 l 675 0 l 594 275 l 239 275 l 158 0 l 36 0 l 336 986 m 561 389 l 417 878 l 272 389 l 561 389 m 350 1265 l 481 1265 l 610 1081 l 513 1081 l 415 1206 l 318 1081 l 221 1081 l 350 1265 z "},"Ä":{"ha":833,"x_min":36,"x_max":797,"o":"m 336 986 l 497 986 l 797 0 l 675 0 l 594 275 l 239 275 l 158 0 l 36 0 l 336 986 m 561 389 l 417 878 l 272 389 l 561 389 z "},"À":{"ha":833,"x_min":36,"x_max":797,"o":"m 336 986 l 497 986 l 797 0 l 675 0 l 594 275 l 239 275 l 158 0 l 36 0 l 336 986 m 561 389 l 417 878 l 272 389 l 561 389 m 250 1264 l 381 1264 l 472 1086 l 375 1086 l 250 1264 z "},"Ā":{"ha":833,"x_min":36,"x_max":797,"o":"m 336 986 l 497 986 l 797 0 l 675 0 l 594 275 l 239 275 l 158 0 l 36 0 l 336 986 m 561 389 l 417 878 l 272 389 l 561 389 m 229 1218 l 601 1218 l 601 1118 l 229 1118 l 229 1218 z "},"Ą":{"ha":833,"x_min":36,"x_max":831,"o":"m 336 986 l 497 986 l 797 0 l 783 0 l 735 -62 q 701 -117 710 -96 q 692 -156 692 -137 q 733 -197 692 -197 q 768 -192 750 -197 q 797 -178 786 -187 l 831 -256 q 782 -282 814 -272 q 711 -292 750 -292 q 619 -262 653 -292 q 586 -181 586 -232 q 643 -42 586 -112 l 676 0 l 675 0 l 594 275 l 239 275 l 158 0 l 36 0 l 336 986 m 561 389 l 417 878 l 272 389 l 561 389 z "},"Å":{"ha":833,"x_min":36,"x_max":797,"o":"m 336 986 l 497 986 l 797 0 l 675 0 l 594 275 l 239 275 l 158 0 l 36 0 l 336 986 m 561 389 l 417 878 l 272 389 l 561 389 m 417 1064 q 326 1101 363 1064 q 289 1192 289 1138 q 326 1283 289 1246 q 417 1319 363 1319 q 508 1283 471 1319 q 544 1192 544 1246 q 508 1101 544 1138 q 417 1064 471 1064 m 417 1133 q 458 1150 442 1133 q 475 1192 475 1167 q 458 1233 475 1217 q 417 1250 442 1250 q 375 1233 392 1250 q 358 1192 358 1217 q 375 1150 358 1167 q 417 1133 392 1133 z "},"Ã":{"ha":833,"x_min":36,"x_max":797,"o":"m 336 986 l 497 986 l 797 0 l 675 0 l 594 275 l 239 275 l 158 0 l 36 0 l 336 986 m 561 389 l 417 878 l 272 389 l 561 389 m 500 1097 q 403 1139 454 1097 q 363 1168 376 1161 q 331 1175 350 1175 q 269 1088 274 1175 l 197 1088 q 235 1208 199 1165 q 331 1250 272 1250 q 385 1239 361 1250 q 436 1206 410 1228 q 474 1180 458 1188 q 506 1172 489 1172 q 546 1192 532 1172 q 564 1264 560 1213 l 636 1264 q 596 1141 632 1185 q 500 1097 560 1097 z "},"Æ":{"ha":833,"x_min":14,"x_max":808,"o":"m 339 986 l 801 986 l 801 869 l 565 869 l 565 551 l 792 551 l 792 438 l 565 438 l 565 117 l 808 117 l 808 0 l 446 0 l 446 281 l 226 281 l 138 0 l 14 0 l 339 986 m 446 397 l 446 874 l 417 874 l 263 397 l 446 397 z "},"B":{"ha":833,"x_min":125,"x_max":772,"o":"m 125 986 l 403 986 q 647 915 563 986 q 731 717 731 844 q 682 580 731 636 q 554 508 633 524 q 715 433 657 494 q 772 275 772 371 q 683 74 772 147 q 438 0 593 0 l 125 0 l 125 986 m 439 114 q 594 156 540 114 q 647 275 647 199 q 594 400 647 356 q 439 444 540 444 l 244 444 l 244 114 l 439 114 m 408 558 q 606 714 606 558 q 408 872 606 872 l 244 872 l 244 558 l 408 558 z "},"C":{"ha":833,"x_min":53,"x_max":772,"o":"m 419 -22 q 149 115 244 -22 q 53 492 53 253 q 149 871 53 733 q 419 1008 244 1008 q 642 923 550 1008 q 764 685 733 838 l 636 676 q 556 836 613 781 q 419 892 499 892 q 240 788 303 892 q 178 492 178 685 q 240 197 178 300 q 419 94 303 94 q 566 156 507 94 q 646 332 625 217 l 772 325 q 651 70 744 163 q 419 -22 558 -22 z "},"Ć":{"ha":833,"x_min":53,"x_max":772,"o":"m 419 -22 q 149 115 244 -22 q 53 492 53 253 q 149 871 53 733 q 419 1008 244 1008 q 642 923 550 1008 q 764 685 733 838 l 636 676 q 556 836 613 781 q 419 892 499 892 q 240 788 303 892 q 178 492 178 685 q 240 197 178 300 q 419 94 303 94 q 566 156 507 94 q 646 332 625 217 l 772 325 q 651 70 744 163 q 419 -22 558 -22 m 458 1264 l 589 1264 l 464 1086 l 367 1086 l 458 1264 z "},"Č":{"ha":833,"x_min":53,"x_max":772,"o":"m 419 -22 q 149 115 244 -22 q 53 492 53 253 q 149 871 53 733 q 419 1008 244 1008 q 642 923 550 1008 q 764 685 733 838 l 636 676 q 556 836 613 781 q 419 892 499 892 q 240 788 303 892 q 178 492 178 685 q 240 197 178 300 q 419 94 303 94 q 566 156 507 94 q 646 332 625 217 l 772 325 q 651 70 744 163 q 419 -22 558 -22 m 322 1264 l 419 1139 l 517 1264 l 614 1264 l 485 1079 l 354 1079 l 225 1264 l 322 1264 z "},"Ç":{"ha":833,"x_min":53,"x_max":772,"o":"m 428 -306 q 344 -284 381 -306 q 265 -212 308 -262 l 322 -160 q 369 -211 347 -192 q 422 -231 392 -231 q 470 -215 453 -231 q 488 -171 488 -199 q 468 -129 488 -144 q 415 -114 449 -114 q 382 -118 401 -114 l 343 -67 l 385 -21 q 140 128 226 -7 q 53 492 53 264 q 149 871 53 733 q 419 1008 244 1008 q 642 923 550 1008 q 764 685 733 838 l 636 676 q 556 836 613 781 q 419 892 499 892 q 240 788 303 892 q 178 492 178 685 q 240 197 178 300 q 419 94 303 94 q 566 156 507 94 q 646 332 625 217 l 772 325 q 665 83 747 174 q 458 -21 582 -8 l 429 -51 q 526 -86 489 -51 q 564 -176 564 -121 q 524 -268 564 -231 q 428 -306 485 -306 z "},"Ĉ":{"ha":833,"x_min":53,"x_max":772,"o":"m 419 -22 q 149 115 244 -22 q 53 492 53 253 q 149 871 53 733 q 419 1008 244 1008 q 642 923 550 1008 q 764 685 733 838 l 636 676 q 556 836 613 781 q 419 892 499 892 q 240 788 303 892 q 178 492 178 685 q 240 197 178 300 q 419 94 303 94 q 566 156 507 94 q 646 332 625 217 l 772 325 q 651 70 744 163 q 419 -22 558 -22 m 353 1265 l 483 1265 l 613 1081 l 515 1081 l 418 1206 l 321 1081 l 224 1081 l 353 1265 z "},"Ċ":{"ha":833,"x_min":53,"x_max":772,"o":"m 419 -22 q 149 115 244 -22 q 53 492 53 253 q 149 871 53 733 q 419 1008 244 1008 q 642 923 550 1008 q 764 685 733 838 l 636 676 q 556 836 613 781 q 419 892 499 892 q 240 788 303 892 q 178 492 178 685 q 240 197 178 300 q 419 94 303 94 q 566 156 507 94 q 646 332 625 217 l 772 325 q 651 70 744 163 q 419 -22 558 -22 m 357 1238 l 479 1238 l 479 1101 l 357 1101 l 357 1238 z "},"D":{"ha":833,"x_min":125,"x_max":781,"o":"m 125 986 l 358 986 q 581 928 486 986 q 728 759 676 871 q 781 492 781 647 q 728 225 781 336 q 581 57 676 114 q 358 0 486 0 l 125 0 l 125 986 m 351 114 q 576 210 497 114 q 656 492 656 307 q 576 775 656 678 q 351 872 497 872 l 244 872 l 244 114 l 351 114 z "},"Ď":{"ha":833,"x_min":125,"x_max":781,"o":"m 125 986 l 358 986 q 581 928 486 986 q 728 759 676 871 q 781 492 781 647 q 728 225 781 336 q 581 57 676 114 q 358 0 486 0 l 125 0 l 125 986 m 351 114 q 576 210 497 114 q 656 492 656 307 q 576 775 656 678 q 351 872 497 872 l 244 872 l 244 114 l 351 114 m 321 1264 l 418 1139 l 515 1264 l 613 1264 l 483 1079 l 353 1079 l 224 1264 l 321 1264 z "},"Đ":{"ha":833,"x_min":-14,"x_max":835,"o":"m -14 544 l 179 544 l 179 986 l 413 986 q 635 928 540 986 q 783 759 731 871 q 835 492 835 647 q 783 225 835 336 q 635 57 731 114 q 413 0 540 0 l 179 0 l 179 442 l -14 442 l -14 544 m 406 114 q 631 210 551 114 q 710 492 710 307 q 631 775 710 678 q 406 872 551 872 l 299 872 l 299 544 l 431 544 l 431 442 l 299 442 l 299 114 l 406 114 z "},"Ð":{"ha":833,"x_min":-14,"x_max":835,"o":"m -14 544 l 179 544 l 179 986 l 413 986 q 635 928 540 986 q 783 759 731 871 q 835 492 835 647 q 783 225 835 336 q 635 57 731 114 q 413 0 540 0 l 179 0 l 179 442 l -14 442 l -14 544 m 406 114 q 631 210 551 114 q 710 492 710 307 q 631 775 710 678 q 406 872 551 872 l 299 872 l 299 544 l 431 544 l 431 442 l 299 442 l 299 114 l 406 114 z "},"E":{"ha":833,"x_min":125,"x_max":736,"o":"m 125 986 l 725 986 l 725 872 l 244 872 l 244 553 l 708 553 l 708 439 l 244 439 l 244 114 l 736 114 l 736 0 l 125 0 l 125 986 z "},"É":{"ha":833,"x_min":125,"x_max":736,"o":"m 125 986 l 725 986 l 725 872 l 244 872 l 244 553 l 708 553 l 708 439 l 244 439 l 244 114 l 736 114 l 736 0 l 125 0 l 125 986 m 481 1265 l 611 1265 l 486 1088 l 389 1088 l 481 1265 z "},"Ě":{"ha":833,"x_min":125,"x_max":736,"o":"m 125 986 l 725 986 l 725 872 l 244 872 l 244 553 l 708 553 l 708 439 l 244 439 l 244 114 l 736 114 l 736 0 l 125 0 l 125 986 m 344 1265 l 442 1140 l 539 1265 l 636 1265 l 507 1081 l 376 1081 l 247 1265 l 344 1265 z "},"Ê":{"ha":833,"x_min":125,"x_max":736,"o":"m 125 986 l 725 986 l 725 872 l 244 872 l 244 553 l 708 553 l 708 439 l 244 439 l 244 114 l 736 114 l 736 0 l 125 0 l 125 986 m 375 1267 l 506 1267 l 635 1082 l 538 1082 l 440 1207 l 343 1082 l 246 1082 l 375 1267 z "},"Ë":{"ha":833,"x_min":125,"x_max":736,"o":"m 125 986 l 725 986 l 725 872 l 244 872 l 244 553 l 708 553 l 708 439 l 244 439 l 244 114 l 736 114 l 736 0 l 125 0 l 125 986 z "},"Ė":{"ha":833,"x_min":125,"x_max":736,"o":"m 125 986 l 725 986 l 725 872 l 244 872 l 244 553 l 708 553 l 708 439 l 244 439 l 244 114 l 736 114 l 736 0 l 125 0 l 125 986 m 379 1239 l 501 1239 l 501 1103 l 379 1103 l 379 1239 z "},"È":{"ha":833,"x_min":125,"x_max":736,"o":"m 125 986 l 725 986 l 725 872 l 244 872 l 244 553 l 708 553 l 708 439 l 244 439 l 244 114 l 736 114 l 736 0 l 125 0 l 125 986 m 275 1265 l 406 1265 l 497 1088 l 400 1088 l 275 1265 z "},"Ē":{"ha":833,"x_min":125,"x_max":736,"o":"m 125 986 l 725 986 l 725 872 l 244 872 l 244 553 l 708 553 l 708 439 l 244 439 l 244 114 l 736 114 l 736 0 l 125 0 l 125 986 m 254 1219 l 626 1219 l 626 1119 l 254 1119 l 254 1219 z "},"Ę":{"ha":833,"x_min":125,"x_max":789,"o":"m 125 986 l 725 986 l 725 872 l 244 872 l 244 553 l 708 553 l 708 439 l 244 439 l 244 114 l 736 114 l 736 1 l 742 0 l 693 -62 q 659 -117 668 -96 q 650 -156 650 -137 q 692 -197 650 -197 q 726 -192 708 -197 q 756 -178 744 -187 l 789 -256 q 740 -282 772 -272 q 669 -292 708 -292 q 578 -262 611 -292 q 544 -181 544 -232 q 601 -42 544 -112 l 635 0 l 125 0 l 125 986 z "},"Ẽ":{"ha":833,"x_min":125,"x_max":736,"o":"m 125 986 l 725 986 l 725 872 l 244 872 l 244 553 l 708 553 l 708 439 l 244 439 l 244 114 l 736 114 l 736 0 l 125 0 l 125 986 m 525 1099 q 428 1140 479 1099 q 388 1169 401 1163 q 356 1176 375 1176 q 294 1089 299 1176 l 222 1089 q 260 1209 224 1167 q 356 1251 297 1251 q 410 1240 386 1251 q 461 1207 435 1229 q 499 1181 483 1189 q 531 1174 514 1174 q 571 1194 557 1174 q 589 1265 585 1214 l 661 1265 q 621 1142 657 1186 q 525 1099 585 1099 z "},"Ə":{"ha":833,"x_min":39,"x_max":794,"o":"m 406 -22 q 218 40 300 -22 q 90 215 136 103 q 40 472 43 328 l 39 542 l 668 542 q 626 724 661 644 q 535 847 592 803 q 406 892 478 892 q 274 837 332 892 q 192 696 215 782 l 65 707 q 198 927 107 846 q 406 1008 289 1008 q 609 943 521 1008 q 746 760 697 878 q 794 493 794 643 q 744 232 794 350 q 604 46 693 114 q 406 -22 515 -22 m 406 94 q 576 180 510 94 q 667 425 643 265 l 168 425 q 248 180 188 265 q 406 94 308 94 z "},"F":{"ha":833,"x_min":139,"x_max":750,"o":"m 139 986 l 750 986 l 750 872 l 258 872 l 258 539 l 725 539 l 725 425 l 258 425 l 258 0 l 139 0 l 139 986 z "},"G":{"ha":833,"x_min":53,"x_max":769,"o":"m 414 -22 q 226 37 308 -22 q 99 211 144 96 q 53 492 53 326 q 97 767 53 650 q 223 946 140 883 q 419 1008 306 1008 q 642 922 551 1008 q 765 692 732 836 l 640 683 q 560 835 615 779 q 419 892 504 892 q 241 788 304 892 q 178 492 178 683 q 242 198 178 301 q 425 94 307 94 q 544 132 492 94 q 626 235 596 169 q 658 383 656 301 l 422 383 l 422 497 l 769 497 l 769 0 l 658 0 l 656 126 q 414 -22 578 -22 z "},"Ğ":{"ha":833,"x_min":53,"x_max":769,"o":"m 414 -22 q 226 37 308 -22 q 99 211 144 96 q 53 492 53 326 q 97 767 53 650 q 223 946 140 883 q 419 1008 306 1008 q 642 922 551 1008 q 765 692 732 836 l 640 683 q 560 835 615 779 q 419 892 504 892 q 241 788 304 892 q 178 492 178 683 q 242 198 178 301 q 425 94 307 94 q 544 132 492 94 q 626 235 596 169 q 658 383 656 301 l 422 383 l 422 497 l 769 497 l 769 0 l 658 0 l 656 126 q 414 -22 578 -22 m 415 1088 q 278 1135 331 1088 q 221 1265 225 1183 l 301 1265 q 415 1174 314 1174 q 529 1265 517 1174 l 610 1265 q 553 1135 606 1183 q 415 1088 500 1088 z "},"Ǧ":{"ha":833,"x_min":53,"x_max":769,"o":"m 414 -22 q 226 37 308 -22 q 99 211 144 96 q 53 492 53 326 q 97 767 53 650 q 223 946 140 883 q 419 1008 306 1008 q 642 922 551 1008 q 765 692 732 836 l 640 683 q 560 835 615 779 q 419 892 504 892 q 241 788 304 892 q 178 492 178 683 q 242 198 178 301 q 425 94 307 94 q 544 132 492 94 q 626 235 596 169 q 658 383 656 301 l 422 383 l 422 497 l 769 497 l 769 0 l 658 0 l 656 126 q 414 -22 578 -22 m 318 1264 l 415 1139 l 513 1264 l 610 1264 l 481 1079 l 350 1079 l 221 1264 l 318 1264 z "},"Ĝ":{"ha":833,"x_min":53,"x_max":769,"o":"m 414 -22 q 226 37 308 -22 q 99 211 144 96 q 53 492 53 326 q 97 767 53 650 q 223 946 140 883 q 419 1008 306 1008 q 642 922 551 1008 q 765 692 732 836 l 640 683 q 560 835 615 779 q 419 892 504 892 q 241 788 304 892 q 178 492 178 683 q 242 198 178 301 q 425 94 307 94 q 544 132 492 94 q 626 235 596 169 q 658 383 656 301 l 422 383 l 422 497 l 769 497 l 769 0 l 658 0 l 656 126 q 414 -22 578 -22 m 349 1265 l 479 1265 l 608 1081 l 511 1081 l 414 1206 l 317 1081 l 219 1081 l 349 1265 z "},"Ģ":{"ha":833,"x_min":53,"x_max":769,"o":"m 414 -22 q 226 37 308 -22 q 99 211 144 96 q 53 492 53 326 q 97 767 53 650 q 223 946 140 883 q 419 1008 306 1008 q 642 922 551 1008 q 765 692 732 836 l 640 683 q 560 835 615 779 q 419 892 504 892 q 241 788 304 892 q 178 492 178 683 q 242 198 178 301 q 425 94 307 94 q 544 132 492 94 q 626 235 596 169 q 658 383 656 301 l 422 383 l 422 497 l 769 497 l 769 0 l 658 0 l 656 126 q 414 -22 578 -22 m 407 -172 l 360 -172 l 360 -47 l 499 -47 l 499 -167 l 410 -297 l 332 -297 l 407 -172 z "},"Ġ":{"ha":833,"x_min":53,"x_max":769,"o":"m 414 -22 q 226 37 308 -22 q 99 211 144 96 q 53 492 53 326 q 97 767 53 650 q 223 946 140 883 q 419 1008 306 1008 q 642 922 551 1008 q 765 692 732 836 l 640 683 q 560 835 615 779 q 419 892 504 892 q 241 788 304 892 q 178 492 178 683 q 242 198 178 301 q 425 94 307 94 q 544 132 492 94 q 626 235 596 169 q 658 383 656 301 l 422 383 l 422 497 l 769 497 l 769 0 l 658 0 l 656 126 q 414 -22 578 -22 m 353 1238 l 475 1238 l 475 1101 l 353 1101 l 353 1238 z "},"Ḡ":{"ha":833,"x_min":53,"x_max":769,"o":"m 414 -22 q 226 37 308 -22 q 99 211 144 96 q 53 492 53 326 q 97 767 53 650 q 223 946 140 883 q 419 1008 306 1008 q 642 922 551 1008 q 765 692 732 836 l 640 683 q 560 835 615 779 q 419 892 504 892 q 241 788 304 892 q 178 492 178 683 q 242 198 178 301 q 425 94 307 94 q 544 132 492 94 q 626 235 596 169 q 658 383 656 301 l 422 383 l 422 497 l 769 497 l 769 0 l 658 0 l 656 126 q 414 -22 578 -22 m 228 1218 l 600 1218 l 600 1118 l 228 1118 l 228 1218 z "},"Ǥ":{"ha":833,"x_min":28,"x_max":821,"o":"m 418 -22 q 217 46 306 -22 q 78 232 128 114 q 28 492 28 350 q 78 753 28 635 q 217 940 128 871 q 418 1008 306 1008 q 649 922 551 1008 q 779 697 746 835 l 654 689 q 566 835 629 779 q 418 892 503 892 q 276 838 336 892 q 184 692 215 783 q 153 492 153 600 q 184 293 153 383 q 276 149 215 203 q 418 94 336 94 q 536 123 485 94 q 619 204 588 151 l 418 204 l 418 307 l 656 307 q 661 382 661 339 l 418 382 l 418 499 l 788 499 l 788 438 q 776 307 788 371 l 821 307 l 821 204 l 747 204 q 618 37 703 96 q 418 -22 533 -22 z "},"H":{"ha":833,"x_min":94,"x_max":739,"o":"m 94 986 l 214 986 l 214 553 l 619 553 l 619 986 l 739 986 l 739 0 l 619 0 l 619 439 l 214 439 l 214 0 l 94 0 l 94 986 z "},"Ħ":{"ha":833,"x_min":33,"x_max":800,"o":"m 588 444 l 246 444 l 246 0 l 126 0 l 126 735 l 33 735 l 33 851 l 126 851 l 126 986 l 246 986 l 246 851 l 588 851 l 588 986 l 707 986 l 707 851 l 800 851 l 800 735 l 707 735 l 707 0 l 588 0 l 588 444 m 588 561 l 588 735 l 246 735 l 246 561 l 588 561 z "},"Ĥ":{"ha":833,"x_min":94,"x_max":739,"o":"m 94 986 l 214 986 l 214 553 l 619 553 l 619 986 l 739 986 l 739 0 l 619 0 l 619 439 l 214 439 l 214 0 l 94 0 l 94 986 m 350 1265 l 481 1265 l 610 1081 l 513 1081 l 415 1206 l 318 1081 l 221 1081 l 350 1265 z "},"I":{"ha":833,"x_min":111,"x_max":722,"o":"m 111 114 l 357 114 l 357 872 l 111 872 l 111 986 l 722 986 l 722 872 l 476 872 l 476 114 l 722 114 l 722 0 l 111 0 l 111 114 z "},"Í":{"ha":833,"x_min":111,"x_max":722,"o":"m 111 114 l 357 114 l 357 872 l 111 872 l 111 986 l 722 986 l 722 872 l 476 872 l 476 114 l 722 114 l 722 0 l 111 0 l 111 114 m 456 1264 l 586 1264 l 461 1086 l 364 1086 l 456 1264 z "},"Î":{"ha":833,"x_min":111,"x_max":722,"o":"m 111 114 l 357 114 l 357 872 l 111 872 l 111 986 l 722 986 l 722 872 l 476 872 l 476 114 l 722 114 l 722 0 l 111 0 l 111 114 m 350 1265 l 481 1265 l 610 1081 l 513 1081 l 415 1206 l 318 1081 l 221 1081 l 350 1265 z "},"Ï":{"ha":833,"x_min":111,"x_max":722,"o":"m 111 114 l 357 114 l 357 872 l 111 872 l 111 986 l 722 986 l 722 872 l 476 872 l 476 114 l 722 114 l 722 0 l 111 0 l 111 114 z "},"İ":{"ha":833,"x_min":111,"x_max":722,"o":"m 111 114 l 357 114 l 357 872 l 111 872 l 111 986 l 722 986 l 722 872 l 476 872 l 476 114 l 722 114 l 722 0 l 111 0 l 111 114 m 354 1238 l 476 1238 l 476 1101 l 354 1101 l 354 1238 z "},"Ì":{"ha":833,"x_min":111,"x_max":722,"o":"m 111 114 l 357 114 l 357 872 l 111 872 l 111 986 l 722 986 l 722 872 l 476 872 l 476 114 l 722 114 l 722 0 l 111 0 l 111 114 m 250 1264 l 381 1264 l 472 1086 l 375 1086 l 250 1264 z "},"Ī":{"ha":833,"x_min":111,"x_max":722,"o":"m 111 114 l 357 114 l 357 872 l 111 872 l 111 986 l 722 986 l 722 872 l 476 872 l 476 114 l 722 114 l 722 0 l 111 0 l 111 114 m 229 1218 l 601 1218 l 601 1118 l 229 1118 l 229 1218 z "},"Į":{"ha":833,"x_min":111,"x_max":769,"o":"m 111 114 l 357 114 l 357 872 l 111 872 l 111 986 l 722 986 l 722 872 l 476 872 l 476 114 l 722 114 l 722 0 l 674 -62 q 640 -117 649 -96 q 631 -156 631 -137 q 672 -197 631 -197 q 707 -192 689 -197 q 736 -178 725 -187 l 769 -256 q 721 -282 753 -272 q 650 -292 689 -292 q 558 -262 592 -292 q 525 -181 525 -232 q 582 -42 525 -112 l 615 0 l 111 0 l 111 114 z "},"Ĩ":{"ha":833,"x_min":111,"x_max":722,"o":"m 111 114 l 357 114 l 357 872 l 111 872 l 111 986 l 722 986 l 722 872 l 476 872 l 476 114 l 722 114 l 722 0 l 111 0 l 111 114 m 500 1097 q 403 1139 454 1097 q 363 1168 376 1161 q 331 1175 350 1175 q 269 1088 274 1175 l 197 1088 q 235 1208 199 1165 q 331 1250 272 1250 q 385 1239 361 1250 q 436 1206 410 1228 q 474 1180 458 1188 q 506 1172 489 1172 q 546 1192 532 1172 q 564 1264 560 1213 l 636 1264 q 596 1141 632 1185 q 500 1097 560 1097 z "},"J":{"ha":833,"x_min":56,"x_max":708,"o":"m 382 -22 q 147 71 235 -22 q 56 319 60 164 l 172 331 q 228 152 176 210 q 382 94 279 94 q 589 331 589 94 l 589 986 l 708 986 l 708 331 q 620 72 708 167 q 382 -22 532 -22 z "},"Ĵ":{"ha":833,"x_min":56,"x_max":839,"o":"m 382 -22 q 147 71 235 -22 q 56 319 60 164 l 172 331 q 228 152 176 210 q 382 94 279 94 q 589 331 589 94 l 589 986 l 708 986 l 708 331 q 620 72 708 167 q 382 -22 532 -22 m 579 1265 l 710 1265 l 839 1081 l 742 1081 l 644 1206 l 547 1081 l 450 1081 l 579 1265 z "},"K":{"ha":833,"x_min":83,"x_max":778,"o":"m 83 986 l 203 986 l 203 550 l 603 986 l 750 986 l 375 572 l 778 0 l 631 0 l 292 489 l 203 394 l 203 0 l 83 0 l 83 986 z "},"Ǩ":{"ha":833,"x_min":83,"x_max":778,"o":"m 83 986 l 203 986 l 203 550 l 603 986 l 750 986 l 375 572 l 778 0 l 631 0 l 292 489 l 203 394 l 203 0 l 83 0 l 83 986 m 288 1264 l 385 1139 l 482 1264 l 579 1264 l 450 1079 l 319 1079 l 190 1264 l 288 1264 z "},"Ķ":{"ha":833,"x_min":83,"x_max":778,"o":"m 83 986 l 203 986 l 203 550 l 603 986 l 750 986 l 375 572 l 778 0 l 631 0 l 292 489 l 203 394 l 203 0 l 83 0 l 83 986 m 386 -172 l 339 -172 l 339 -47 l 478 -47 l 478 -167 l 389 -297 l 311 -297 l 386 -172 z "},"L":{"ha":833,"x_min":139,"x_max":750,"o":"m 139 986 l 258 986 l 258 114 l 750 114 l 750 0 l 139 0 l 139 986 z "},"Ĺ":{"ha":833,"x_min":139,"x_max":750,"o":"m 139 986 l 258 986 l 258 114 l 750 114 l 750 0 l 139 0 l 139 986 m 238 1264 l 368 1264 l 243 1086 l 146 1086 l 238 1264 z "},"Ľ":{"ha":833,"x_min":139,"x_max":750,"o":"m 139 986 l 258 986 l 258 114 l 750 114 l 750 0 l 139 0 l 139 986 m 458 986 l 574 986 l 501 650 l 417 650 l 458 986 z "},"Ļ":{"ha":833,"x_min":139,"x_max":750,"o":"m 139 986 l 258 986 l 258 114 l 750 114 l 750 0 l 139 0 l 139 986 m 438 -172 l 390 -172 l 390 -47 l 529 -47 l 529 -167 l 440 -297 l 363 -297 l 438 -172 z "},"Ł":{"ha":833,"x_min":-36,"x_max":768,"o":"m -36 515 l 157 606 l 157 986 l 276 986 l 276 661 l 392 715 l 442 610 l 276 532 l 276 114 l 768 114 l 768 0 l 157 0 l 157 476 l 14 410 l -36 515 z "},"M":{"ha":833,"x_min":83,"x_max":750,"o":"m 203 826 l 203 0 l 83 0 l 83 986 l 264 986 l 417 300 l 569 986 l 750 986 l 750 0 l 631 0 l 631 826 l 469 111 l 364 111 l 203 826 z "},"N":{"ha":833,"x_min":97,"x_max":736,"o":"m 97 986 l 264 986 l 617 158 l 617 986 l 736 986 l 736 0 l 569 0 l 217 828 l 217 0 l 97 0 l 97 986 z "},"Ń":{"ha":833,"x_min":97,"x_max":736,"o":"m 97 986 l 264 986 l 617 158 l 617 986 l 736 986 l 736 0 l 569 0 l 217 828 l 217 0 l 97 0 l 97 986 m 456 1264 l 586 1264 l 461 1086 l 364 1086 l 456 1264 z "},"Ň":{"ha":833,"x_min":97,"x_max":736,"o":"m 97 986 l 264 986 l 617 158 l 617 986 l 736 986 l 736 0 l 569 0 l 217 828 l 217 0 l 97 0 l 97 986 m 319 1264 l 417 1139 l 514 1264 l 611 1264 l 482 1079 l 351 1079 l 222 1264 l 319 1264 z "},"Ņ":{"ha":833,"x_min":97,"x_max":736,"o":"m 97 986 l 264 986 l 617 158 l 617 986 l 736 986 l 736 0 l 569 0 l 217 828 l 217 0 l 97 0 l 97 986 m 408 -172 l 361 -172 l 361 -47 l 500 -47 l 500 -167 l 411 -297 l 333 -297 l 408 -172 z "},"Ñ":{"ha":833,"x_min":97,"x_max":736,"o":"m 97 986 l 264 986 l 617 158 l 617 986 l 736 986 l 736 0 l 569 0 l 217 828 l 217 0 l 97 0 l 97 986 m 500 1097 q 403 1139 454 1097 q 363 1168 376 1161 q 331 1175 350 1175 q 269 1088 274 1175 l 197 1088 q 235 1208 199 1165 q 331 1250 272 1250 q 385 1239 361 1250 q 436 1206 410 1228 q 474 1180 458 1188 q 506 1172 489 1172 q 546 1192 532 1172 q 564 1264 560 1213 l 636 1264 q 596 1141 632 1185 q 500 1097 560 1097 z "},"Ŋ":{"ha":833,"x_min":97,"x_max":736,"o":"m 374 -92 l 517 -92 q 604 -11 604 -92 l 604 0 l 569 0 l 217 828 l 217 0 l 97 0 l 97 986 l 264 986 l 617 158 l 617 986 l 736 986 l 736 0 l 725 0 l 725 -10 q 669 -154 725 -100 q 517 -208 613 -208 l 374 -208 l 374 -92 z "},"O":{"ha":833,"x_min":53,"x_max":781,"o":"m 417 -22 q 147 111 242 -22 q 53 492 53 244 q 147 874 53 740 q 417 1008 242 1008 q 686 874 592 1008 q 781 492 781 740 q 686 111 781 244 q 417 -22 592 -22 m 417 94 q 594 197 532 94 q 656 492 656 299 q 594 788 656 685 q 417 892 532 892 q 240 788 301 892 q 178 492 178 685 q 240 197 178 299 q 417 94 301 94 z "},"Ó":{"ha":833,"x_min":53,"x_max":781,"o":"m 417 -22 q 147 111 242 -22 q 53 492 53 244 q 147 874 53 740 q 417 1008 242 1008 q 686 874 592 1008 q 781 492 781 740 q 686 111 781 244 q 417 -22 592 -22 m 417 94 q 594 197 532 94 q 656 492 656 299 q 594 788 656 685 q 417 892 532 892 q 240 788 301 892 q 178 492 178 685 q 240 197 178 299 q 417 94 301 94 m 456 1264 l 586 1264 l 461 1086 l 364 1086 l 456 1264 z "},"Ô":{"ha":833,"x_min":53,"x_max":781,"o":"m 417 -22 q 147 111 242 -22 q 53 492 53 244 q 147 874 53 740 q 417 1008 242 1008 q 686 874 592 1008 q 781 492 781 740 q 686 111 781 244 q 417 -22 592 -22 m 417 94 q 594 197 532 94 q 656 492 656 299 q 594 788 656 685 q 417 892 532 892 q 240 788 301 892 q 178 492 178 685 q 240 197 178 299 q 417 94 301 94 m 350 1265 l 481 1265 l 610 1081 l 513 1081 l 415 1206 l 318 1081 l 221 1081 l 350 1265 z "},"Ö":{"ha":833,"x_min":53,"x_max":781,"o":"m 417 -22 q 147 111 242 -22 q 53 492 53 244 q 147 874 53 740 q 417 1008 242 1008 q 686 874 592 1008 q 781 492 781 740 q 686 111 781 244 q 417 -22 592 -22 m 417 94 q 594 197 532 94 q 656 492 656 299 q 594 788 656 685 q 417 892 532 892 q 240 788 301 892 q 178 492 178 685 q 240 197 178 299 q 417 94 301 94 z "},"Ò":{"ha":833,"x_min":53,"x_max":781,"o":"m 417 -22 q 147 111 242 -22 q 53 492 53 244 q 147 874 53 740 q 417 1008 242 1008 q 686 874 592 1008 q 781 492 781 740 q 686 111 781 244 q 417 -22 592 -22 m 417 94 q 594 197 532 94 q 656 492 656 299 q 594 788 656 685 q 417 892 532 892 q 240 788 301 892 q 178 492 178 685 q 240 197 178 299 q 417 94 301 94 m 250 1264 l 381 1264 l 472 1086 l 375 1086 l 250 1264 z "},"Ő":{"ha":833,"x_min":53,"x_max":781,"o":"m 417 -22 q 147 111 242 -22 q 53 492 53 244 q 147 874 53 740 q 417 1008 242 1008 q 686 874 592 1008 q 781 492 781 740 q 686 111 781 244 q 417 -22 592 -22 m 417 94 q 594 197 532 94 q 656 492 656 299 q 594 788 656 685 q 417 892 532 892 q 240 788 301 892 q 178 492 178 685 q 240 197 178 299 q 417 94 301 94 z "},"Ō":{"ha":833,"x_min":53,"x_max":781,"o":"m 417 -22 q 147 111 242 -22 q 53 492 53 244 q 147 874 53 740 q 417 1008 242 1008 q 686 874 592 1008 q 781 492 781 740 q 686 111 781 244 q 417 -22 592 -22 m 417 94 q 594 197 532 94 q 656 492 656 299 q 594 788 656 685 q 417 892 532 892 q 240 788 301 892 q 178 492 178 685 q 240 197 178 299 q 417 94 301 94 m 229 1218 l 601 1218 l 601 1118 l 229 1118 l 229 1218 z "},"Ø":{"ha":833,"x_min":53,"x_max":781,"o":"m 139 124 q 53 492 53 256 q 147 874 53 740 q 417 1008 242 1008 q 622 943 538 1008 l 661 1008 l 775 1008 l 692 867 q 781 492 781 733 q 686 111 781 244 q 417 -22 592 -22 q 210 46 294 -22 l 169 -22 l 53 -22 l 139 124 m 417 94 q 594 197 532 94 q 656 492 656 299 q 617 740 656 646 l 272 153 q 417 94 329 94 m 178 492 q 214 250 178 346 l 558 835 q 417 892 501 892 q 240 788 301 892 q 178 492 178 685 z "},"Õ":{"ha":833,"x_min":53,"x_max":781,"o":"m 417 -22 q 147 111 242 -22 q 53 492 53 244 q 147 874 53 740 q 417 1008 242 1008 q 686 874 592 1008 q 781 492 781 740 q 686 111 781 244 q 417 -22 592 -22 m 417 94 q 594 197 532 94 q 656 492 656 299 q 594 788 656 685 q 417 892 532 892 q 240 788 301 892 q 178 492 178 685 q 240 197 178 299 q 417 94 301 94 m 500 1097 q 403 1139 454 1097 q 363 1168 376 1161 q 331 1175 350 1175 q 269 1088 274 1175 l 197 1088 q 235 1208 199 1165 q 331 1250 272 1250 q 385 1239 361 1250 q 436 1206 410 1228 q 474 1180 458 1188 q 506 1172 489 1172 q 546 1192 532 1172 q 564 1264 560 1213 l 636 1264 q 596 1141 632 1185 q 500 1097 560 1097 z "},"Œ":{"ha":833,"x_min":10,"x_max":822,"o":"m 294 -22 q 142 40 206 -22 q 44 218 78 103 q 10 492 10 333 q 44 767 10 651 q 142 946 78 883 q 294 1008 206 1008 q 458 935 389 1008 l 458 986 l 815 986 l 815 869 l 578 869 l 578 551 l 806 551 l 806 438 l 578 438 l 578 117 l 822 117 l 822 0 l 458 0 l 458 51 q 294 -22 389 -22 m 294 94 q 417 197 379 94 q 456 492 456 299 q 417 789 456 686 q 294 892 379 892 q 171 789 210 892 q 132 492 132 686 q 171 197 132 300 q 294 94 210 94 z "},"P":{"ha":833,"x_min":125,"x_max":764,"o":"m 125 986 l 425 986 q 672 907 581 986 q 764 688 764 828 q 672 468 764 547 q 425 389 581 389 l 244 389 l 244 0 l 125 0 l 125 986 m 411 503 q 639 688 639 503 q 411 872 639 872 l 244 872 l 244 503 l 411 503 z "},"Þ":{"ha":833,"x_min":125,"x_max":786,"o":"m 125 986 l 244 986 l 244 808 l 436 808 q 694 730 601 808 q 786 511 786 651 q 694 288 786 368 q 436 207 601 207 l 244 207 l 244 0 l 125 0 l 125 986 m 436 324 q 661 511 661 324 q 436 692 661 692 l 244 692 l 244 324 l 436 324 z "},"Q":{"ha":833,"x_min":53,"x_max":781,"o":"m 531 -6 q 417 -22 479 -22 q 147 111 242 -22 q 53 492 53 244 q 147 874 53 740 q 417 1008 242 1008 q 686 874 592 1008 q 781 492 781 740 q 743 224 781 336 q 632 51 706 113 l 717 -97 l 583 -97 l 531 -6 m 417 94 q 469 100 447 94 l 361 289 l 494 289 l 568 161 q 656 492 656 261 q 594 788 656 685 q 417 892 532 892 q 240 788 301 892 q 178 492 178 685 q 240 197 178 299 q 417 94 301 94 z "},"R":{"ha":833,"x_min":97,"x_max":742,"o":"m 97 986 l 397 986 q 643 908 553 986 q 733 692 733 829 q 688 547 733 610 q 574 458 642 483 q 676 403 643 444 q 717 283 710 363 l 742 0 l 621 0 l 597 268 q 550 369 590 338 q 422 400 510 400 l 217 400 l 217 0 l 97 0 l 97 986 m 397 514 q 553 560 499 514 q 608 692 608 607 q 553 825 608 778 q 397 872 499 872 l 217 872 l 217 514 l 397 514 z "},"Ŕ":{"ha":833,"x_min":97,"x_max":742,"o":"m 97 986 l 397 986 q 643 908 553 986 q 733 692 733 829 q 688 547 733 610 q 574 458 642 483 q 676 403 643 444 q 717 283 710 363 l 742 0 l 621 0 l 597 268 q 550 369 590 338 q 422 400 510 400 l 217 400 l 217 0 l 97 0 l 97 986 m 397 514 q 553 560 499 514 q 608 692 608 607 q 553 825 608 778 q 397 872 499 872 l 217 872 l 217 514 l 397 514 m 436 1264 l 567 1264 l 442 1086 l 344 1086 l 436 1264 z "},"Ř":{"ha":833,"x_min":97,"x_max":742,"o":"m 97 986 l 397 986 q 643 908 553 986 q 733 692 733 829 q 688 547 733 610 q 574 458 642 483 q 676 403 643 444 q 717 283 710 363 l 742 0 l 621 0 l 597 268 q 550 369 590 338 q 422 400 510 400 l 217 400 l 217 0 l 97 0 l 97 986 m 397 514 q 553 560 499 514 q 608 692 608 607 q 553 825 608 778 q 397 872 499 872 l 217 872 l 217 514 l 397 514 m 300 1264 l 397 1139 l 494 1264 l 592 1264 l 463 1079 l 332 1079 l 203 1264 l 300 1264 z "},"Ŗ":{"ha":833,"x_min":97,"x_max":742,"o":"m 97 986 l 397 986 q 643 908 553 986 q 733 692 733 829 q 688 547 733 610 q 574 458 642 483 q 676 403 643 444 q 717 283 710 363 l 742 0 l 621 0 l 597 268 q 550 369 590 338 q 422 400 510 400 l 217 400 l 217 0 l 97 0 l 97 986 m 397 514 q 553 560 499 514 q 608 692 608 607 q 553 825 608 778 q 397 872 499 872 l 217 872 l 217 514 l 397 514 m 414 -172 l 367 -172 l 367 -47 l 506 -47 l 506 -167 l 417 -297 l 339 -297 l 414 -172 z "},"S":{"ha":833,"x_min":61,"x_max":772,"o":"m 432 -22 q 248 20 329 -22 q 118 139 167 63 q 61 315 69 215 l 186 324 q 265 154 200 214 q 435 94 331 94 q 592 133 538 94 q 647 244 647 172 q 625 328 647 294 q 544 393 603 363 q 371 456 485 424 q 203 521 265 486 q 113 605 142 556 q 85 728 85 654 q 124 874 85 810 q 238 973 164 938 q 413 1008 313 1008 q 649 922 560 1008 q 754 694 738 835 l 629 686 q 561 836 617 781 q 410 892 506 892 q 264 848 318 892 q 210 733 210 804 q 230 657 210 686 q 299 606 250 628 q 446 556 349 583 q 638 480 568 521 q 740 382 708 439 q 772 242 772 325 q 729 105 772 165 q 609 11 686 44 q 432 -22 532 -22 z "},"Ś":{"ha":833,"x_min":61,"x_max":772,"o":"m 432 -22 q 248 20 329 -22 q 118 139 167 63 q 61 315 69 215 l 186 324 q 265 154 200 214 q 435 94 331 94 q 592 133 538 94 q 647 244 647 172 q 625 328 647 294 q 544 393 603 363 q 371 456 485 424 q 203 521 265 486 q 113 605 142 556 q 85 728 85 654 q 124 874 85 810 q 238 973 164 938 q 413 1008 313 1008 q 649 922 560 1008 q 754 694 738 835 l 629 686 q 561 836 617 781 q 410 892 506 892 q 264 848 318 892 q 210 733 210 804 q 230 657 210 686 q 299 606 250 628 q 446 556 349 583 q 638 480 568 521 q 740 382 708 439 q 772 242 772 325 q 729 105 772 165 q 609 11 686 44 q 432 -22 532 -22 m 454 1264 l 585 1264 l 460 1086 l 363 1086 l 454 1264 z "},"Š":{"ha":833,"x_min":61,"x_max":772,"o":"m 432 -22 q 248 20 329 -22 q 118 139 167 63 q 61 315 69 215 l 186 324 q 265 154 200 214 q 435 94 331 94 q 592 133 538 94 q 647 244 647 172 q 625 328 647 294 q 544 393 603 363 q 371 456 485 424 q 203 521 265 486 q 113 605 142 556 q 85 728 85 654 q 124 874 85 810 q 238 973 164 938 q 413 1008 313 1008 q 649 922 560 1008 q 754 694 738 835 l 629 686 q 561 836 617 781 q 410 892 506 892 q 264 848 318 892 q 210 733 210 804 q 230 657 210 686 q 299 606 250 628 q 446 556 349 583 q 638 480 568 521 q 740 382 708 439 q 772 242 772 325 q 729 105 772 165 q 609 11 686 44 q 432 -22 532 -22 m 318 1264 l 415 1139 l 513 1264 l 610 1264 l 481 1079 l 350 1079 l 221 1264 l 318 1264 z "},"Ş":{"ha":833,"x_min":61,"x_max":772,"o":"m 407 -306 q 324 -284 360 -306 q 244 -212 288 -262 l 301 -160 q 349 -211 326 -192 q 401 -231 371 -231 q 449 -215 432 -231 q 467 -171 467 -199 q 447 -129 467 -144 q 394 -114 428 -114 q 361 -118 381 -114 l 322 -67 l 367 -18 q 155 91 238 1 q 61 315 72 181 l 186 324 q 265 154 200 214 q 435 94 331 94 q 592 133 538 94 q 647 244 647 172 q 625 328 647 294 q 544 393 603 363 q 371 456 485 424 q 203 521 265 486 q 113 605 142 556 q 85 728 85 654 q 124 874 85 810 q 238 973 164 938 q 413 1008 313 1008 q 649 922 560 1008 q 754 694 738 835 l 629 686 q 561 836 617 781 q 410 892 506 892 q 264 848 318 892 q 210 733 210 804 q 230 657 210 686 q 299 606 250 628 q 446 556 349 583 q 638 480 568 521 q 740 382 708 439 q 772 242 772 325 q 730 106 772 165 q 610 12 688 46 q 435 -22 533 -22 l 408 -51 q 506 -86 468 -51 q 543 -176 543 -121 q 503 -268 543 -231 q 407 -306 464 -306 z "},"Ŝ":{"ha":833,"x_min":61,"x_max":772,"o":"m 432 -22 q 248 20 329 -22 q 118 139 167 63 q 61 315 69 215 l 186 324 q 265 154 200 214 q 435 94 331 94 q 592 133 538 94 q 647 244 647 172 q 625 328 647 294 q 544 393 603 363 q 371 456 485 424 q 203 521 265 486 q 113 605 142 556 q 85 728 85 654 q 124 874 85 810 q 238 973 164 938 q 413 1008 313 1008 q 649 922 560 1008 q 754 694 738 835 l 629 686 q 561 836 617 781 q 410 892 506 892 q 264 848 318 892 q 210 733 210 804 q 230 657 210 686 q 299 606 250 628 q 446 556 349 583 q 638 480 568 521 q 740 382 708 439 q 772 242 772 325 q 729 105 772 165 q 609 11 686 44 q 432 -22 532 -22 m 349 1265 l 479 1265 l 608 1081 l 511 1081 l 414 1206 l 317 1081 l 219 1081 l 349 1265 z "},"Ș":{"ha":833,"x_min":61,"x_max":772,"o":"m 432 -22 q 248 20 329 -22 q 118 139 167 63 q 61 315 69 215 l 186 324 q 265 154 200 214 q 435 94 331 94 q 592 133 538 94 q 647 244 647 172 q 625 328 647 294 q 544 393 603 363 q 371 456 485 424 q 203 521 265 486 q 113 605 142 556 q 85 728 85 654 q 124 874 85 810 q 238 973 164 938 q 413 1008 313 1008 q 649 922 560 1008 q 754 694 738 835 l 629 686 q 561 836 617 781 q 410 892 506 892 q 264 848 318 892 q 210 733 210 804 q 230 657 210 686 q 299 606 250 628 q 446 556 349 583 q 638 480 568 521 q 740 382 708 439 q 772 242 772 325 q 729 105 772 165 q 609 11 686 44 q 432 -22 532 -22 m 408 -172 l 361 -172 l 361 -47 l 500 -47 l 500 -167 l 411 -297 l 333 -297 l 408 -172 z "},"ẞ":{"ha":833,"x_min":50,"x_max":799,"o":"m 50 696 q 125 908 50 831 q 328 986 200 986 l 732 986 l 732 858 l 426 589 q 621 556 536 590 q 752 457 706 522 q 799 307 799 392 q 756 147 799 217 q 633 39 713 78 q 449 0 554 0 l 263 0 l 263 117 l 449 117 q 614 167 553 117 q 675 301 675 217 q 606 441 675 390 q 418 490 538 492 l 276 489 l 276 607 l 575 869 l 328 869 q 210 825 251 869 q 169 696 169 781 l 169 0 l 50 0 l 50 696 z "},"T":{"ha":833,"x_min":56,"x_max":778,"o":"m 357 872 l 56 872 l 56 986 l 778 986 l 778 872 l 476 872 l 476 0 l 357 0 l 357 872 z "},"Ŧ":{"ha":833,"x_min":56,"x_max":778,"o":"m 357 432 l 139 432 l 139 535 l 357 535 l 357 872 l 56 872 l 56 986 l 778 986 l 778 872 l 476 872 l 476 535 l 694 535 l 694 432 l 476 432 l 476 0 l 357 0 l 357 432 z "},"Ť":{"ha":833,"x_min":56,"x_max":778,"o":"m 357 872 l 56 872 l 56 986 l 778 986 l 778 872 l 476 872 l 476 0 l 357 0 l 357 872 m 319 1264 l 417 1139 l 514 1264 l 611 1264 l 482 1079 l 351 1079 l 222 1264 l 319 1264 z "},"Ţ":{"ha":833,"x_min":56,"x_max":778,"o":"m 357 872 l 56 872 l 56 986 l 778 986 l 778 872 l 476 872 l 476 0 l 456 0 l 408 -51 q 506 -86 468 -51 q 543 -176 543 -121 q 503 -268 543 -231 q 407 -306 464 -306 q 324 -284 360 -306 q 244 -212 288 -262 l 301 -160 q 349 -211 326 -192 q 401 -231 371 -231 q 449 -215 432 -231 q 467 -171 467 -199 q 447 -129 467 -144 q 394 -114 428 -114 q 361 -118 381 -114 l 322 -67 l 383 0 l 357 0 l 357 872 z "},"Ț":{"ha":833,"x_min":56,"x_max":778,"o":"m 357 872 l 56 872 l 56 986 l 778 986 l 778 872 l 476 872 l 476 0 l 357 0 l 357 872 m 408 -172 l 361 -172 l 361 -47 l 500 -47 l 500 -167 l 411 -297 l 333 -297 l 408 -172 z "},"U":{"ha":833,"x_min":83,"x_max":750,"o":"m 417 -22 q 172 76 261 -22 q 83 344 83 175 l 83 986 l 203 986 l 203 344 q 258 159 203 224 q 417 94 313 94 q 576 159 521 94 q 631 344 631 224 l 631 986 l 750 986 l 750 344 q 661 76 750 175 q 417 -22 572 -22 z "},"Ú":{"ha":833,"x_min":83,"x_max":750,"o":"m 417 -22 q 172 76 261 -22 q 83 344 83 175 l 83 986 l 203 986 l 203 344 q 258 159 203 224 q 417 94 313 94 q 576 159 521 94 q 631 344 631 224 l 631 986 l 750 986 l 750 344 q 661 76 750 175 q 417 -22 572 -22 m 456 1264 l 586 1264 l 461 1086 l 364 1086 l 456 1264 z "},"Ŭ":{"ha":833,"x_min":83,"x_max":750,"o":"m 417 -22 q 172 76 261 -22 q 83 344 83 175 l 83 986 l 203 986 l 203 344 q 258 159 203 224 q 417 94 313 94 q 576 159 521 94 q 631 344 631 224 l 631 986 l 750 986 l 750 344 q 661 76 750 175 q 417 -22 572 -22 m 417 1088 q 279 1135 332 1088 q 222 1265 226 1183 l 303 1265 q 417 1174 315 1174 q 531 1265 518 1174 l 611 1265 q 554 1135 607 1183 q 417 1088 501 1088 z "},"Û":{"ha":833,"x_min":83,"x_max":750,"o":"m 417 -22 q 172 76 261 -22 q 83 344 83 175 l 83 986 l 203 986 l 203 344 q 258 159 203 224 q 417 94 313 94 q 576 159 521 94 q 631 344 631 224 l 631 986 l 750 986 l 750 344 q 661 76 750 175 q 417 -22 572 -22 m 350 1265 l 481 1265 l 610 1081 l 513 1081 l 415 1206 l 318 1081 l 221 1081 l 350 1265 z "},"Ü":{"ha":833,"x_min":83,"x_max":750,"o":"m 417 -22 q 172 76 261 -22 q 83 344 83 175 l 83 986 l 203 986 l 203 344 q 258 159 203 224 q 417 94 313 94 q 576 159 521 94 q 631 344 631 224 l 631 986 l 750 986 l 750 344 q 661 76 750 175 q 417 -22 572 -22 z "},"Ù":{"ha":833,"x_min":83,"x_max":750,"o":"m 417 -22 q 172 76 261 -22 q 83 344 83 175 l 83 986 l 203 986 l 203 344 q 258 159 203 224 q 417 94 313 94 q 576 159 521 94 q 631 344 631 224 l 631 986 l 750 986 l 750 344 q 661 76 750 175 q 417 -22 572 -22 m 250 1264 l 381 1264 l 472 1086 l 375 1086 l 250 1264 z "},"Ű":{"ha":833,"x_min":83,"x_max":750,"o":"m 417 -22 q 172 76 261 -22 q 83 344 83 175 l 83 986 l 203 986 l 203 344 q 258 159 203 224 q 417 94 313 94 q 576 159 521 94 q 631 344 631 224 l 631 986 l 750 986 l 750 344 q 661 76 750 175 q 417 -22 572 -22 z "},"Ū":{"ha":833,"x_min":83,"x_max":750,"o":"m 417 -22 q 172 76 261 -22 q 83 344 83 175 l 83 986 l 203 986 l 203 344 q 258 159 203 224 q 417 94 313 94 q 576 159 521 94 q 631 344 631 224 l 631 986 l 750 986 l 750 344 q 661 76 750 175 q 417 -22 572 -22 m 229 1218 l 601 1218 l 601 1118 l 229 1118 l 229 1218 z "},"Ų":{"ha":833,"x_min":83,"x_max":750,"o":"m 417 -22 q 172 76 261 -22 q 83 344 83 175 l 83 986 l 203 986 l 203 344 q 258 159 203 224 q 417 94 313 94 q 576 159 521 94 q 631 344 631 224 l 631 986 l 750 986 l 750 344 q 697 125 750 214 q 547 0 644 36 l 499 -62 q 465 -117 474 -96 q 456 -156 456 -137 q 497 -197 456 -197 q 532 -192 514 -197 q 561 -178 550 -187 l 594 -256 q 546 -282 578 -272 q 475 -292 514 -292 q 383 -262 417 -292 q 350 -181 350 -232 q 407 -42 350 -112 l 422 -22 l 417 -22 z "},"Ů":{"ha":833,"x_min":83,"x_max":750,"o":"m 417 -22 q 172 76 261 -22 q 83 344 83 175 l 83 986 l 203 986 l 203 344 q 258 159 203 224 q 417 94 313 94 q 576 159 521 94 q 631 344 631 224 l 631 986 l 750 986 l 750 344 q 661 76 750 175 q 417 -22 572 -22 m 417 1064 q 326 1101 363 1064 q 289 1192 289 1138 q 326 1283 289 1246 q 417 1319 363 1319 q 508 1283 471 1319 q 544 1192 544 1246 q 508 1101 544 1138 q 417 1064 471 1064 m 417 1133 q 458 1150 442 1133 q 475 1192 475 1167 q 458 1233 475 1217 q 417 1250 442 1250 q 375 1233 392 1250 q 358 1192 358 1217 q 375 1150 358 1167 q 417 1133 392 1133 z "},"Ũ":{"ha":833,"x_min":83,"x_max":750,"o":"m 417 -22 q 172 76 261 -22 q 83 344 83 175 l 83 986 l 203 986 l 203 344 q 258 159 203 224 q 417 94 313 94 q 576 159 521 94 q 631 344 631 224 l 631 986 l 750 986 l 750 344 q 661 76 750 175 q 417 -22 572 -22 m 500 1097 q 403 1139 454 1097 q 363 1168 376 1161 q 331 1175 350 1175 q 269 1088 274 1175 l 197 1088 q 235 1208 199 1165 q 331 1250 272 1250 q 385 1239 361 1250 q 436 1206 410 1228 q 474 1180 458 1188 q 506 1172 489 1172 q 546 1192 532 1172 q 564 1264 560 1213 l 636 1264 q 596 1141 632 1185 q 500 1097 560 1097 z "},"V":{"ha":833,"x_min":33,"x_max":800,"o":"m 33 986 l 161 986 l 417 133 l 672 986 l 800 986 l 494 0 l 339 0 l 33 986 z "},"W":{"ha":833,"x_min":56,"x_max":778,"o":"m 56 986 l 181 986 l 253 132 l 356 875 l 478 875 l 581 132 l 653 986 l 778 986 l 683 0 l 503 0 l 417 635 l 331 0 l 150 0 l 56 986 z "},"Ẃ":{"ha":833,"x_min":56,"x_max":778,"o":"m 56 986 l 181 986 l 253 132 l 356 875 l 478 875 l 581 132 l 653 986 l 778 986 l 683 0 l 503 0 l 417 635 l 331 0 l 150 0 l 56 986 m 456 1264 l 586 1264 l 461 1086 l 364 1086 l 456 1264 z "},"Ŵ":{"ha":833,"x_min":56,"x_max":778,"o":"m 56 986 l 181 986 l 253 132 l 356 875 l 478 875 l 581 132 l 653 986 l 778 986 l 683 0 l 503 0 l 417 635 l 331 0 l 150 0 l 56 986 m 350 1265 l 481 1265 l 610 1081 l 513 1081 l 415 1206 l 318 1081 l 221 1081 l 350 1265 z "},"Ẅ":{"ha":833,"x_min":56,"x_max":778,"o":"m 56 986 l 181 986 l 253 132 l 356 875 l 478 875 l 581 132 l 653 986 l 778 986 l 683 0 l 503 0 l 417 635 l 331 0 l 150 0 l 56 986 z "},"Ẁ":{"ha":833,"x_min":56,"x_max":778,"o":"m 56 986 l 181 986 l 253 132 l 356 875 l 478 875 l 581 132 l 653 986 l 778 986 l 683 0 l 503 0 l 417 635 l 331 0 l 150 0 l 56 986 m 250 1264 l 381 1264 l 472 1086 l 375 1086 l 250 1264 z "},"X":{"ha":833,"x_min":69,"x_max":764,"o":"m 342 496 l 75 986 l 214 986 l 418 588 l 622 986 l 758 986 l 492 494 l 764 0 l 625 0 l 415 404 l 206 0 l 69 0 l 342 496 z "},"Y":{"ha":833,"x_min":61,"x_max":772,"o":"m 358 403 l 61 986 l 197 986 l 417 542 l 636 986 l 772 986 l 478 403 l 478 0 l 358 0 l 358 403 z "},"Ý":{"ha":833,"x_min":61,"x_max":772,"o":"m 358 403 l 61 986 l 197 986 l 417 542 l 636 986 l 772 986 l 478 403 l 478 0 l 358 0 l 358 403 m 456 1264 l 586 1264 l 461 1086 l 364 1086 l 456 1264 z "},"Ŷ":{"ha":833,"x_min":61,"x_max":772,"o":"m 358 403 l 61 986 l 197 986 l 417 542 l 636 986 l 772 986 l 478 403 l 478 0 l 358 0 l 358 403 m 350 1265 l 481 1265 l 610 1081 l 513 1081 l 415 1206 l 318 1081 l 221 1081 l 350 1265 z "},"Ÿ":{"ha":833,"x_min":61,"x_max":772,"o":"m 358 403 l 61 986 l 197 986 l 417 542 l 636 986 l 772 986 l 478 403 l 478 0 l 358 0 l 358 403 z "},"Ỳ":{"ha":833,"x_min":61,"x_max":772,"o":"m 358 403 l 61 986 l 197 986 l 417 542 l 636 986 l 772 986 l 478 403 l 478 0 l 358 0 l 358 403 m 250 1264 l 381 1264 l 472 1086 l 375 1086 l 250 1264 z "},"Ỹ":{"ha":833,"x_min":61,"x_max":772,"o":"m 358 403 l 61 986 l 197 986 l 417 542 l 636 986 l 772 986 l 478 403 l 478 0 l 358 0 l 358 403 m 500 1097 q 403 1139 454 1097 q 363 1168 376 1161 q 331 1175 350 1175 q 269 1088 274 1175 l 197 1088 q 235 1208 199 1165 q 331 1250 272 1250 q 385 1239 361 1250 q 436 1206 410 1228 q 474 1180 458 1188 q 506 1172 489 1172 q 546 1192 532 1172 q 564 1264 560 1213 l 636 1264 q 596 1141 632 1185 q 500 1097 560 1097 z "},"Z":{"ha":833,"x_min":69,"x_max":764,"o":"m 69 119 l 619 872 l 94 872 l 94 986 l 753 986 l 753 867 l 203 114 l 764 114 l 764 0 l 69 0 l 69 119 z "},"Ź":{"ha":833,"x_min":69,"x_max":764,"o":"m 69 119 l 619 872 l 94 872 l 94 986 l 753 986 l 753 867 l 203 114 l 764 114 l 764 0 l 69 0 l 69 119 m 456 1264 l 586 1264 l 461 1086 l 364 1086 l 456 1264 z "},"Ž":{"ha":833,"x_min":69,"x_max":764,"o":"m 69 119 l 619 872 l 94 872 l 94 986 l 753 986 l 753 867 l 203 114 l 764 114 l 764 0 l 69 0 l 69 119 m 319 1264 l 417 1139 l 514 1264 l 611 1264 l 482 1079 l 351 1079 l 222 1264 l 319 1264 z "},"Ż":{"ha":833,"x_min":69,"x_max":764,"o":"m 69 119 l 619 872 l 94 872 l 94 986 l 753 986 l 753 867 l 203 114 l 764 114 l 764 0 l 69 0 l 69 119 m 354 1238 l 476 1238 l 476 1101 l 354 1101 l 354 1238 z "},"Ꞌ":{"ha":833,"x_min":356,"x_max":478,"o":"m 356 797 l 356 986 l 478 986 l 478 797 l 458 525 l 375 525 l 356 797 z "},"a":{"ha":833,"x_min":75,"x_max":764,"o":"m 319 -17 q 144 39 214 -17 q 75 183 75 94 q 131 329 75 276 q 308 406 186 382 l 556 456 q 514 595 556 549 q 392 642 472 642 q 273 608 317 642 q 213 510 229 575 l 89 519 q 190 690 110 626 q 392 753 269 753 q 599 673 525 753 q 672 453 672 593 l 672 147 q 683 113 672 122 q 717 103 693 103 l 764 103 l 764 0 q 703 -3 742 -3 q 606 23 642 -3 q 560 104 571 49 q 464 17 529 50 q 319 -17 399 -17 m 331 86 q 498 142 440 86 q 556 292 556 197 l 556 356 l 331 311 q 227 269 257 297 q 197 194 197 242 q 233 115 197 143 q 331 86 268 86 z "},"á":{"ha":833,"x_min":75,"x_max":764,"o":"m 319 -17 q 144 39 214 -17 q 75 183 75 94 q 131 329 75 276 q 308 406 186 382 l 556 456 q 514 595 556 549 q 392 642 472 642 q 273 608 317 642 q 213 510 229 575 l 89 519 q 190 690 110 626 q 392 753 269 753 q 599 673 525 753 q 672 453 672 593 l 672 147 q 683 113 672 122 q 717 103 693 103 l 764 103 l 764 0 q 703 -3 742 -3 q 606 23 642 -3 q 560 104 571 49 q 464 17 529 50 q 319 -17 399 -17 m 331 86 q 498 142 440 86 q 556 292 556 197 l 556 356 l 331 311 q 227 269 257 297 q 197 194 197 242 q 233 115 197 143 q 331 86 268 86 m 433 1014 l 564 1014 l 439 836 l 342 836 l 433 1014 z "},"ă":{"ha":833,"x_min":75,"x_max":764,"o":"m 319 -17 q 144 39 214 -17 q 75 183 75 94 q 131 329 75 276 q 308 406 186 382 l 556 456 q 514 595 556 549 q 392 642 472 642 q 273 608 317 642 q 213 510 229 575 l 89 519 q 190 690 110 626 q 392 753 269 753 q 599 673 525 753 q 672 453 672 593 l 672 147 q 683 113 672 122 q 717 103 693 103 l 764 103 l 764 0 q 703 -3 742 -3 q 606 23 642 -3 q 560 104 571 49 q 464 17 529 50 q 319 -17 399 -17 m 331 86 q 498 142 440 86 q 556 292 556 197 l 556 356 l 331 311 q 227 269 257 297 q 197 194 197 242 q 233 115 197 143 q 331 86 268 86 m 394 838 q 257 885 310 838 q 200 1015 204 933 l 281 1015 q 394 924 293 924 q 508 1015 496 924 l 589 1015 q 532 885 585 933 q 394 838 479 838 z "},"ǎ":{"ha":833,"x_min":75,"x_max":764,"o":"m 319 -17 q 144 39 214 -17 q 75 183 75 94 q 131 329 75 276 q 308 406 186 382 l 556 456 q 514 595 556 549 q 392 642 472 642 q 273 608 317 642 q 213 510 229 575 l 89 519 q 190 690 110 626 q 392 753 269 753 q 599 673 525 753 q 672 453 672 593 l 672 147 q 683 113 672 122 q 717 103 693 103 l 764 103 l 764 0 q 703 -3 742 -3 q 606 23 642 -3 q 560 104 571 49 q 464 17 529 50 q 319 -17 399 -17 m 331 86 q 498 142 440 86 q 556 292 556 197 l 556 356 l 331 311 q 227 269 257 297 q 197 194 197 242 q 233 115 197 143 q 331 86 268 86 m 297 1014 l 394 889 l 492 1014 l 589 1014 l 460 829 l 329 829 l 200 1014 l 297 1014 z "},"â":{"ha":833,"x_min":75,"x_max":764,"o":"m 319 -17 q 144 39 214 -17 q 75 183 75 94 q 131 329 75 276 q 308 406 186 382 l 556 456 q 514 595 556 549 q 392 642 472 642 q 273 608 317 642 q 213 510 229 575 l 89 519 q 190 690 110 626 q 392 753 269 753 q 599 673 525 753 q 672 453 672 593 l 672 147 q 683 113 672 122 q 717 103 693 103 l 764 103 l 764 0 q 703 -3 742 -3 q 606 23 642 -3 q 560 104 571 49 q 464 17 529 50 q 319 -17 399 -17 m 331 86 q 498 142 440 86 q 556 292 556 197 l 556 356 l 331 311 q 227 269 257 297 q 197 194 197 242 q 233 115 197 143 q 331 86 268 86 m 328 1015 l 458 1015 l 588 831 l 490 831 l 393 956 l 296 831 l 199 831 l 328 1015 z "},"ä":{"ha":833,"x_min":75,"x_max":764,"o":"m 319 -17 q 144 39 214 -17 q 75 183 75 94 q 131 329 75 276 q 308 406 186 382 l 556 456 q 514 595 556 549 q 392 642 472 642 q 273 608 317 642 q 213 510 229 575 l 89 519 q 190 690 110 626 q 392 753 269 753 q 599 673 525 753 q 672 453 672 593 l 672 147 q 683 113 672 122 q 717 103 693 103 l 764 103 l 764 0 q 703 -3 742 -3 q 606 23 642 -3 q 560 104 571 49 q 464 17 529 50 q 319 -17 399 -17 m 331 86 q 498 142 440 86 q 556 292 556 197 l 556 356 l 331 311 q 227 269 257 297 q 197 194 197 242 q 233 115 197 143 q 331 86 268 86 z "},"à":{"ha":833,"x_min":75,"x_max":764,"o":"m 319 -17 q 144 39 214 -17 q 75 183 75 94 q 131 329 75 276 q 308 406 186 382 l 556 456 q 514 595 556 549 q 392 642 472 642 q 273 608 317 642 q 213 510 229 575 l 89 519 q 190 690 110 626 q 392 753 269 753 q 599 673 525 753 q 672 453 672 593 l 672 147 q 683 113 672 122 q 717 103 693 103 l 764 103 l 764 0 q 703 -3 742 -3 q 606 23 642 -3 q 560 104 571 49 q 464 17 529 50 q 319 -17 399 -17 m 331 86 q 498 142 440 86 q 556 292 556 197 l 556 356 l 331 311 q 227 269 257 297 q 197 194 197 242 q 233 115 197 143 q 331 86 268 86 m 228 1014 l 358 1014 l 450 836 l 353 836 l 228 1014 z "},"ā":{"ha":833,"x_min":75,"x_max":764,"o":"m 319 -17 q 144 39 214 -17 q 75 183 75 94 q 131 329 75 276 q 308 406 186 382 l 556 456 q 514 595 556 549 q 392 642 472 642 q 273 608 317 642 q 213 510 229 575 l 89 519 q 190 690 110 626 q 392 753 269 753 q 599 673 525 753 q 672 453 672 593 l 672 147 q 683 113 672 122 q 717 103 693 103 l 764 103 l 764 0 q 703 -3 742 -3 q 606 23 642 -3 q 560 104 571 49 q 464 17 529 50 q 319 -17 399 -17 m 331 86 q 498 142 440 86 q 556 292 556 197 l 556 356 l 331 311 q 227 269 257 297 q 197 194 197 242 q 233 115 197 143 q 331 86 268 86 m 207 968 l 579 968 l 579 868 l 207 868 l 207 968 z "},"ą":{"ha":833,"x_min":75,"x_max":811,"o":"m 319 -17 q 144 39 214 -17 q 75 183 75 94 q 131 329 75 276 q 308 406 186 382 l 556 456 q 514 595 556 549 q 392 642 472 642 q 273 608 317 642 q 213 510 229 575 l 89 519 q 190 690 110 626 q 392 753 269 753 q 599 673 525 753 q 672 453 672 593 l 672 147 q 683 113 672 122 q 717 103 693 103 l 764 103 l 764 0 l 715 -62 q 681 -117 690 -96 q 672 -156 672 -137 q 714 -197 672 -197 q 749 -192 731 -197 q 778 -178 767 -187 l 811 -256 q 763 -282 794 -272 q 692 -292 731 -292 q 600 -262 633 -292 q 567 -181 567 -232 q 624 -42 567 -112 l 658 1 q 560 104 578 15 q 464 17 529 50 q 319 -17 399 -17 m 331 86 q 498 142 440 86 q 556 292 556 197 l 556 356 l 331 311 q 227 269 257 297 q 197 194 197 242 q 233 115 197 143 q 331 86 268 86 z "},"å":{"ha":833,"x_min":75,"x_max":764,"o":"m 319 -17 q 144 39 214 -17 q 75 183 75 94 q 131 329 75 276 q 308 406 186 382 l 556 456 q 514 595 556 549 q 392 642 472 642 q 273 608 317 642 q 213 510 229 575 l 89 519 q 190 690 110 626 q 392 753 269 753 q 599 673 525 753 q 672 453 672 593 l 672 147 q 683 113 672 122 q 717 103 693 103 l 764 103 l 764 0 q 703 -3 742 -3 q 606 23 642 -3 q 560 104 571 49 q 464 17 529 50 q 319 -17 399 -17 m 331 86 q 498 142 440 86 q 556 292 556 197 l 556 356 l 331 311 q 227 269 257 297 q 197 194 197 242 q 233 115 197 143 q 331 86 268 86 m 394 814 q 303 851 340 814 q 267 942 267 888 q 303 1033 267 996 q 394 1069 340 1069 q 485 1033 449 1069 q 522 942 522 996 q 485 851 522 888 q 394 814 449 814 m 394 883 q 436 900 419 883 q 453 942 453 917 q 436 983 453 967 q 394 1000 419 1000 q 353 983 369 1000 q 336 942 336 967 q 353 900 336 917 q 394 883 369 883 z "},"ã":{"ha":833,"x_min":75,"x_max":764,"o":"m 319 -17 q 144 39 214 -17 q 75 183 75 94 q 131 329 75 276 q 308 406 186 382 l 556 456 q 514 595 556 549 q 392 642 472 642 q 273 608 317 642 q 213 510 229 575 l 89 519 q 190 690 110 626 q 392 753 269 753 q 599 673 525 753 q 672 453 672 593 l 672 147 q 683 113 672 122 q 717 103 693 103 l 764 103 l 764 0 q 703 -3 742 -3 q 606 23 642 -3 q 560 104 571 49 q 464 17 529 50 q 319 -17 399 -17 m 331 86 q 498 142 440 86 q 556 292 556 197 l 556 356 l 331 311 q 227 269 257 297 q 197 194 197 242 q 233 115 197 143 q 331 86 268 86 m 478 847 q 381 889 432 847 q 341 918 354 911 q 308 925 328 925 q 247 838 251 925 l 175 838 q 213 958 176 915 q 308 1000 250 1000 q 363 989 339 1000 q 414 956 388 978 q 451 930 436 938 q 483 922 467 922 q 524 942 510 922 q 542 1014 538 963 l 614 1014 q 574 891 610 935 q 478 847 538 847 z "},"æ":{"ha":833,"x_min":18,"x_max":817,"o":"m 590 -17 q 385 144 444 -17 q 319 27 367 68 q 204 -17 272 -14 q 72 43 125 -14 q 18 196 18 100 q 70 335 18 276 q 213 417 122 394 l 331 447 q 309 597 331 551 q 239 642 288 642 q 174 608 194 642 q 143 510 154 575 l 28 519 q 239 753 64 753 q 410 647 360 753 q 590 753 471 753 q 753 661 697 753 q 815 385 808 569 l 817 332 l 471 332 q 507 156 476 218 q 590 94 538 94 q 653 123 631 94 q 690 218 676 151 l 808 208 q 733 35 782 86 q 590 -17 683 -17 m 208 94 q 302 145 272 94 q 332 304 332 196 l 332 340 l 247 319 q 164 273 193 307 q 135 196 135 239 q 156 122 135 150 q 208 94 176 94 m 696 435 q 661 594 686 546 q 590 642 636 642 q 510 594 538 642 q 472 435 482 546 l 696 435 z "},"b":{"ha":833,"x_min":111,"x_max":764,"o":"m 449 -17 q 313 17 372 -17 q 221 111 253 50 l 217 0 l 111 0 l 111 986 l 228 986 l 228 633 q 317 718 257 683 q 449 753 376 753 q 616 706 544 753 q 726 572 688 658 q 764 368 764 485 q 726 165 764 251 q 616 31 688 78 q 449 -17 544 -17 m 442 94 q 588 168 535 94 q 642 368 642 242 q 589 569 642 496 q 444 642 536 642 q 285 569 343 642 q 228 368 228 496 q 285 168 228 242 q 442 94 342 94 z "},"c":{"ha":833,"x_min":97,"x_max":750,"o":"m 436 -17 q 258 31 335 -17 q 139 165 181 78 q 97 368 97 253 q 139 571 97 483 q 258 706 181 658 q 436 753 335 753 q 641 686 560 753 q 744 497 722 619 l 622 489 q 556 601 606 561 q 436 642 507 642 q 277 569 335 642 q 219 368 219 496 q 277 167 219 240 q 436 94 335 94 q 560 138 510 94 q 628 261 611 181 l 750 253 q 642 56 726 129 q 436 -17 558 -17 z "},"ć":{"ha":833,"x_min":97,"x_max":750,"o":"m 436 -17 q 258 31 335 -17 q 139 165 181 78 q 97 368 97 253 q 139 571 97 483 q 258 706 181 658 q 436 753 335 753 q 641 686 560 753 q 744 497 722 619 l 622 489 q 556 601 606 561 q 436 642 507 642 q 277 569 335 642 q 219 368 219 496 q 277 167 219 240 q 436 94 335 94 q 560 138 510 94 q 628 261 611 181 l 750 253 q 642 56 726 129 q 436 -17 558 -17 m 474 1014 l 604 1014 l 479 836 l 382 836 l 474 1014 z "},"č":{"ha":833,"x_min":97,"x_max":750,"o":"m 436 -17 q 258 31 335 -17 q 139 165 181 78 q 97 368 97 253 q 139 571 97 483 q 258 706 181 658 q 436 753 335 753 q 641 686 560 753 q 744 497 722 619 l 622 489 q 556 601 606 561 q 436 642 507 642 q 277 569 335 642 q 219 368 219 496 q 277 167 219 240 q 436 94 335 94 q 560 138 510 94 q 628 261 611 181 l 750 253 q 642 56 726 129 q 436 -17 558 -17 m 338 1014 l 435 889 l 532 1014 l 629 1014 l 500 829 l 369 829 l 240 1014 l 338 1014 z "},"ç":{"ha":833,"x_min":97,"x_max":750,"o":"m 425 -306 q 342 -284 378 -306 q 263 -212 306 -262 l 319 -160 q 367 -211 344 -192 q 419 -231 389 -231 q 467 -215 450 -231 q 485 -171 485 -199 q 465 -129 485 -144 q 413 -114 446 -114 q 379 -118 399 -114 l 340 -67 l 389 -14 q 176 105 254 3 q 97 368 97 207 q 139 571 97 483 q 258 706 181 658 q 436 753 335 753 q 641 686 560 753 q 744 497 722 619 l 622 489 q 556 601 606 561 q 436 642 507 642 q 277 569 335 642 q 219 368 219 496 q 277 167 219 240 q 436 94 335 94 q 560 138 510 94 q 628 261 611 181 l 750 253 q 650 63 728 135 q 458 -15 572 -10 l 426 -51 q 524 -86 486 -51 q 561 -176 561 -121 q 522 -268 561 -231 q 425 -306 482 -306 z "},"ĉ":{"ha":833,"x_min":97,"x_max":750,"o":"m 436 -17 q 258 31 335 -17 q 139 165 181 78 q 97 368 97 253 q 139 571 97 483 q 258 706 181 658 q 436 753 335 753 q 641 686 560 753 q 744 497 722 619 l 622 489 q 556 601 606 561 q 436 642 507 642 q 277 569 335 642 q 219 368 219 496 q 277 167 219 240 q 436 94 335 94 q 560 138 510 94 q 628 261 611 181 l 750 253 q 642 56 726 129 q 436 -17 558 -17 m 368 1015 l 499 1015 l 628 831 l 531 831 l 433 956 l 336 831 l 239 831 l 368 1015 z "},"ċ":{"ha":833,"x_min":97,"x_max":750,"o":"m 436 -17 q 258 31 335 -17 q 139 165 181 78 q 97 368 97 253 q 139 571 97 483 q 258 706 181 658 q 436 753 335 753 q 641 686 560 753 q 744 497 722 619 l 622 489 q 556 601 606 561 q 436 642 507 642 q 277 569 335 642 q 219 368 219 496 q 277 167 219 240 q 436 94 335 94 q 560 138 510 94 q 628 261 611 181 l 750 253 q 642 56 726 129 q 436 -17 558 -17 m 372 988 l 494 988 l 494 851 l 372 851 l 372 988 z "},"d":{"ha":833,"x_min":69,"x_max":722,"o":"m 385 -17 q 217 31 289 -17 q 108 165 146 78 q 69 368 69 251 q 108 572 69 485 q 217 706 146 658 q 385 753 289 753 q 517 718 457 753 q 606 633 576 683 l 606 986 l 722 986 l 722 0 l 617 0 l 613 111 q 521 17 581 50 q 385 -17 461 -17 m 392 94 q 549 168 492 94 q 606 368 606 242 q 548 569 606 496 q 389 642 490 642 q 244 569 297 642 q 192 368 192 496 q 245 168 192 242 q 392 94 299 94 z "},"ď":{"ha":833,"x_min":69,"x_max":907,"o":"m 385 -17 q 217 31 289 -17 q 108 165 146 78 q 69 368 69 251 q 108 572 69 485 q 217 706 146 658 q 385 753 289 753 q 517 718 457 753 q 606 633 576 683 l 606 986 l 722 986 l 722 0 l 617 0 l 613 111 q 521 17 581 50 q 385 -17 461 -17 m 392 94 q 549 168 492 94 q 606 368 606 242 q 548 569 606 496 q 389 642 490 642 q 244 569 297 642 q 192 368 192 496 q 245 168 192 242 q 392 94 299 94 m 792 986 l 907 986 l 835 650 l 750 650 l 792 986 z "},"đ":{"ha":833,"x_min":69,"x_max":807,"o":"m 456 914 l 606 914 l 606 986 l 722 986 l 722 914 l 807 914 l 807 811 l 722 811 l 722 0 l 617 0 l 613 111 q 521 17 581 50 q 385 -17 461 -17 q 217 31 289 -17 q 108 165 146 78 q 69 368 69 251 q 108 572 69 485 q 217 706 146 658 q 385 753 289 753 q 517 718 457 753 q 606 633 576 683 l 606 811 l 456 811 l 456 914 m 392 94 q 549 168 492 94 q 606 368 606 242 q 548 569 606 496 q 389 642 490 642 q 244 569 297 642 q 192 368 192 496 q 245 168 192 242 q 392 94 299 94 z "},"ð":{"ha":833,"x_min":81,"x_max":776,"o":"m 318 819 l 424 857 q 249 900 350 892 l 276 1003 q 550 901 440 986 l 743 969 l 776 881 l 625 828 q 754 354 754 664 q 713 155 754 239 q 595 27 671 71 q 418 -17 519 -17 q 240 26 317 -17 q 122 150 164 69 q 81 340 81 231 q 122 531 81 450 q 240 654 164 611 q 418 697 317 697 q 608 631 521 697 q 518 789 578 728 l 351 731 l 318 819 m 418 94 q 576 160 521 94 q 632 354 632 225 q 575 524 632 463 q 418 586 518 586 q 259 522 315 586 q 203 340 203 458 q 259 158 203 222 q 418 94 315 94 z "},"e":{"ha":833,"x_min":92,"x_max":750,"o":"m 429 -17 q 250 31 326 -17 q 133 165 174 78 q 92 368 92 251 q 133 571 92 483 q 249 706 174 658 q 424 753 324 753 q 594 708 519 753 q 709 575 668 663 q 750 367 750 488 l 750 332 l 214 332 q 276 155 219 215 q 429 94 332 94 q 547 127 500 94 q 613 218 593 160 l 738 208 q 626 45 708 107 q 429 -17 543 -17 m 622 435 q 561 590 614 538 q 424 642 508 642 q 283 589 338 642 q 214 435 228 536 l 622 435 z "},"é":{"ha":833,"x_min":92,"x_max":750,"o":"m 429 -17 q 250 31 326 -17 q 133 165 174 78 q 92 368 92 251 q 133 571 92 483 q 249 706 174 658 q 424 753 324 753 q 594 708 519 753 q 709 575 668 663 q 750 367 750 488 l 750 332 l 214 332 q 276 155 219 215 q 429 94 332 94 q 547 127 500 94 q 613 218 593 160 l 738 208 q 626 45 708 107 q 429 -17 543 -17 m 622 435 q 561 590 614 538 q 424 642 508 642 q 283 589 338 642 q 214 435 228 536 l 622 435 m 464 1011 l 594 1011 l 469 833 l 372 833 l 464 1011 z "},"ě":{"ha":833,"x_min":92,"x_max":750,"o":"m 429 -17 q 250 31 326 -17 q 133 165 174 78 q 92 368 92 251 q 133 571 92 483 q 249 706 174 658 q 424 753 324 753 q 594 708 519 753 q 709 575 668 663 q 750 367 750 488 l 750 332 l 214 332 q 276 155 219 215 q 429 94 332 94 q 547 127 500 94 q 613 218 593 160 l 738 208 q 626 45 708 107 q 429 -17 543 -17 m 622 435 q 561 590 614 538 q 424 642 508 642 q 283 589 338 642 q 214 435 228 536 l 622 435 m 328 1011 l 425 886 l 522 1011 l 619 1011 l 490 826 l 360 826 l 231 1011 l 328 1011 z "},"ê":{"ha":833,"x_min":92,"x_max":750,"o":"m 429 -17 q 250 31 326 -17 q 133 165 174 78 q 92 368 92 251 q 133 571 92 483 q 249 706 174 658 q 424 753 324 753 q 594 708 519 753 q 709 575 668 663 q 750 367 750 488 l 750 332 l 214 332 q 276 155 219 215 q 429 94 332 94 q 547 127 500 94 q 613 218 593 160 l 738 208 q 626 45 708 107 q 429 -17 543 -17 m 622 435 q 561 590 614 538 q 424 642 508 642 q 283 589 338 642 q 214 435 228 536 l 622 435 m 358 1013 l 489 1013 l 618 828 l 521 828 l 424 953 l 326 828 l 229 828 l 358 1013 z "},"ë":{"ha":833,"x_min":92,"x_max":750,"o":"m 429 -17 q 250 31 326 -17 q 133 165 174 78 q 92 368 92 251 q 133 571 92 483 q 249 706 174 658 q 424 753 324 753 q 594 708 519 753 q 709 575 668 663 q 750 367 750 488 l 750 332 l 214 332 q 276 155 219 215 q 429 94 332 94 q 547 127 500 94 q 613 218 593 160 l 738 208 q 626 45 708 107 q 429 -17 543 -17 m 622 435 q 561 590 614 538 q 424 642 508 642 q 283 589 338 642 q 214 435 228 536 l 622 435 z "},"ė":{"ha":833,"x_min":92,"x_max":750,"o":"m 429 -17 q 250 31 326 -17 q 133 165 174 78 q 92 368 92 251 q 133 571 92 483 q 249 706 174 658 q 424 753 324 753 q 594 708 519 753 q 709 575 668 663 q 750 367 750 488 l 750 332 l 214 332 q 276 155 219 215 q 429 94 332 94 q 547 127 500 94 q 613 218 593 160 l 738 208 q 626 45 708 107 q 429 -17 543 -17 m 622 435 q 561 590 614 538 q 424 642 508 642 q 283 589 338 642 q 214 435 228 536 l 622 435 m 363 985 l 485 985 l 485 849 l 363 849 l 363 985 z "},"è":{"ha":833,"x_min":92,"x_max":750,"o":"m 429 -17 q 250 31 326 -17 q 133 165 174 78 q 92 368 92 251 q 133 571 92 483 q 249 706 174 658 q 424 753 324 753 q 594 708 519 753 q 709 575 668 663 q 750 367 750 488 l 750 332 l 214 332 q 276 155 219 215 q 429 94 332 94 q 547 127 500 94 q 613 218 593 160 l 738 208 q 626 45 708 107 q 429 -17 543 -17 m 622 435 q 561 590 614 538 q 424 642 508 642 q 283 589 338 642 q 214 435 228 536 l 622 435 m 258 1011 l 389 1011 l 481 833 l 383 833 l 258 1011 z "},"ē":{"ha":833,"x_min":92,"x_max":750,"o":"m 429 -17 q 250 31 326 -17 q 133 165 174 78 q 92 368 92 251 q 133 571 92 483 q 249 706 174 658 q 424 753 324 753 q 594 708 519 753 q 709 575 668 663 q 750 367 750 488 l 750 332 l 214 332 q 276 155 219 215 q 429 94 332 94 q 547 127 500 94 q 613 218 593 160 l 738 208 q 626 45 708 107 q 429 -17 543 -17 m 622 435 q 561 590 614 538 q 424 642 508 642 q 283 589 338 642 q 214 435 228 536 l 622 435 m 238 965 l 610 965 l 610 865 l 238 865 l 238 965 z "},"ę":{"ha":833,"x_min":92,"x_max":750,"o":"m 429 -17 q 250 31 326 -17 q 133 165 174 78 q 92 368 92 251 q 133 571 92 483 q 249 706 174 658 q 424 753 324 753 q 594 708 519 753 q 709 575 668 663 q 750 367 750 488 l 750 332 l 214 332 q 276 155 219 215 q 429 94 332 94 q 547 127 500 94 q 613 218 593 160 l 738 208 q 608 33 703 94 l 560 -29 q 526 -83 535 -62 q 517 -122 517 -104 q 558 -164 517 -164 q 593 -159 575 -164 q 622 -144 611 -154 l 656 -222 q 607 -249 639 -239 q 536 -258 575 -258 q 444 -228 478 -258 q 411 -147 411 -199 q 463 -15 411 -83 l 429 -17 m 622 435 q 561 590 614 538 q 424 642 508 642 q 283 589 338 642 q 214 435 228 536 l 622 435 z "},"ẽ":{"ha":833,"x_min":92,"x_max":750,"o":"m 429 -17 q 250 31 326 -17 q 133 165 174 78 q 92 368 92 251 q 133 571 92 483 q 249 706 174 658 q 424 753 324 753 q 594 708 519 753 q 709 575 668 663 q 750 367 750 488 l 750 332 l 214 332 q 276 155 219 215 q 429 94 332 94 q 547 127 500 94 q 613 218 593 160 l 738 208 q 626 45 708 107 q 429 -17 543 -17 m 622 435 q 561 590 614 538 q 424 642 508 642 q 283 589 338 642 q 214 435 228 536 l 622 435 m 508 844 q 411 886 463 844 q 372 915 385 908 q 339 922 358 922 q 278 835 282 922 l 206 835 q 244 955 207 913 q 339 997 281 997 q 394 986 369 997 q 444 953 418 975 q 482 927 467 935 q 514 919 497 919 q 554 940 540 919 q 572 1011 568 960 l 644 1011 q 604 888 640 932 q 508 844 568 844 z "},"ə":{"ha":833,"x_min":83,"x_max":742,"o":"m 404 753 q 583 706 507 753 q 701 572 660 658 q 742 368 742 485 q 701 165 742 253 q 585 31 660 78 q 410 -17 510 -17 q 240 28 314 -17 q 124 161 165 74 q 83 369 83 249 l 83 404 l 619 404 q 558 581 614 521 q 404 642 501 642 q 287 609 333 642 q 221 518 240 576 l 96 528 q 208 691 125 629 q 404 753 290 753 m 211 301 q 272 147 219 199 q 410 94 325 94 q 551 147 496 94 q 619 301 606 200 l 211 301 z "},"f":{"ha":833,"x_min":97,"x_max":736,"o":"m 322 783 q 374 934 322 882 q 528 986 425 986 l 736 986 l 736 883 l 528 883 q 462 857 485 883 q 439 783 439 831 l 439 736 l 722 736 l 722 633 l 439 633 l 439 0 l 322 0 l 322 633 l 97 633 l 97 736 l 322 736 l 322 783 z "},"g":{"ha":833,"x_min":83,"x_max":736,"o":"m 413 -225 q 211 -167 294 -225 q 104 -11 128 -108 l 226 -3 q 288 -86 244 -58 q 413 -114 331 -114 q 567 -74 514 -114 q 619 47 619 -33 l 619 167 q 534 74 592 108 q 404 39 476 39 q 238 84 311 39 q 124 210 165 129 q 83 396 83 292 q 124 581 83 500 q 235 708 164 663 q 399 753 307 753 q 538 717 476 753 q 625 619 600 681 l 625 736 l 736 736 l 736 50 q 650 -152 736 -79 q 413 -225 564 -225 m 410 150 q 563 218 507 150 q 619 403 619 286 q 563 577 619 513 q 410 642 506 642 q 260 576 314 642 q 206 396 206 510 q 260 216 206 282 q 410 150 315 150 z "},"ğ":{"ha":833,"x_min":83,"x_max":736,"o":"m 413 -225 q 211 -167 294 -225 q 104 -11 128 -108 l 226 -3 q 288 -86 244 -58 q 413 -114 331 -114 q 567 -74 514 -114 q 619 47 619 -33 l 619 167 q 534 74 592 108 q 404 39 476 39 q 238 84 311 39 q 124 210 165 129 q 83 396 83 292 q 124 581 83 500 q 235 708 164 663 q 399 753 307 753 q 538 717 476 753 q 625 619 600 681 l 625 736 l 736 736 l 736 50 q 650 -152 736 -79 q 413 -225 564 -225 m 410 150 q 563 218 507 150 q 619 403 619 286 q 563 577 619 513 q 410 642 506 642 q 260 576 314 642 q 206 396 206 510 q 260 216 206 282 q 410 150 315 150 m 414 838 q 276 885 329 838 q 219 1015 224 933 l 300 1015 q 414 924 313 924 q 528 1015 515 924 l 608 1015 q 551 885 604 933 q 414 838 499 838 z "},"ǧ":{"ha":833,"x_min":83,"x_max":736,"o":"m 413 -225 q 211 -167 294 -225 q 104 -11 128 -108 l 226 -3 q 288 -86 244 -58 q 413 -114 331 -114 q 567 -74 514 -114 q 619 47 619 -33 l 619 167 q 534 74 592 108 q 404 39 476 39 q 238 84 311 39 q 124 210 165 129 q 83 396 83 292 q 124 581 83 500 q 235 708 164 663 q 399 753 307 753 q 538 717 476 753 q 625 619 600 681 l 625 736 l 736 736 l 736 50 q 650 -152 736 -79 q 413 -225 564 -225 m 410 150 q 563 218 507 150 q 619 403 619 286 q 563 577 619 513 q 410 642 506 642 q 260 576 314 642 q 206 396 206 510 q 260 216 206 282 q 410 150 315 150 m 317 1014 l 414 889 l 511 1014 l 608 1014 l 479 829 l 349 829 l 219 1014 l 317 1014 z "},"ĝ":{"ha":833,"x_min":83,"x_max":736,"o":"m 413 -225 q 211 -167 294 -225 q 104 -11 128 -108 l 226 -3 q 288 -86 244 -58 q 413 -114 331 -114 q 567 -74 514 -114 q 619 47 619 -33 l 619 167 q 534 74 592 108 q 404 39 476 39 q 238 84 311 39 q 124 210 165 129 q 83 396 83 292 q 124 581 83 500 q 235 708 164 663 q 399 753 307 753 q 538 717 476 753 q 625 619 600 681 l 625 736 l 736 736 l 736 50 q 650 -152 736 -79 q 413 -225 564 -225 m 410 150 q 563 218 507 150 q 619 403 619 286 q 563 577 619 513 q 410 642 506 642 q 260 576 314 642 q 206 396 206 510 q 260 216 206 282 q 410 150 315 150 m 347 1015 l 478 1015 l 607 831 l 510 831 l 413 956 l 315 831 l 218 831 l 347 1015 z "},"ģ":{"ha":833,"x_min":83,"x_max":736,"o":"m 413 -225 q 211 -167 294 -225 q 104 -11 128 -108 l 226 -3 q 288 -86 244 -58 q 413 -114 331 -114 q 567 -74 514 -114 q 619 47 619 -33 l 619 167 q 534 74 592 108 q 404 39 476 39 q 238 84 311 39 q 124 210 165 129 q 83 396 83 292 q 124 581 83 500 q 235 708 164 663 q 399 753 307 753 q 538 717 476 753 q 625 619 600 681 l 625 736 l 736 736 l 736 50 q 650 -152 736 -79 q 413 -225 564 -225 m 410 150 q 563 218 507 150 q 619 403 619 286 q 563 577 619 513 q 410 642 506 642 q 260 576 314 642 q 206 396 206 510 q 260 216 206 282 q 410 150 315 150 m 440 949 l 488 949 l 488 824 l 349 824 l 349 943 l 438 1074 l 515 1074 l 440 949 z "},"ġ":{"ha":833,"x_min":83,"x_max":736,"o":"m 413 -225 q 211 -167 294 -225 q 104 -11 128 -108 l 226 -3 q 288 -86 244 -58 q 413 -114 331 -114 q 567 -74 514 -114 q 619 47 619 -33 l 619 167 q 534 74 592 108 q 404 39 476 39 q 238 84 311 39 q 124 210 165 129 q 83 396 83 292 q 124 581 83 500 q 235 708 164 663 q 399 753 307 753 q 538 717 476 753 q 625 619 600 681 l 625 736 l 736 736 l 736 50 q 650 -152 736 -79 q 413 -225 564 -225 m 410 150 q 563 218 507 150 q 619 403 619 286 q 563 577 619 513 q 410 642 506 642 q 260 576 314 642 q 206 396 206 510 q 260 216 206 282 q 410 150 315 150 m 351 988 l 474 988 l 474 851 l 351 851 l 351 988 z "},"ḡ":{"ha":833,"x_min":83,"x_max":736,"o":"m 413 -225 q 211 -167 294 -225 q 104 -11 128 -108 l 226 -3 q 288 -86 244 -58 q 413 -114 331 -114 q 567 -74 514 -114 q 619 47 619 -33 l 619 167 q 534 74 592 108 q 404 39 476 39 q 238 84 311 39 q 124 210 165 129 q 83 396 83 292 q 124 581 83 500 q 235 708 164 663 q 399 753 307 753 q 538 717 476 753 q 625 619 600 681 l 625 736 l 736 736 l 736 50 q 650 -152 736 -79 q 413 -225 564 -225 m 410 150 q 563 218 507 150 q 619 403 619 286 q 563 577 619 513 q 410 642 506 642 q 260 576 314 642 q 206 396 206 510 q 260 216 206 282 q 410 150 315 150 m 226 968 l 599 968 l 599 868 l 226 868 l 226 968 z "},"ǥ":{"ha":833,"x_min":83,"x_max":808,"o":"m 410 443 l 617 443 q 551 589 607 536 q 410 642 496 642 q 260 576 314 642 q 206 396 206 510 q 260 216 206 282 q 410 150 315 150 q 546 201 492 150 q 615 340 600 251 l 410 340 l 410 443 m 413 -225 q 211 -167 294 -225 q 104 -11 128 -108 l 226 -3 q 288 -86 244 -58 q 413 -114 331 -114 q 567 -74 514 -114 q 619 47 619 -33 l 619 167 q 534 74 592 108 q 404 39 476 39 q 238 84 311 39 q 124 210 165 129 q 83 396 83 292 q 124 581 83 500 q 235 708 164 663 q 399 753 307 753 q 538 717 476 753 q 625 619 600 681 l 625 736 l 736 736 l 736 443 l 808 443 l 808 340 l 736 340 l 736 50 q 650 -152 736 -79 q 413 -225 564 -225 z "},"h":{"ha":833,"x_min":139,"x_max":722,"o":"m 139 986 l 256 986 l 256 621 q 341 719 283 686 q 476 753 399 753 q 658 676 593 753 q 722 474 722 600 l 722 0 l 606 0 l 606 440 q 451 650 606 650 q 308 594 361 650 q 256 439 256 539 l 256 0 l 139 0 l 139 986 z "},"ħ":{"ha":833,"x_min":35,"x_max":722,"o":"m 35 914 l 139 914 l 139 986 l 256 986 l 256 914 l 388 914 l 388 811 l 256 811 l 256 621 q 341 719 283 686 q 476 753 399 753 q 658 676 593 753 q 722 474 722 600 l 722 0 l 606 0 l 606 440 q 451 650 606 650 q 308 594 361 650 q 256 439 256 539 l 256 0 l 139 0 l 139 811 l 35 811 l 35 914 z "},"ĥ":{"ha":833,"x_min":3,"x_max":722,"o":"m 139 986 l 256 986 l 256 621 q 341 719 283 686 q 476 753 399 753 q 658 676 593 753 q 722 474 722 600 l 722 0 l 606 0 l 606 440 q 451 650 606 650 q 308 594 361 650 q 256 439 256 539 l 256 0 l 139 0 l 139 986 m 132 1265 l 263 1265 l 392 1081 l 294 1081 l 197 1206 l 100 1081 l 3 1081 l 132 1265 z "},"i":{"ha":833,"x_min":111,"x_max":778,"o":"m 111 103 l 407 103 l 407 633 l 125 633 l 125 736 l 524 736 l 524 103 l 778 103 l 778 0 l 111 0 l 111 103 m 396 988 l 518 988 l 518 851 l 396 851 l 396 988 z "},"ı":{"ha":833,"x_min":111,"x_max":778,"o":"m 111 103 l 407 103 l 407 633 l 125 633 l 125 736 l 524 736 l 524 103 l 778 103 l 778 0 l 111 0 l 111 103 z "},"í":{"ha":833,"x_min":111,"x_max":778,"o":"m 111 103 l 407 103 l 407 633 l 125 633 l 125 736 l 524 736 l 524 103 l 778 103 l 778 0 l 111 0 l 111 103 m 497 1014 l 628 1014 l 503 836 l 406 836 l 497 1014 z "},"î":{"ha":833,"x_min":111,"x_max":778,"o":"m 111 103 l 407 103 l 407 633 l 125 633 l 125 736 l 524 736 l 524 103 l 778 103 l 778 0 l 111 0 l 111 103 m 392 1015 l 522 1015 l 651 831 l 554 831 l 457 956 l 360 831 l 263 831 l 392 1015 z "},"ï":{"ha":833,"x_min":111,"x_max":778,"o":"m 111 103 l 407 103 l 407 633 l 125 633 l 125 736 l 524 736 l 524 103 l 778 103 l 778 0 l 111 0 l 111 103 z "},"ì":{"ha":833,"x_min":111,"x_max":778,"o":"m 111 103 l 407 103 l 407 633 l 125 633 l 125 736 l 524 736 l 524 103 l 778 103 l 778 0 l 111 0 l 111 103 m 292 1014 l 422 1014 l 514 836 l 417 836 l 292 1014 z "},"ī":{"ha":833,"x_min":111,"x_max":778,"o":"m 111 103 l 407 103 l 407 633 l 125 633 l 125 736 l 524 736 l 524 103 l 778 103 l 778 0 l 111 0 l 111 103 m 271 968 l 643 968 l 643 868 l 271 868 l 271 968 z "},"į":{"ha":833,"x_min":111,"x_max":825,"o":"m 111 103 l 407 103 l 407 633 l 125 633 l 125 736 l 524 736 l 524 103 l 778 103 l 778 0 l 729 -62 q 695 -117 704 -96 q 686 -156 686 -137 q 728 -197 686 -197 q 763 -192 744 -197 q 792 -178 781 -187 l 825 -256 q 776 -282 808 -272 q 706 -292 744 -292 q 614 -262 647 -292 q 581 -181 581 -232 q 638 -42 581 -112 l 671 0 l 111 0 l 111 103 m 396 988 l 518 988 l 518 851 l 396 851 l 396 988 z "},"ĩ":{"ha":833,"x_min":111,"x_max":778,"o":"m 111 103 l 407 103 l 407 633 l 125 633 l 125 736 l 524 736 l 524 103 l 778 103 l 778 0 l 111 0 l 111 103 m 542 847 q 444 889 496 847 q 405 918 418 911 q 372 925 392 925 q 311 838 315 925 l 239 838 q 277 958 240 915 q 372 1000 314 1000 q 427 989 403 1000 q 478 956 451 978 q 515 930 500 938 q 547 922 531 922 q 588 942 574 922 q 606 1014 601 963 l 678 1014 q 638 891 674 935 q 542 847 601 847 z "},"j":{"ha":833,"x_min":153,"x_max":611,"o":"m 153 -106 l 413 -106 q 472 -76 450 -106 q 494 0 494 -46 l 494 633 l 167 633 l 167 736 l 611 736 l 611 0 q 563 -152 611 -96 q 425 -208 515 -208 l 153 -208 l 153 -106 m 489 988 l 611 988 l 611 851 l 489 851 l 489 988 z "},"ȷ":{"ha":833,"x_min":153,"x_max":611,"o":"m 153 -106 l 413 -106 q 472 -76 450 -106 q 494 0 494 -46 l 494 633 l 167 633 l 167 736 l 611 736 l 611 0 q 563 -152 611 -96 q 425 -208 515 -208 l 153 -208 l 153 -106 z "},"ĵ":{"ha":833,"x_min":153,"x_max":744,"o":"m 153 -106 l 413 -106 q 472 -76 450 -106 q 494 0 494 -46 l 494 633 l 167 633 l 167 736 l 611 736 l 611 0 q 563 -152 611 -96 q 425 -208 515 -208 l 153 -208 l 153 -106 m 485 1015 l 615 1015 l 744 831 l 647 831 l 550 956 l 453 831 l 356 831 l 485 1015 z "},"k":{"ha":833,"x_min":125,"x_max":769,"o":"m 125 986 l 242 986 l 242 340 l 600 736 l 756 736 l 465 424 l 769 0 l 628 0 l 386 344 l 242 192 l 242 0 l 125 0 l 125 986 z "},"ǩ":{"ha":833,"x_min":-10,"x_max":769,"o":"m 125 986 l 242 986 l 242 340 l 600 736 l 756 736 l 465 424 l 769 0 l 628 0 l 386 344 l 242 192 l 242 0 l 125 0 l 125 986 m 88 1264 l 185 1139 l 282 1264 l 379 1264 l 250 1079 l 119 1079 l -10 1264 l 88 1264 z "},"ķ":{"ha":833,"x_min":125,"x_max":769,"o":"m 125 986 l 242 986 l 242 340 l 600 736 l 756 736 l 465 424 l 769 0 l 628 0 l 386 344 l 242 192 l 242 0 l 125 0 l 125 986 m 421 -172 l 374 -172 l 374 -47 l 513 -47 l 513 -167 l 424 -297 l 346 -297 l 421 -172 z "},"l":{"ha":833,"x_min":111,"x_max":778,"o":"m 407 789 q 382 858 407 833 q 313 883 357 883 l 139 883 l 139 986 l 318 986 q 472 934 419 986 q 524 781 524 882 l 524 103 l 778 103 l 778 0 l 111 0 l 111 103 l 407 103 l 407 789 z "},"ĺ":{"ha":833,"x_min":111,"x_max":778,"o":"m 407 789 q 382 858 407 833 q 313 883 357 883 l 139 883 l 139 986 l 318 986 q 472 934 419 986 q 524 781 524 882 l 524 103 l 778 103 l 778 0 l 111 0 l 111 103 l 407 103 l 407 789 m 456 1264 l 586 1264 l 461 1086 l 364 1086 l 456 1264 z "},"ľ":{"ha":833,"x_min":111,"x_max":778,"o":"m 407 789 q 382 858 407 833 q 313 883 357 883 l 139 883 l 139 986 l 318 986 q 472 934 419 986 q 524 781 524 882 l 524 103 l 778 103 l 778 0 l 111 0 l 111 103 l 407 103 l 407 789 m 625 986 l 740 986 l 668 650 l 583 650 l 625 986 z "},"ļ":{"ha":833,"x_min":111,"x_max":778,"o":"m 407 789 q 382 858 407 833 q 313 883 357 883 l 139 883 l 139 986 l 318 986 q 472 934 419 986 q 524 781 524 882 l 524 103 l 778 103 l 778 0 l 111 0 l 111 103 l 407 103 l 407 789 m 408 -172 l 361 -172 l 361 -47 l 500 -47 l 500 -167 l 411 -297 l 333 -297 l 408 -172 z "},"ł":{"ha":833,"x_min":139,"x_max":806,"o":"m 315 515 l 435 571 l 435 789 q 410 858 435 833 q 340 883 385 883 l 167 883 l 167 986 l 346 986 q 499 934 447 986 q 551 781 551 882 l 551 624 l 629 660 l 672 567 l 551 511 l 551 103 l 806 103 l 806 0 l 139 0 l 139 103 l 435 103 l 435 457 l 358 422 l 315 515 z "},"m":{"ha":833,"x_min":56,"x_max":778,"o":"m 56 736 l 163 736 l 165 628 q 222 720 185 688 q 311 753 260 753 q 450 608 425 753 q 510 715 468 676 q 608 753 551 753 q 738 690 697 753 q 778 486 778 628 l 778 0 l 661 0 l 661 472 q 640 609 661 568 q 575 650 619 650 q 502 605 529 650 q 475 469 475 560 l 475 0 l 358 0 l 358 472 q 338 608 358 567 q 272 650 318 650 q 199 605 226 650 q 172 469 172 560 l 172 0 l 56 0 l 56 736 z "},"n":{"ha":833,"x_min":133,"x_max":717,"o":"m 133 736 l 240 736 l 243 604 q 331 715 271 678 q 469 753 390 753 q 653 675 590 753 q 717 474 717 597 l 717 0 l 600 0 l 600 440 q 563 597 600 544 q 444 650 526 650 q 303 595 357 650 q 250 440 250 540 l 250 0 l 133 0 l 133 736 z "},"ń":{"ha":833,"x_min":133,"x_max":717,"o":"m 133 736 l 240 736 l 243 604 q 331 715 271 678 q 469 753 390 753 q 653 675 590 753 q 717 474 717 597 l 717 0 l 600 0 l 600 440 q 563 597 600 544 q 444 650 526 650 q 303 595 357 650 q 250 440 250 540 l 250 0 l 133 0 l 133 736 m 464 1014 l 594 1014 l 469 836 l 372 836 l 464 1014 z "},"ň":{"ha":833,"x_min":133,"x_max":717,"o":"m 133 736 l 240 736 l 243 604 q 331 715 271 678 q 469 753 390 753 q 653 675 590 753 q 717 474 717 597 l 717 0 l 600 0 l 600 440 q 563 597 600 544 q 444 650 526 650 q 303 595 357 650 q 250 440 250 540 l 250 0 l 133 0 l 133 736 m 328 1014 l 425 889 l 522 1014 l 619 1014 l 490 829 l 360 829 l 231 1014 l 328 1014 z "},"ņ":{"ha":833,"x_min":133,"x_max":717,"o":"m 133 736 l 240 736 l 243 604 q 331 715 271 678 q 469 753 390 753 q 653 675 590 753 q 717 474 717 597 l 717 0 l 600 0 l 600 440 q 563 597 600 544 q 444 650 526 650 q 303 595 357 650 q 250 440 250 540 l 250 0 l 133 0 l 133 736 m 417 -172 l 369 -172 l 369 -47 l 508 -47 l 508 -167 l 419 -297 l 342 -297 l 417 -172 z "},"ñ":{"ha":833,"x_min":133,"x_max":717,"o":"m 133 736 l 240 736 l 243 604 q 331 715 271 678 q 469 753 390 753 q 653 675 590 753 q 717 474 717 597 l 717 0 l 600 0 l 600 440 q 563 597 600 544 q 444 650 526 650 q 303 595 357 650 q 250 440 250 540 l 250 0 l 133 0 l 133 736 m 508 847 q 411 889 463 847 q 372 918 385 911 q 339 925 358 925 q 278 838 282 925 l 206 838 q 244 958 207 915 q 339 1000 281 1000 q 394 989 369 1000 q 444 956 418 978 q 482 930 467 938 q 514 922 497 922 q 554 942 540 922 q 572 1014 568 963 l 644 1014 q 604 891 640 935 q 508 847 568 847 z "},"ŋ":{"ha":833,"x_min":133,"x_max":717,"o":"m 396 -106 l 511 -106 q 576 -80 553 -106 q 600 -11 600 -54 l 600 440 q 563 597 600 544 q 444 650 526 650 q 303 595 357 650 q 250 440 250 540 l 250 0 l 133 0 l 133 736 l 240 736 l 243 604 q 331 715 271 678 q 469 753 390 753 q 653 675 590 753 q 717 474 717 597 l 717 -10 q 660 -155 717 -101 q 508 -208 604 -208 l 396 -208 l 396 -106 z "},"o":{"ha":833,"x_min":81,"x_max":753,"o":"m 417 -17 q 240 31 315 -17 q 122 165 164 78 q 81 368 81 251 q 122 572 81 485 q 240 706 164 658 q 417 753 315 753 q 593 706 517 753 q 711 572 669 658 q 753 368 753 485 q 711 165 753 251 q 593 31 669 78 q 417 -17 517 -17 m 417 94 q 574 167 518 94 q 631 368 631 240 q 574 569 631 496 q 417 642 518 642 q 259 569 315 642 q 203 368 203 497 q 259 167 203 239 q 417 94 315 94 z "},"ó":{"ha":833,"x_min":81,"x_max":753,"o":"m 417 -17 q 240 31 315 -17 q 122 165 164 78 q 81 368 81 251 q 122 572 81 485 q 240 706 164 658 q 417 753 315 753 q 593 706 517 753 q 711 572 669 658 q 753 368 753 485 q 711 165 753 251 q 593 31 669 78 q 417 -17 517 -17 m 417 94 q 574 167 518 94 q 631 368 631 240 q 574 569 631 496 q 417 642 518 642 q 259 569 315 642 q 203 368 203 497 q 259 167 203 239 q 417 94 315 94 m 456 1014 l 586 1014 l 461 836 l 364 836 l 456 1014 z "},"ô":{"ha":833,"x_min":81,"x_max":753,"o":"m 417 -17 q 240 31 315 -17 q 122 165 164 78 q 81 368 81 251 q 122 572 81 485 q 240 706 164 658 q 417 753 315 753 q 593 706 517 753 q 711 572 669 658 q 753 368 753 485 q 711 165 753 251 q 593 31 669 78 q 417 -17 517 -17 m 417 94 q 574 167 518 94 q 631 368 631 240 q 574 569 631 496 q 417 642 518 642 q 259 569 315 642 q 203 368 203 497 q 259 167 203 239 q 417 94 315 94 m 350 1015 l 481 1015 l 610 831 l 513 831 l 415 956 l 318 831 l 221 831 l 350 1015 z "},"ö":{"ha":833,"x_min":81,"x_max":753,"o":"m 417 -17 q 240 31 315 -17 q 122 165 164 78 q 81 368 81 251 q 122 572 81 485 q 240 706 164 658 q 417 753 315 753 q 593 706 517 753 q 711 572 669 658 q 753 368 753 485 q 711 165 753 251 q 593 31 669 78 q 417 -17 517 -17 m 417 94 q 574 167 518 94 q 631 368 631 240 q 574 569 631 496 q 417 642 518 642 q 259 569 315 642 q 203 368 203 497 q 259 167 203 239 q 417 94 315 94 z "},"ò":{"ha":833,"x_min":81,"x_max":753,"o":"m 417 -17 q 240 31 315 -17 q 122 165 164 78 q 81 368 81 251 q 122 572 81 485 q 240 706 164 658 q 417 753 315 753 q 593 706 517 753 q 711 572 669 658 q 753 368 753 485 q 711 165 753 251 q 593 31 669 78 q 417 -17 517 -17 m 417 94 q 574 167 518 94 q 631 368 631 240 q 574 569 631 496 q 417 642 518 642 q 259 569 315 642 q 203 368 203 497 q 259 167 203 239 q 417 94 315 94 m 250 1014 l 381 1014 l 472 836 l 375 836 l 250 1014 z "},"ő":{"ha":833,"x_min":81,"x_max":753,"o":"m 417 -17 q 240 31 315 -17 q 122 165 164 78 q 81 368 81 251 q 122 572 81 485 q 240 706 164 658 q 417 753 315 753 q 593 706 517 753 q 711 572 669 658 q 753 368 753 485 q 711 165 753 251 q 593 31 669 78 q 417 -17 517 -17 m 417 94 q 574 167 518 94 q 631 368 631 240 q 574 569 631 496 q 417 642 518 642 q 259 569 315 642 q 203 368 203 497 q 259 167 203 239 q 417 94 315 94 z "},"ō":{"ha":833,"x_min":81,"x_max":753,"o":"m 417 -17 q 240 31 315 -17 q 122 165 164 78 q 81 368 81 251 q 122 572 81 485 q 240 706 164 658 q 417 753 315 753 q 593 706 517 753 q 711 572 669 658 q 753 368 753 485 q 711 165 753 251 q 593 31 669 78 q 417 -17 517 -17 m 417 94 q 574 167 518 94 q 631 368 631 240 q 574 569 631 496 q 417 642 518 642 q 259 569 315 642 q 203 368 203 497 q 259 167 203 239 q 417 94 315 94 m 229 968 l 601 968 l 601 868 l 229 868 l 229 968 z "},"ø":{"ha":833,"x_min":49,"x_max":783,"o":"m 151 113 q 81 368 81 214 q 122 572 81 485 q 240 706 164 658 q 417 753 315 753 q 614 692 529 753 l 663 753 l 783 753 l 681 624 q 753 368 753 521 q 711 165 753 251 q 593 31 669 78 q 417 -17 517 -17 q 218 44 303 -17 l 169 -17 l 49 -17 l 151 113 m 417 94 q 574 167 518 94 q 631 368 631 240 q 601 524 631 461 l 290 135 q 417 94 342 94 m 203 368 q 232 213 203 275 l 542 601 q 417 642 490 642 q 259 569 315 642 q 203 368 203 497 z "},"õ":{"ha":833,"x_min":81,"x_max":753,"o":"m 417 -17 q 240 31 315 -17 q 122 165 164 78 q 81 368 81 251 q 122 572 81 485 q 240 706 164 658 q 417 753 315 753 q 593 706 517 753 q 711 572 669 658 q 753 368 753 485 q 711 165 753 251 q 593 31 669 78 q 417 -17 517 -17 m 417 94 q 574 167 518 94 q 631 368 631 240 q 574 569 631 496 q 417 642 518 642 q 259 569 315 642 q 203 368 203 497 q 259 167 203 239 q 417 94 315 94 m 500 847 q 403 889 454 847 q 363 918 376 911 q 331 925 350 925 q 269 838 274 925 l 197 838 q 235 958 199 915 q 331 1000 272 1000 q 385 989 361 1000 q 436 956 410 978 q 474 930 458 938 q 506 922 489 922 q 546 942 532 922 q 564 1014 560 963 l 636 1014 q 596 891 632 935 q 500 847 560 847 z "},"œ":{"ha":833,"x_min":14,"x_max":821,"o":"m 594 -17 q 414 90 475 -17 q 243 -17 351 -17 q 122 31 174 -17 q 42 165 69 78 q 14 368 14 251 q 42 572 14 485 q 122 706 69 658 q 243 753 174 753 q 414 646 351 753 q 594 753 475 753 q 757 661 701 753 q 819 385 813 569 l 821 332 l 475 332 q 511 156 481 218 q 594 94 542 94 q 658 123 635 94 q 694 218 681 151 l 813 208 q 737 35 786 86 q 594 -17 688 -17 m 243 94 q 326 168 296 94 q 357 368 357 242 q 326 568 357 494 q 243 642 296 642 q 161 567 192 642 q 131 368 131 493 q 161 169 131 243 q 243 94 192 94 m 700 435 q 588 642 686 642 q 476 435 493 642 l 700 435 z "},"p":{"ha":833,"x_min":111,"x_max":764,"o":"m 111 736 l 219 736 l 221 618 q 313 718 254 683 q 447 753 372 753 q 624 701 553 753 q 729 561 694 649 q 764 368 764 474 q 729 175 764 263 q 624 35 694 88 q 447 -17 553 -17 q 316 14 375 -17 q 228 97 257 44 l 228 -208 l 111 -208 l 111 736 m 436 94 q 587 167 532 94 q 642 368 642 239 q 587 569 642 497 q 436 642 532 642 q 283 572 339 642 q 228 368 228 501 q 283 165 228 235 q 436 94 338 94 z "},"þ":{"ha":833,"x_min":111,"x_max":764,"o":"m 111 986 l 219 986 l 222 618 q 313 718 254 683 q 447 753 372 753 q 624 701 553 753 q 729 561 694 649 q 764 368 764 474 q 729 175 764 263 q 624 35 694 88 q 447 -17 553 -17 q 316 14 375 -17 q 228 97 257 44 l 228 -208 l 111 -208 l 111 986 m 436 94 q 587 167 532 94 q 642 368 642 239 q 587 569 642 497 q 436 642 532 642 q 283 572 339 642 q 228 368 228 501 q 283 165 228 235 q 436 94 338 94 z "},"q":{"ha":833,"x_min":69,"x_max":722,"o":"m 606 -208 l 606 97 q 517 14 576 44 q 386 -17 458 -17 q 210 35 281 -17 q 104 175 139 88 q 69 368 69 263 q 104 561 69 474 q 210 701 139 649 q 386 753 281 753 q 520 718 461 753 q 613 618 579 683 l 614 736 l 722 736 l 722 -208 l 606 -208 m 397 94 q 551 165 496 94 q 606 368 606 235 q 550 572 606 501 q 397 642 494 642 q 247 569 301 642 q 192 368 192 497 q 247 167 192 239 q 397 94 301 94 z "},"r":{"ha":833,"x_min":125,"x_max":750,"o":"m 125 103 l 317 103 l 317 633 l 125 633 l 125 736 l 414 736 l 422 594 q 599 736 460 736 l 750 736 l 750 631 l 600 631 q 476 583 519 631 q 433 444 433 535 l 433 103 l 667 103 l 667 0 l 125 0 l 125 103 z "},"ŕ":{"ha":833,"x_min":125,"x_max":750,"o":"m 125 103 l 317 103 l 317 633 l 125 633 l 125 736 l 414 736 l 422 594 q 599 736 460 736 l 750 736 l 750 631 l 600 631 q 476 583 519 631 q 433 444 433 535 l 433 103 l 667 103 l 667 0 l 125 0 l 125 103 m 510 1014 l 640 1014 l 515 836 l 418 836 l 510 1014 z "},"ř":{"ha":833,"x_min":125,"x_max":750,"o":"m 125 103 l 317 103 l 317 633 l 125 633 l 125 736 l 414 736 l 422 594 q 599 736 460 736 l 750 736 l 750 631 l 600 631 q 476 583 519 631 q 433 444 433 535 l 433 103 l 667 103 l 667 0 l 125 0 l 125 103 m 374 1014 l 471 889 l 568 1014 l 665 1014 l 536 829 l 406 829 l 276 1014 l 374 1014 z "},"ŗ":{"ha":833,"x_min":125,"x_max":750,"o":"m 125 103 l 317 103 l 317 633 l 125 633 l 125 736 l 414 736 l 422 594 q 599 736 460 736 l 750 736 l 750 631 l 600 631 q 476 583 519 631 q 433 444 433 535 l 433 103 l 667 103 l 667 0 l 125 0 l 125 103 m 365 -172 l 318 -172 l 318 -47 l 457 -47 l 457 -167 l 368 -297 l 290 -297 l 365 -172 z "},"s":{"ha":833,"x_min":111,"x_max":722,"o":"m 431 -17 q 267 16 338 -17 q 157 105 197 49 q 111 232 117 161 l 233 240 q 294 133 244 171 q 431 94 344 94 q 558 119 514 94 q 603 192 603 143 q 588 245 603 225 q 531 280 572 265 q 408 308 490 294 q 242 356 303 326 q 156 426 182 385 q 131 531 131 468 q 204 691 131 629 q 410 753 278 753 q 615 686 539 753 q 708 517 690 619 l 586 508 q 527 606 574 569 q 408 642 481 642 q 290 611 331 642 q 250 531 250 581 q 268 472 250 493 q 324 437 286 450 q 433 411 363 424 q 610 365 547 393 q 697 297 672 338 q 722 192 722 256 q 640 40 722 96 q 431 -17 558 -17 z "},"ś":{"ha":833,"x_min":111,"x_max":722,"o":"m 431 -17 q 267 16 338 -17 q 157 105 197 49 q 111 232 117 161 l 233 240 q 294 133 244 171 q 431 94 344 94 q 558 119 514 94 q 603 192 603 143 q 588 245 603 225 q 531 280 572 265 q 408 308 490 294 q 242 356 303 326 q 156 426 182 385 q 131 531 131 468 q 204 691 131 629 q 410 753 278 753 q 615 686 539 753 q 708 517 690 619 l 586 508 q 527 606 574 569 q 408 642 481 642 q 290 611 331 642 q 250 531 250 581 q 268 472 250 493 q 324 437 286 450 q 433 411 363 424 q 610 365 547 393 q 697 297 672 338 q 722 192 722 256 q 640 40 722 96 q 431 -17 558 -17 m 458 1014 l 589 1014 l 464 836 l 367 836 l 458 1014 z "},"š":{"ha":833,"x_min":111,"x_max":722,"o":"m 431 -17 q 267 16 338 -17 q 157 105 197 49 q 111 232 117 161 l 233 240 q 294 133 244 171 q 431 94 344 94 q 558 119 514 94 q 603 192 603 143 q 588 245 603 225 q 531 280 572 265 q 408 308 490 294 q 242 356 303 326 q 156 426 182 385 q 131 531 131 468 q 204 691 131 629 q 410 753 278 753 q 615 686 539 753 q 708 517 690 619 l 586 508 q 527 606 574 569 q 408 642 481 642 q 290 611 331 642 q 250 531 250 581 q 268 472 250 493 q 324 437 286 450 q 433 411 363 424 q 610 365 547 393 q 697 297 672 338 q 722 192 722 256 q 640 40 722 96 q 431 -17 558 -17 m 322 1014 l 419 889 l 517 1014 l 614 1014 l 485 829 l 354 829 l 225 1014 l 322 1014 z "},"ş":{"ha":833,"x_min":111,"x_max":722,"o":"m 410 -306 q 326 -284 363 -306 q 247 -212 290 -262 l 304 -160 q 351 -211 329 -192 q 404 -231 374 -231 q 452 -215 435 -231 q 469 -171 469 -199 q 450 -129 469 -144 q 397 -114 431 -114 q 364 -118 383 -114 l 325 -67 l 374 -14 q 188 68 258 0 q 111 232 118 136 l 233 240 q 294 133 244 171 q 431 94 344 94 q 558 119 514 94 q 603 192 603 143 q 588 245 603 225 q 531 280 572 265 q 408 308 490 294 q 242 356 303 326 q 156 426 182 385 q 131 531 131 468 q 204 691 131 629 q 410 753 278 753 q 615 686 539 753 q 708 517 690 619 l 586 508 q 527 606 574 569 q 408 642 481 642 q 290 611 331 642 q 250 531 250 581 q 268 472 250 493 q 324 437 286 450 q 433 411 363 424 q 610 365 547 393 q 697 297 672 338 q 722 192 722 256 q 644 42 722 97 q 443 -17 567 -14 l 411 -51 q 508 -86 471 -51 q 546 -176 546 -121 q 506 -268 546 -231 q 410 -306 467 -306 z "},"ŝ":{"ha":833,"x_min":111,"x_max":722,"o":"m 431 -17 q 267 16 338 -17 q 157 105 197 49 q 111 232 117 161 l 233 240 q 294 133 244 171 q 431 94 344 94 q 558 119 514 94 q 603 192 603 143 q 588 245 603 225 q 531 280 572 265 q 408 308 490 294 q 242 356 303 326 q 156 426 182 385 q 131 531 131 468 q 204 691 131 629 q 410 753 278 753 q 615 686 539 753 q 708 517 690 619 l 586 508 q 527 606 574 569 q 408 642 481 642 q 290 611 331 642 q 250 531 250 581 q 268 472 250 493 q 324 437 286 450 q 433 411 363 424 q 610 365 547 393 q 697 297 672 338 q 722 192 722 256 q 640 40 722 96 q 431 -17 558 -17 m 353 1015 l 483 1015 l 613 831 l 515 831 l 418 956 l 321 831 l 224 831 l 353 1015 z "},"ș":{"ha":833,"x_min":111,"x_max":722,"o":"m 431 -17 q 267 16 338 -17 q 157 105 197 49 q 111 232 117 161 l 233 240 q 294 133 244 171 q 431 94 344 94 q 558 119 514 94 q 603 192 603 143 q 588 245 603 225 q 531 280 572 265 q 408 308 490 294 q 242 356 303 326 q 156 426 182 385 q 131 531 131 468 q 204 691 131 629 q 410 753 278 753 q 615 686 539 753 q 708 517 690 619 l 586 508 q 527 606 574 569 q 408 642 481 642 q 290 611 331 642 q 250 531 250 581 q 268 472 250 493 q 324 437 286 450 q 433 411 363 424 q 610 365 547 393 q 697 297 672 338 q 722 192 722 256 q 640 40 722 96 q 431 -17 558 -17 m 411 -172 l 364 -172 l 364 -47 l 503 -47 l 503 -167 l 414 -297 l 336 -297 l 411 -172 z "},"ß":{"ha":833,"x_min":106,"x_max":756,"o":"m 106 697 q 144 861 106 792 q 250 967 182 931 q 403 1003 318 1003 q 555 972 489 1003 q 658 883 621 940 q 694 751 694 826 q 656 617 694 675 q 546 535 617 558 q 698 442 640 510 q 756 276 756 374 q 708 126 756 189 q 581 32 660 64 q 407 0 501 0 l 318 0 l 318 111 l 407 111 q 567 157 501 111 q 633 286 633 203 q 565 425 633 378 q 393 469 496 472 l 332 468 l 332 581 l 393 579 q 524 623 474 578 q 575 740 575 668 q 527 849 575 807 q 403 892 479 892 q 272 842 321 892 q 224 697 224 792 l 224 0 l 106 0 l 106 697 z "},"t":{"ha":833,"x_min":69,"x_max":722,"o":"m 525 0 q 365 50 418 0 q 313 203 313 100 l 313 633 l 69 633 l 69 736 l 313 736 l 313 931 l 429 931 l 429 736 l 722 736 l 722 633 l 429 633 l 429 203 q 453 127 429 151 q 525 103 476 103 l 722 103 l 722 0 l 525 0 z "},"ŧ":{"ha":833,"x_min":69,"x_max":722,"o":"m 92 443 l 313 443 l 313 633 l 69 633 l 69 736 l 313 736 l 313 931 l 429 931 l 429 736 l 722 736 l 722 633 l 429 633 l 429 443 l 710 443 l 710 340 l 429 340 l 429 203 q 453 127 429 151 q 525 103 476 103 l 722 103 l 722 0 l 525 0 q 365 50 418 0 q 313 203 313 100 l 313 340 l 92 340 l 92 443 z "},"ť":{"ha":833,"x_min":69,"x_max":722,"o":"m 525 0 q 365 50 418 0 q 313 203 313 100 l 313 633 l 69 633 l 69 736 l 313 736 l 313 931 l 429 931 l 429 736 l 722 736 l 722 633 l 429 633 l 429 203 q 453 127 429 151 q 525 103 476 103 l 722 103 l 722 0 l 525 0 m 550 1106 l 665 1106 l 593 769 l 508 769 l 550 1106 z "},"ţ":{"ha":833,"x_min":69,"x_max":722,"o":"m 478 -51 q 575 -86 538 -51 q 613 -176 613 -121 q 573 -268 613 -231 q 476 -306 533 -306 q 393 -284 429 -306 q 314 -212 357 -262 l 371 -160 q 418 -211 396 -192 q 471 -231 440 -231 q 519 -215 501 -231 q 536 -171 536 -199 q 517 -129 536 -144 q 464 -114 497 -114 q 431 -118 450 -114 l 392 -67 l 458 6 q 349 68 385 19 q 313 203 313 117 l 313 633 l 69 633 l 69 736 l 313 736 l 313 931 l 429 931 l 429 736 l 722 736 l 722 633 l 429 633 l 429 203 q 453 127 429 151 q 525 103 476 103 l 722 103 l 722 0 l 525 0 l 478 -51 z "},"ț":{"ha":833,"x_min":69,"x_max":722,"o":"m 525 0 q 365 50 418 0 q 313 203 313 100 l 313 633 l 69 633 l 69 736 l 313 736 l 313 931 l 429 931 l 429 736 l 722 736 l 722 633 l 429 633 l 429 203 q 453 127 429 151 q 525 103 476 103 l 722 103 l 722 0 l 525 0 m 478 -172 l 431 -172 l 431 -47 l 569 -47 l 569 -167 l 481 -297 l 403 -297 l 478 -172 z "},"u":{"ha":833,"x_min":125,"x_max":700,"o":"m 365 -17 q 190 58 256 -17 q 125 263 125 132 l 125 736 l 242 736 l 242 294 q 280 137 242 188 q 397 86 318 86 q 533 142 483 86 q 583 297 583 199 l 583 736 l 700 736 l 700 0 l 589 0 l 589 119 q 501 19 558 54 q 365 -17 444 -17 z "},"ú":{"ha":833,"x_min":125,"x_max":700,"o":"m 365 -17 q 190 58 256 -17 q 125 263 125 132 l 125 736 l 242 736 l 242 294 q 280 137 242 188 q 397 86 318 86 q 533 142 483 86 q 583 297 583 199 l 583 736 l 700 736 l 700 0 l 589 0 l 589 119 q 501 19 558 54 q 365 -17 444 -17 m 446 1014 l 576 1014 l 451 836 l 354 836 l 446 1014 z "},"ŭ":{"ha":833,"x_min":125,"x_max":700,"o":"m 365 -17 q 190 58 256 -17 q 125 263 125 132 l 125 736 l 242 736 l 242 294 q 280 137 242 188 q 397 86 318 86 q 533 142 483 86 q 583 297 583 199 l 583 736 l 700 736 l 700 0 l 589 0 l 589 119 q 501 19 558 54 q 365 -17 444 -17 m 407 838 q 269 885 322 838 q 213 1015 217 933 l 293 1015 q 407 924 306 924 q 521 1015 508 924 l 601 1015 q 544 885 597 933 q 407 838 492 838 z "},"û":{"ha":833,"x_min":125,"x_max":700,"o":"m 365 -17 q 190 58 256 -17 q 125 263 125 132 l 125 736 l 242 736 l 242 294 q 280 137 242 188 q 397 86 318 86 q 533 142 483 86 q 583 297 583 199 l 583 736 l 700 736 l 700 0 l 589 0 l 589 119 q 501 19 558 54 q 365 -17 444 -17 m 340 1015 l 471 1015 l 600 831 l 503 831 l 406 956 l 308 831 l 211 831 l 340 1015 z "},"ü":{"ha":833,"x_min":125,"x_max":700,"o":"m 365 -17 q 190 58 256 -17 q 125 263 125 132 l 125 736 l 242 736 l 242 294 q 280 137 242 188 q 397 86 318 86 q 533 142 483 86 q 583 297 583 199 l 583 736 l 700 736 l 700 0 l 589 0 l 589 119 q 501 19 558 54 q 365 -17 444 -17 z "},"ù":{"ha":833,"x_min":125,"x_max":700,"o":"m 365 -17 q 190 58 256 -17 q 125 263 125 132 l 125 736 l 242 736 l 242 294 q 280 137 242 188 q 397 86 318 86 q 533 142 483 86 q 583 297 583 199 l 583 736 l 700 736 l 700 0 l 589 0 l 589 119 q 501 19 558 54 q 365 -17 444 -17 m 240 1014 l 371 1014 l 463 836 l 365 836 l 240 1014 z "},"ű":{"ha":833,"x_min":125,"x_max":700,"o":"m 365 -17 q 190 58 256 -17 q 125 263 125 132 l 125 736 l 242 736 l 242 294 q 280 137 242 188 q 397 86 318 86 q 533 142 483 86 q 583 297 583 199 l 583 736 l 700 736 l 700 0 l 589 0 l 589 119 q 501 19 558 54 q 365 -17 444 -17 z "},"ū":{"ha":833,"x_min":125,"x_max":700,"o":"m 365 -17 q 190 58 256 -17 q 125 263 125 132 l 125 736 l 242 736 l 242 294 q 280 137 242 188 q 397 86 318 86 q 533 142 483 86 q 583 297 583 199 l 583 736 l 700 736 l 700 0 l 589 0 l 589 119 q 501 19 558 54 q 365 -17 444 -17 m 219 968 l 592 968 l 592 868 l 219 868 l 219 968 z "},"ų":{"ha":833,"x_min":125,"x_max":747,"o":"m 365 -17 q 190 58 256 -17 q 125 263 125 132 l 125 736 l 242 736 l 242 294 q 280 137 242 188 q 397 86 318 86 q 533 142 483 86 q 583 297 583 199 l 583 736 l 700 736 l 700 0 l 651 -62 q 617 -117 626 -96 q 608 -156 608 -137 q 650 -197 608 -197 q 685 -192 667 -197 q 714 -178 703 -187 l 747 -256 q 699 -282 731 -272 q 628 -292 667 -292 q 536 -262 569 -292 q 503 -181 503 -232 q 560 -42 503 -112 l 593 0 l 589 0 l 589 119 q 501 19 558 54 q 365 -17 444 -17 z "},"ů":{"ha":833,"x_min":125,"x_max":700,"o":"m 365 -17 q 190 58 256 -17 q 125 263 125 132 l 125 736 l 242 736 l 242 294 q 280 137 242 188 q 397 86 318 86 q 533 142 483 86 q 583 297 583 199 l 583 736 l 700 736 l 700 0 l 589 0 l 589 119 q 501 19 558 54 q 365 -17 444 -17 m 407 814 q 316 851 353 814 q 279 942 279 888 q 316 1033 279 996 q 407 1069 353 1069 q 498 1033 461 1069 q 535 942 535 996 q 498 851 535 888 q 407 814 461 814 m 407 883 q 449 900 432 883 q 465 942 465 917 q 449 983 465 967 q 407 1000 432 1000 q 365 983 382 1000 q 349 942 349 967 q 365 900 349 917 q 407 883 382 883 z "},"ũ":{"ha":833,"x_min":125,"x_max":700,"o":"m 365 -17 q 190 58 256 -17 q 125 263 125 132 l 125 736 l 242 736 l 242 294 q 280 137 242 188 q 397 86 318 86 q 533 142 483 86 q 583 297 583 199 l 583 736 l 700 736 l 700 0 l 589 0 l 589 119 q 501 19 558 54 q 365 -17 444 -17 m 490 847 q 393 889 444 847 q 353 918 367 911 q 321 925 340 925 q 260 838 264 925 l 188 838 q 226 958 189 915 q 321 1000 263 1000 q 376 989 351 1000 q 426 956 400 978 q 464 930 449 938 q 496 922 479 922 q 536 942 522 922 q 554 1014 550 963 l 626 1014 q 586 891 622 935 q 490 847 550 847 z "},"v":{"ha":833,"x_min":75,"x_max":758,"o":"m 75 736 l 203 736 l 417 119 l 631 736 l 758 736 l 490 0 l 343 0 l 75 736 z "},"w":{"ha":833,"x_min":28,"x_max":806,"o":"m 28 736 l 156 736 l 249 122 l 354 633 l 479 633 l 585 122 l 678 736 l 806 736 l 661 0 l 514 0 l 417 458 l 319 0 l 174 0 l 28 736 z "},"ẃ":{"ha":833,"x_min":28,"x_max":806,"o":"m 28 736 l 156 736 l 249 122 l 354 633 l 479 633 l 585 122 l 678 736 l 806 736 l 661 0 l 514 0 l 417 458 l 319 0 l 174 0 l 28 736 m 456 1014 l 586 1014 l 461 836 l 364 836 l 456 1014 z "},"ŵ":{"ha":833,"x_min":28,"x_max":806,"o":"m 28 736 l 156 736 l 249 122 l 354 633 l 479 633 l 585 122 l 678 736 l 806 736 l 661 0 l 514 0 l 417 458 l 319 0 l 174 0 l 28 736 m 350 1015 l 481 1015 l 610 831 l 513 831 l 415 956 l 318 831 l 221 831 l 350 1015 z "},"ẅ":{"ha":833,"x_min":28,"x_max":806,"o":"m 28 736 l 156 736 l 249 122 l 354 633 l 479 633 l 585 122 l 678 736 l 806 736 l 661 0 l 514 0 l 417 458 l 319 0 l 174 0 l 28 736 z "},"ẁ":{"ha":833,"x_min":28,"x_max":806,"o":"m 28 736 l 156 736 l 249 122 l 354 633 l 479 633 l 585 122 l 678 736 l 806 736 l 661 0 l 514 0 l 417 458 l 319 0 l 174 0 l 28 736 m 250 1014 l 381 1014 l 472 836 l 375 836 l 250 1014 z "},"x":{"ha":833,"x_min":75,"x_max":758,"o":"m 346 378 l 89 736 l 225 736 l 418 458 l 607 736 l 746 736 l 490 375 l 758 0 l 622 0 l 418 297 l 214 0 l 75 0 l 346 378 z "},"y":{"ha":833,"x_min":75,"x_max":764,"o":"m 192 -106 l 276 -106 q 333 -94 314 -106 q 363 -56 351 -82 l 389 14 l 349 14 l 75 736 l 203 736 l 426 122 l 636 736 l 764 736 l 465 -93 q 403 -181 444 -153 q 288 -208 361 -208 l 192 -208 l 192 -106 z "},"ý":{"ha":833,"x_min":75,"x_max":764,"o":"m 192 -106 l 276 -106 q 333 -94 314 -106 q 363 -56 351 -82 l 389 14 l 349 14 l 75 736 l 203 736 l 426 122 l 636 736 l 764 736 l 465 -93 q 403 -181 444 -153 q 288 -208 361 -208 l 192 -208 l 192 -106 m 460 1014 l 590 1014 l 465 836 l 368 836 l 460 1014 z "},"ŷ":{"ha":833,"x_min":75,"x_max":764,"o":"m 192 -106 l 276 -106 q 333 -94 314 -106 q 363 -56 351 -82 l 389 14 l 349 14 l 75 736 l 203 736 l 426 122 l 636 736 l 764 736 l 465 -93 q 403 -181 444 -153 q 288 -208 361 -208 l 192 -208 l 192 -106 m 354 1015 l 485 1015 l 614 831 l 517 831 l 419 956 l 322 831 l 225 831 l 354 1015 z "},"ÿ":{"ha":833,"x_min":75,"x_max":764,"o":"m 192 -106 l 276 -106 q 333 -94 314 -106 q 363 -56 351 -82 l 389 14 l 349 14 l 75 736 l 203 736 l 426 122 l 636 736 l 764 736 l 465 -93 q 403 -181 444 -153 q 288 -208 361 -208 l 192 -208 l 192 -106 z "},"ỳ":{"ha":833,"x_min":75,"x_max":764,"o":"m 192 -106 l 276 -106 q 333 -94 314 -106 q 363 -56 351 -82 l 389 14 l 349 14 l 75 736 l 203 736 l 426 122 l 636 736 l 764 736 l 465 -93 q 403 -181 444 -153 q 288 -208 361 -208 l 192 -208 l 192 -106 m 254 1014 l 385 1014 l 476 836 l 379 836 l 254 1014 z "},"ỹ":{"ha":833,"x_min":75,"x_max":764,"o":"m 192 -106 l 276 -106 q 333 -94 314 -106 q 363 -56 351 -82 l 389 14 l 349 14 l 75 736 l 203 736 l 426 122 l 636 736 l 764 736 l 465 -93 q 403 -181 444 -153 q 288 -208 361 -208 l 192 -208 l 192 -106 m 504 847 q 407 889 458 847 q 367 918 381 911 q 335 925 354 925 q 274 838 278 925 l 201 838 q 240 958 203 915 q 335 1000 276 1000 q 390 989 365 1000 q 440 956 414 978 q 478 930 463 938 q 510 922 493 922 q 550 942 536 922 q 568 1014 564 963 l 640 1014 q 600 891 636 935 q 504 847 564 847 z "},"z":{"ha":833,"x_min":114,"x_max":719,"o":"m 114 117 l 581 633 l 128 633 l 128 736 l 708 736 l 708 619 l 242 103 l 719 103 l 719 0 l 114 0 l 114 117 z "},"ź":{"ha":833,"x_min":114,"x_max":719,"o":"m 114 117 l 581 633 l 128 633 l 128 736 l 708 736 l 708 619 l 242 103 l 719 103 l 719 0 l 114 0 l 114 117 m 457 1014 l 588 1014 l 463 836 l 365 836 l 457 1014 z "},"ž":{"ha":833,"x_min":114,"x_max":719,"o":"m 114 117 l 581 633 l 128 633 l 128 736 l 708 736 l 708 619 l 242 103 l 719 103 l 719 0 l 114 0 l 114 117 m 321 1014 l 418 889 l 515 1014 l 613 1014 l 483 829 l 353 829 l 224 1014 l 321 1014 z "},"ż":{"ha":833,"x_min":114,"x_max":719,"o":"m 114 117 l 581 633 l 128 633 l 128 736 l 708 736 l 708 619 l 242 103 l 719 103 l 719 0 l 114 0 l 114 117 m 356 988 l 478 988 l 478 851 l 356 851 l 356 988 z "},"ꞌ":{"ha":833,"x_min":356,"x_max":478,"o":"m 356 797 l 356 986 l 478 986 l 478 797 l 458 525 l 375 525 l 356 797 z "},"ª":{"ha":833,"x_min":199,"x_max":635,"o":"m 354 513 q 244 549 289 513 q 199 643 199 585 q 235 731 199 696 q 339 779 272 765 l 483 808 q 399 906 483 906 q 306 838 322 906 l 207 844 q 270 953 219 913 q 399 993 321 993 q 533 943 486 993 q 581 803 581 893 l 581 636 q 588 613 581 619 q 610 606 594 606 l 635 606 l 635 522 q 593 519 621 519 q 494 590 511 519 q 440 534 478 556 q 354 513 403 513 m 367 594 q 452 623 421 594 q 483 700 483 651 l 483 733 l 364 710 q 316 689 332 703 q 300 650 300 675 q 317 609 300 624 q 367 594 335 594 z "},"º":{"ha":833,"x_min":201,"x_max":631,"o":"m 415 513 q 260 578 319 513 q 201 751 201 643 q 260 924 201 858 q 415 989 319 989 q 571 924 511 989 q 631 751 631 858 q 571 578 631 643 q 415 513 511 513 m 415 601 q 499 642 469 601 q 529 751 529 682 q 499 860 529 821 q 415 900 469 900 q 333 860 363 900 q 303 751 303 821 q 333 642 303 682 q 415 601 363 601 z "},"А":{"ha":833,"x_min":36,"x_max":797,"o":"m 336 986 l 497 986 l 797 0 l 675 0 l 594 275 l 239 275 l 158 0 l 36 0 l 336 986 m 561 389 l 417 878 l 272 389 l 561 389 z "},"Б":{"ha":833,"x_min":111,"x_max":750,"o":"m 726 986 l 726 869 l 231 869 l 231 597 l 411 597 q 658 518 567 597 q 750 299 750 439 q 658 79 750 158 q 411 0 567 0 l 111 0 l 111 986 l 726 986 m 231 483 l 231 114 l 397 114 q 625 299 625 114 q 397 483 625 483 l 231 483 z "},"В":{"ha":833,"x_min":125,"x_max":772,"o":"m 125 986 l 403 986 q 647 915 563 986 q 731 717 731 844 q 682 580 731 636 q 554 508 633 524 q 715 433 657 494 q 772 275 772 371 q 683 74 772 147 q 438 0 593 0 l 125 0 l 125 986 m 439 114 q 594 156 540 114 q 647 275 647 199 q 594 400 647 356 q 439 444 540 444 l 244 444 l 244 114 l 439 114 m 408 558 q 606 714 606 558 q 408 872 606 872 l 244 872 l 244 558 l 408 558 z "},"Г":{"ha":833,"x_min":139,"x_max":767,"o":"m 139 986 l 767 986 l 767 869 l 258 869 l 258 0 l 139 0 l 139 986 z "},"Ѓ":{"ha":833,"x_min":139,"x_max":767,"o":"m 139 986 l 767 986 l 767 869 l 258 869 l 258 0 l 139 0 l 139 986 m 492 1264 l 622 1264 l 497 1086 l 400 1086 l 492 1264 z "},"Ґ":{"ha":833,"x_min":139,"x_max":781,"o":"m 258 0 l 139 0 l 139 986 l 661 986 l 661 1201 l 781 1201 l 781 869 l 258 869 l 258 0 z "},"Ғ":{"ha":833,"x_min":26,"x_max":767,"o":"m 26 514 l 139 514 l 139 986 l 767 986 l 767 869 l 258 869 l 258 514 l 590 514 l 590 397 l 258 397 l 258 0 l 139 0 l 139 397 l 26 397 l 26 514 z "},"Д":{"ha":833,"x_min":17,"x_max":806,"o":"m 17 117 l 74 117 q 153 160 125 117 q 192 300 181 204 l 264 986 l 683 986 l 683 117 l 806 117 l 806 -208 l 686 -208 l 686 0 l 136 0 l 136 -208 l 17 -208 l 17 117 m 564 117 l 564 869 l 374 869 l 311 286 q 256 117 299 176 l 564 117 z "},"Е":{"ha":833,"x_min":125,"x_max":736,"o":"m 125 986 l 725 986 l 725 872 l 244 872 l 244 553 l 708 553 l 708 439 l 244 439 l 244 114 l 736 114 l 736 0 l 125 0 l 125 986 z "},"Ѐ":{"ha":833,"x_min":125,"x_max":736,"o":"m 125 986 l 725 986 l 725 872 l 244 872 l 244 553 l 708 553 l 708 439 l 244 439 l 244 114 l 736 114 l 736 0 l 125 0 l 125 986 m 275 1265 l 406 1265 l 497 1088 l 400 1088 l 275 1265 z "},"Ё":{"ha":833,"x_min":125,"x_max":736,"o":"m 125 986 l 725 986 l 725 872 l 244 872 l 244 553 l 708 553 l 708 439 l 244 439 l 244 114 l 736 114 l 736 0 l 125 0 l 125 986 z "},"Ж":{"ha":833,"x_min":10,"x_max":824,"o":"m 242 493 l 24 986 l 153 986 l 357 525 l 357 986 l 476 986 l 476 525 l 681 986 l 810 986 l 592 493 l 824 0 l 694 0 l 476 464 l 476 0 l 357 0 l 357 464 l 139 0 l 10 0 l 242 493 z "},"З":{"ha":833,"x_min":46,"x_max":785,"o":"m 417 -22 q 232 13 315 -22 q 99 111 149 49 q 46 254 50 174 l 169 263 q 245 140 176 186 q 417 94 314 94 q 594 145 526 94 q 661 281 661 196 q 628 385 661 343 q 542 448 594 428 q 436 467 490 468 l 333 465 l 333 583 l 436 582 q 524 598 481 581 q 597 653 568 615 q 626 751 626 692 q 568 853 626 815 q 417 892 510 892 q 274 856 332 892 q 207 763 217 821 l 82 771 q 138 893 90 839 q 258 978 185 947 q 417 1008 331 1008 q 588 976 511 1008 q 708 885 664 943 q 751 751 751 826 q 571 533 751 586 q 729 435 674 503 q 785 271 785 367 q 737 119 785 186 q 605 15 689 53 q 417 -22 521 -22 z "},"И":{"ha":833,"x_min":97,"x_max":736,"o":"m 617 0 l 617 828 l 264 0 l 97 0 l 97 986 l 217 986 l 217 158 l 569 986 l 736 986 l 736 0 l 617 0 z "},"Й":{"ha":833,"x_min":97,"x_max":736,"o":"m 617 0 l 617 828 l 264 0 l 97 0 l 97 986 l 217 986 l 217 158 l 569 986 l 736 986 l 736 0 l 617 0 m 417 1088 q 279 1135 332 1088 q 222 1265 226 1183 l 303 1265 q 417 1174 315 1174 q 531 1265 518 1174 l 611 1265 q 554 1135 607 1183 q 417 1088 501 1088 z "},"К":{"ha":833,"x_min":81,"x_max":785,"o":"m 200 482 l 200 0 l 81 0 l 81 986 l 200 986 l 200 504 l 614 986 l 771 986 l 344 493 l 785 0 l 628 0 l 200 482 z "},"Ќ":{"ha":833,"x_min":81,"x_max":785,"o":"m 200 482 l 200 0 l 81 0 l 81 986 l 200 986 l 200 504 l 614 986 l 771 986 l 344 493 l 785 0 l 628 0 l 200 482 m 447 1264 l 578 1264 l 453 1086 l 356 1086 l 447 1264 z "},"Л":{"ha":833,"x_min":28,"x_max":760,"o":"m 28 117 l 108 117 q 165 144 144 117 q 190 218 186 171 l 254 986 l 760 986 l 760 0 l 640 0 l 640 869 l 367 869 l 311 204 q 126 0 294 0 l 28 0 l 28 117 z "},"М":{"ha":833,"x_min":83,"x_max":750,"o":"m 203 826 l 203 0 l 83 0 l 83 986 l 264 986 l 417 300 l 569 986 l 750 986 l 750 0 l 631 0 l 631 826 l 469 111 l 364 111 l 203 826 z "},"Н":{"ha":833,"x_min":94,"x_max":739,"o":"m 94 986 l 214 986 l 214 553 l 619 553 l 619 986 l 739 986 l 739 0 l 619 0 l 619 439 l 214 439 l 214 0 l 94 0 l 94 986 z "},"О":{"ha":833,"x_min":53,"x_max":781,"o":"m 417 -22 q 147 111 242 -22 q 53 492 53 244 q 147 874 53 740 q 417 1008 242 1008 q 686 874 592 1008 q 781 492 781 740 q 686 111 781 244 q 417 -22 592 -22 m 417 94 q 594 197 532 94 q 656 492 656 299 q 594 788 656 685 q 417 892 532 892 q 240 788 301 892 q 178 492 178 685 q 240 197 178 299 q 417 94 301 94 z "},"П":{"ha":833,"x_min":97,"x_max":736,"o":"m 97 986 l 736 986 l 736 0 l 617 0 l 617 869 l 217 869 l 217 0 l 97 0 l 97 986 z "},"Р":{"ha":833,"x_min":125,"x_max":764,"o":"m 125 986 l 425 986 q 672 907 581 986 q 764 688 764 828 q 672 468 764 547 q 425 389 581 389 l 244 389 l 244 0 l 125 0 l 125 986 m 411 503 q 639 688 639 503 q 411 872 639 872 l 244 872 l 244 503 l 411 503 z "},"С":{"ha":833,"x_min":53,"x_max":772,"o":"m 419 -22 q 149 115 244 -22 q 53 492 53 253 q 149 871 53 733 q 419 1008 244 1008 q 642 923 550 1008 q 764 685 733 838 l 636 676 q 556 836 613 781 q 419 892 499 892 q 240 788 303 892 q 178 492 178 685 q 240 197 178 300 q 419 94 303 94 q 566 156 507 94 q 646 332 625 217 l 772 325 q 651 70 744 163 q 419 -22 558 -22 z "},"Т":{"ha":833,"x_min":56,"x_max":778,"o":"m 357 872 l 56 872 l 56 986 l 778 986 l 778 872 l 476 872 l 476 0 l 357 0 l 357 872 z "},"У":{"ha":833,"x_min":72,"x_max":769,"o":"m 196 117 l 281 117 q 326 128 308 117 q 353 168 343 140 l 388 264 l 340 264 l 72 986 l 204 986 l 425 375 l 639 986 l 769 986 l 456 115 q 394 28 435 56 q 292 0 354 0 l 196 0 l 196 117 z "},"Ў":{"ha":833,"x_min":72,"x_max":769,"o":"m 196 117 l 281 117 q 326 128 308 117 q 353 168 343 140 l 388 264 l 340 264 l 72 986 l 204 986 l 425 375 l 639 986 l 769 986 l 456 115 q 394 28 435 56 q 292 0 354 0 l 196 0 l 196 117 z "},"Ф":{"ha":833,"x_min":35,"x_max":799,"o":"m 356 106 q 120 226 206 124 q 35 493 35 329 q 120 760 35 657 q 356 881 206 863 l 356 986 l 475 986 l 475 882 q 713 760 626 863 q 799 493 799 657 q 713 226 799 329 q 475 104 626 124 l 475 0 l 356 0 l 356 106 m 160 493 q 212 313 160 383 q 356 224 264 242 l 356 763 q 212 674 264 744 q 160 493 160 603 m 475 224 q 621 312 568 240 q 674 493 674 383 q 621 674 674 603 q 475 763 568 746 l 475 224 z "},"Х":{"ha":833,"x_min":69,"x_max":764,"o":"m 342 496 l 75 986 l 214 986 l 418 588 l 622 986 l 758 986 l 492 494 l 764 0 l 625 0 l 415 404 l 206 0 l 69 0 l 342 496 z "},"Ч":{"ha":833,"x_min":69,"x_max":736,"o":"m 617 469 q 513 369 585 407 q 356 331 442 331 q 206 369 271 331 q 106 481 142 408 q 69 650 69 554 l 69 986 l 189 986 l 189 650 q 235 503 189 558 q 356 447 282 447 q 489 474 429 447 q 583 547 549 500 q 617 651 617 593 l 617 986 l 736 986 l 736 0 l 617 0 l 617 469 z "},"Ц":{"ha":833,"x_min":83,"x_max":813,"o":"m 203 986 l 203 117 l 603 117 l 603 986 l 722 986 l 722 117 l 813 117 l 813 -208 l 693 -208 l 693 0 l 83 0 l 83 986 l 203 986 z "},"Ш":{"ha":833,"x_min":76,"x_max":757,"o":"m 76 986 l 196 986 l 196 117 l 357 117 l 357 986 l 476 986 l 476 117 l 638 117 l 638 986 l 757 986 l 757 0 l 76 0 l 76 986 z "},"Щ":{"ha":833,"x_min":49,"x_max":813,"o":"m 49 986 l 168 986 l 168 117 l 329 117 l 329 986 l 449 986 l 449 117 l 610 117 l 610 986 l 729 986 l 729 117 l 813 117 l 813 -208 l 693 -208 l 693 0 l 49 0 l 49 986 z "},"Џ":{"ha":833,"x_min":97,"x_max":736,"o":"m 357 0 l 97 0 l 97 986 l 217 986 l 217 117 l 617 117 l 617 986 l 736 986 l 736 0 l 476 0 l 476 -208 l 357 -208 l 357 0 z "},"Ь":{"ha":833,"x_min":125,"x_max":764,"o":"m 244 986 l 244 597 l 425 597 q 672 518 581 597 q 764 299 764 439 q 672 79 764 158 q 425 0 581 0 l 125 0 l 125 986 l 244 986 m 244 483 l 244 114 l 411 114 q 639 299 639 114 q 411 483 639 483 l 244 483 z "},"Ы":{"ha":833,"x_min":49,"x_max":785,"o":"m 49 986 l 169 986 l 169 603 l 236 603 q 492 522 400 603 q 585 299 585 442 q 492 79 585 158 q 236 0 400 0 l 49 0 l 49 986 m 236 117 q 460 299 460 117 q 236 486 460 486 l 169 486 l 169 117 l 236 117 m 665 986 l 785 986 l 785 0 l 665 0 l 665 986 z "},"Ъ":{"ha":833,"x_min":42,"x_max":788,"o":"m 42 986 l 269 986 l 269 869 l 268 869 l 268 597 l 449 597 q 696 518 604 597 q 788 299 788 439 q 696 79 788 158 q 449 0 604 0 l 149 0 l 149 869 l 42 869 l 42 986 m 268 483 l 268 114 l 435 114 q 663 299 663 114 q 435 483 663 483 l 268 483 z "},"Љ":{"ha":833,"x_min":7,"x_max":826,"o":"m 7 117 l 46 117 q 104 144 83 117 q 128 218 125 171 l 164 986 l 507 986 l 508 603 l 547 603 q 753 522 681 603 q 826 299 826 442 q 753 78 826 157 q 547 0 681 0 l 388 0 l 388 869 l 276 869 l 249 204 q 199 54 244 108 q 64 0 153 0 l 7 0 l 7 117 m 535 117 q 652 162 615 117 q 689 299 689 207 q 652 440 689 393 q 535 486 615 486 l 508 486 l 508 117 l 535 117 z "},"Њ":{"ha":833,"x_min":28,"x_max":806,"o":"m 311 436 l 147 436 l 147 0 l 28 0 l 28 986 l 147 986 l 147 553 l 311 553 l 311 986 l 432 986 l 432 603 l 485 603 q 726 524 646 603 q 806 299 806 444 q 726 77 806 154 q 485 0 646 0 l 311 0 l 311 436 m 472 117 q 624 160 581 117 q 668 299 668 204 q 624 441 668 396 q 472 486 581 486 l 432 486 l 432 117 l 472 117 z "},"Ѕ":{"ha":833,"x_min":61,"x_max":772,"o":"m 432 -22 q 248 20 329 -22 q 118 139 167 63 q 61 315 69 215 l 186 324 q 265 154 200 214 q 435 94 331 94 q 592 133 538 94 q 647 244 647 172 q 625 328 647 294 q 544 393 603 363 q 371 456 485 424 q 203 521 265 486 q 113 605 142 556 q 85 728 85 654 q 124 874 85 810 q 238 973 164 938 q 413 1008 313 1008 q 649 922 560 1008 q 754 694 738 835 l 629 686 q 561 836 617 781 q 410 892 506 892 q 264 848 318 892 q 210 733 210 804 q 230 657 210 686 q 299 606 250 628 q 446 556 349 583 q 638 480 568 521 q 740 382 708 439 q 772 242 772 325 q 729 105 772 165 q 609 11 686 44 q 432 -22 532 -22 z "},"Є":{"ha":833,"x_min":53,"x_max":771,"o":"m 417 -22 q 147 111 242 -22 q 53 492 53 244 q 147 874 53 740 q 417 1008 242 1008 q 653 915 563 1008 q 771 642 743 821 l 643 642 q 564 827 622 763 q 417 892 506 892 q 250 803 311 892 q 179 550 189 715 l 479 550 l 479 433 l 179 433 q 250 182 189 269 q 417 94 311 94 q 564 159 506 94 q 644 344 622 224 l 771 344 q 653 72 744 167 q 417 -22 563 -22 z "},"Э":{"ha":833,"x_min":63,"x_max":781,"o":"m 417 -22 q 180 72 271 -22 q 63 344 89 167 l 189 344 q 269 159 211 224 q 417 94 328 94 q 583 182 522 94 q 654 433 644 269 l 354 433 l 354 550 l 654 550 q 583 803 644 715 q 417 892 522 892 q 269 827 328 892 q 190 642 211 763 l 63 642 q 181 915 90 821 q 417 1008 271 1008 q 686 874 592 1008 q 781 492 781 740 q 686 111 781 244 q 417 -22 592 -22 z "},"І":{"ha":833,"x_min":111,"x_max":722,"o":"m 111 114 l 357 114 l 357 872 l 111 872 l 111 986 l 722 986 l 722 872 l 476 872 l 476 114 l 722 114 l 722 0 l 111 0 l 111 114 z "},"Ї":{"ha":833,"x_min":111,"x_max":722,"o":"m 111 114 l 357 114 l 357 872 l 111 872 l 111 986 l 722 986 l 722 872 l 476 872 l 476 114 l 722 114 l 722 0 l 111 0 l 111 114 z "},"Ј":{"ha":833,"x_min":56,"x_max":708,"o":"m 382 -22 q 147 71 235 -22 q 56 319 60 164 l 172 331 q 228 152 176 210 q 382 94 279 94 q 589 331 589 94 l 589 986 l 708 986 l 708 331 q 620 72 708 167 q 382 -22 532 -22 z "},"Ћ":{"ha":833,"x_min":7,"x_max":792,"o":"m 167 869 l 7 869 l 7 986 l 489 986 l 489 869 l 286 869 l 286 524 q 373 619 314 583 q 506 656 432 656 q 655 617 590 656 q 756 505 719 578 q 792 336 792 432 l 792 0 l 672 0 l 672 336 q 622 482 672 425 q 492 539 571 539 q 344 482 401 539 q 286 335 286 425 l 286 0 l 167 0 l 167 869 z "},"Ю":{"ha":833,"x_min":28,"x_max":806,"o":"m 536 -22 q 340 88 404 -22 q 269 435 275 197 l 147 435 l 147 0 l 28 0 l 28 986 l 147 986 l 147 551 l 269 551 q 340 899 275 789 q 536 1008 404 1008 q 741 885 676 1008 q 806 492 806 761 q 741 101 806 224 q 536 -22 676 -22 m 536 94 q 620 134 589 94 q 666 260 651 174 q 681 492 681 347 q 666 724 681 638 q 620 851 651 811 q 536 892 589 892 q 453 852 485 892 q 408 725 422 813 q 394 492 394 638 q 408 260 394 346 q 453 134 422 174 q 536 94 485 94 z "},"Я":{"ha":833,"x_min":64,"x_max":735,"o":"m 615 0 l 615 397 l 438 397 l 421 397 l 196 0 l 64 0 l 299 415 q 142 513 197 442 q 88 688 88 585 q 180 907 88 828 q 438 986 272 986 l 735 986 l 735 0 l 615 0 m 615 514 l 615 869 l 438 869 q 271 823 329 869 q 213 690 213 776 q 271 560 213 606 q 438 514 329 514 l 615 514 z "},"Ђ":{"ha":833,"x_min":7,"x_max":819,"o":"m 167 869 l 7 869 l 7 986 l 489 986 l 489 869 l 286 869 l 286 525 q 369 619 313 583 q 496 656 426 656 q 663 615 589 656 q 778 500 736 574 q 819 332 819 426 q 771 156 819 231 q 633 40 722 81 q 422 0 543 0 l 422 117 q 622 174 550 117 q 694 332 694 232 q 640 483 694 428 q 496 539 586 539 q 344 482 403 539 q 286 335 286 425 l 286 0 l 167 0 l 167 869 z "},"Ѣ":{"ha":833,"x_min":21,"x_max":797,"o":"m 21 853 l 158 853 l 158 986 l 278 986 l 278 853 l 506 853 l 506 736 l 278 736 l 278 597 l 458 597 q 706 518 614 597 q 797 299 797 439 q 706 79 797 158 q 458 0 614 0 l 158 0 l 158 736 l 21 736 l 21 853 m 278 483 l 278 114 l 444 114 q 672 299 672 114 q 444 483 672 483 l 278 483 z "},"Ѫ":{"ha":833,"x_min":1,"x_max":832,"o":"m 146 401 q 208 503 169 469 q 292 540 246 538 l 89 869 l 89 986 l 744 986 l 744 869 l 542 540 q 686 401 638 533 l 832 0 l 704 0 l 582 344 q 549 406 565 389 q 506 424 532 424 l 476 424 l 476 0 l 357 0 l 357 424 l 328 424 q 283 406 301 424 q 250 344 265 389 l 129 0 l 1 0 l 146 401 m 417 563 l 606 869 l 228 869 l 417 563 z "},"Ѳ":{"ha":833,"x_min":53,"x_max":781,"o":"m 417 -22 q 147 111 242 -22 q 53 492 53 244 q 147 874 53 740 q 417 1008 242 1008 q 686 874 592 1008 q 781 492 781 740 q 686 111 781 244 q 417 -22 592 -22 m 417 94 q 575 169 515 94 q 650 388 635 244 q 622 386 640 386 q 544 399 589 386 q 399 449 499 411 q 297 476 350 468 q 203 481 243 485 l 178 476 q 242 192 179 290 q 417 94 304 94 m 189 599 q 224 600 200 600 q 308 592 264 600 q 389 569 353 583 q 534 517 493 529 q 607 504 575 504 q 642 507 617 504 l 656 508 q 591 793 653 694 q 417 892 529 892 q 258 817 318 892 q 183 599 199 742 l 189 599 z "},"Ѵ":{"ha":833,"x_min":19,"x_max":826,"o":"m 19 986 l 146 986 l 390 182 l 579 807 q 653 938 604 890 q 763 986 703 986 l 826 986 l 826 869 l 807 869 q 735 842 761 869 q 686 742 708 814 l 458 0 l 324 0 l 19 986 z "},"Җ":{"ha":833,"x_min":10,"x_max":819,"o":"m 700 0 l 667 0 l 457 465 l 457 0 l 343 0 l 343 465 l 133 0 l 10 0 l 232 493 l 22 986 l 147 986 l 343 522 l 343 986 l 457 986 l 457 522 l 653 986 l 778 986 l 568 493 l 746 97 l 819 97 l 819 -208 l 700 -208 l 700 0 z "},"Қ":{"ha":833,"x_min":67,"x_max":799,"o":"m 679 0 l 614 0 l 186 482 l 186 0 l 67 0 l 67 986 l 186 986 l 186 504 l 600 986 l 757 986 l 331 493 l 683 97 l 799 97 l 799 -208 l 679 -208 l 679 0 z "},"Ң":{"ha":833,"x_min":74,"x_max":813,"o":"m 693 0 l 599 0 l 599 439 l 193 439 l 193 0 l 74 0 l 74 986 l 193 986 l 193 553 l 599 553 l 599 986 l 718 986 l 718 97 l 813 97 l 813 -208 l 693 -208 l 693 0 z "},"Ү":{"ha":833,"x_min":61,"x_max":772,"o":"m 358 403 l 61 986 l 197 986 l 417 542 l 636 986 l 772 986 l 478 403 l 478 0 l 358 0 l 358 403 z "},"Ұ":{"ha":833,"x_min":60,"x_max":771,"o":"m 142 435 l 340 435 l 60 986 l 196 986 l 415 542 l 635 986 l 771 986 l 493 435 l 731 435 l 731 318 l 476 318 l 476 0 l 357 0 l 357 318 l 142 318 l 142 435 z "},"Ҳ":{"ha":833,"x_min":69,"x_max":806,"o":"m 686 0 l 625 0 l 415 404 l 206 0 l 69 0 l 342 496 l 75 986 l 214 986 l 418 588 l 622 986 l 758 986 l 492 494 l 710 97 l 806 97 l 806 -208 l 686 -208 l 686 0 z "},"Ҷ":{"ha":833,"x_min":49,"x_max":813,"o":"m 693 0 l 596 0 l 596 469 q 492 369 564 407 q 335 331 421 331 q 185 369 250 331 q 85 481 121 408 q 49 650 49 554 l 49 986 l 168 986 l 168 650 q 215 503 168 558 q 335 447 261 447 q 468 474 408 447 q 562 547 528 500 q 596 651 596 593 l 596 986 l 715 986 l 715 97 l 813 97 l 813 -208 l 693 -208 l 693 0 z "},"Һ":{"ha":833,"x_min":97,"x_max":764,"o":"m 217 517 q 320 617 249 579 q 478 656 392 656 q 627 617 563 656 q 728 505 692 578 q 764 336 764 432 l 764 0 l 644 0 l 644 336 q 598 483 644 428 q 478 539 551 539 q 344 513 404 539 q 251 440 285 486 q 217 335 217 393 l 217 0 l 97 0 l 97 986 l 217 986 l 217 517 z "},"Ӏ":{"ha":833,"x_min":111,"x_max":722,"o":"m 111 114 l 357 114 l 357 872 l 111 872 l 111 986 l 722 986 l 722 872 l 476 872 l 476 114 l 722 114 l 722 0 l 111 0 l 111 114 z "},"Ә":{"ha":833,"x_min":39,"x_max":794,"o":"m 406 -22 q 218 40 300 -22 q 90 215 136 103 q 40 472 43 328 l 39 542 l 668 542 q 626 724 661 644 q 535 847 592 803 q 406 892 478 892 q 274 837 332 892 q 192 696 215 782 l 65 707 q 198 927 107 846 q 406 1008 289 1008 q 609 943 521 1008 q 746 760 697 878 q 794 493 794 643 q 744 232 794 350 q 604 46 693 114 q 406 -22 515 -22 m 406 94 q 576 180 510 94 q 667 425 643 265 l 168 425 q 248 180 188 265 q 406 94 308 94 z "},"Ӣ":{"ha":833,"x_min":97,"x_max":736,"o":"m 617 0 l 617 828 l 264 0 l 97 0 l 97 986 l 217 986 l 217 158 l 569 986 l 736 986 l 736 0 l 617 0 m 229 1218 l 601 1218 l 601 1118 l 229 1118 l 229 1218 z "},"Ө":{"ha":833,"x_min":53,"x_max":781,"o":"m 417 -22 q 147 111 242 -22 q 53 492 53 244 q 147 874 53 740 q 417 1008 242 1008 q 686 874 592 1008 q 781 492 781 740 q 686 111 781 244 q 417 -22 592 -22 m 417 94 q 584 181 524 94 q 654 435 644 268 l 179 435 q 249 181 189 268 q 417 94 310 94 m 654 551 q 583 804 644 717 q 417 892 522 892 q 250 804 311 892 q 179 551 189 717 l 654 551 z "},"Ӯ":{"ha":833,"x_min":72,"x_max":769,"o":"m 196 117 l 281 117 q 326 128 308 117 q 353 168 343 140 l 388 264 l 340 264 l 72 986 l 204 986 l 425 375 l 639 986 l 769 986 l 456 115 q 394 28 435 56 q 292 0 354 0 l 196 0 l 196 117 m 235 1218 l 607 1218 l 607 1118 l 235 1118 l 235 1218 z "},"а":{"ha":833,"x_min":75,"x_max":764,"o":"m 319 -17 q 144 39 214 -17 q 75 183 75 94 q 131 329 75 276 q 308 406 186 382 l 556 456 q 514 595 556 549 q 392 642 472 642 q 273 608 317 642 q 213 510 229 575 l 89 519 q 190 690 110 626 q 392 753 269 753 q 599 673 525 753 q 672 453 672 593 l 672 147 q 683 113 672 122 q 717 103 693 103 l 764 103 l 764 0 q 703 -3 742 -3 q 606 23 642 -3 q 560 104 571 49 q 464 17 529 50 q 319 -17 399 -17 m 331 86 q 498 142 440 86 q 556 292 556 197 l 556 356 l 331 311 q 227 269 257 297 q 197 194 197 242 q 233 115 197 143 q 331 86 268 86 z "},"б":{"ha":833,"x_min":81,"x_max":751,"o":"m 417 -22 q 294 3 350 -22 q 186 85 238 29 q 107 228 133 138 q 81 435 81 318 q 105 657 81 568 q 181 803 129 746 q 321 901 233 861 q 417 966 392 935 q 443 1056 443 997 l 563 1057 q 528 917 563 974 q 410 817 493 861 l 385 804 q 288 744 322 771 q 230 667 254 718 q 201 531 206 617 q 299 636 239 600 q 438 672 358 672 q 599 628 528 672 q 711 506 671 585 q 751 328 751 428 q 708 143 751 222 q 588 21 664 64 q 417 -22 513 -22 m 417 89 q 569 156 510 89 q 629 328 629 222 q 572 496 629 431 q 424 561 514 561 q 268 494 328 561 q 208 321 208 428 q 266 153 208 218 q 417 89 324 89 z "},"в":{"ha":833,"x_min":125,"x_max":739,"o":"m 125 736 l 431 736 q 633 681 558 736 q 708 532 708 625 q 667 431 708 471 q 551 381 625 392 q 689 325 639 371 q 739 208 739 279 q 667 56 739 113 q 471 0 594 0 l 125 0 l 125 736 m 471 103 q 575 131 536 103 q 614 208 614 160 q 575 292 614 261 q 471 322 536 322 l 242 322 l 242 103 l 471 103 m 431 425 q 542 454 500 425 q 583 532 583 483 q 542 606 583 579 q 431 633 500 633 l 242 633 l 242 425 l 431 425 z "},"г":{"ha":833,"x_min":207,"x_max":722,"o":"m 207 736 l 722 736 l 722 633 l 324 633 l 324 0 l 207 0 l 207 736 z "},"ѓ":{"ha":833,"x_min":207,"x_max":722,"o":"m 207 736 l 722 736 l 722 633 l 324 633 l 324 0 l 207 0 l 207 736 m 504 1014 l 635 1014 l 510 836 l 413 836 l 504 1014 z "},"ґ":{"ha":833,"x_min":207,"x_max":722,"o":"m 324 0 l 207 0 l 207 736 l 603 736 l 603 951 l 722 951 l 722 633 l 324 633 l 324 0 z "},"ғ":{"ha":833,"x_min":57,"x_max":722,"o":"m 57 425 l 207 425 l 207 736 l 722 736 l 722 633 l 324 633 l 324 425 l 482 425 l 482 322 l 324 322 l 324 0 l 207 0 l 207 322 l 57 322 l 57 425 z "},"д":{"ha":833,"x_min":28,"x_max":806,"o":"m 93 103 q 161 135 136 103 q 196 236 186 167 l 263 736 l 686 736 l 686 103 l 806 103 l 806 -208 l 689 -208 l 689 0 l 144 0 l 144 -208 l 28 -208 l 28 103 l 93 103 m 569 103 l 569 633 l 368 633 l 310 225 q 265 103 300 150 l 569 103 z "},"е":{"ha":833,"x_min":92,"x_max":750,"o":"m 429 -17 q 250 31 326 -17 q 133 165 174 78 q 92 368 92 251 q 133 571 92 483 q 249 706 174 658 q 424 753 324 753 q 594 708 519 753 q 709 575 668 663 q 750 367 750 488 l 750 332 l 214 332 q 276 155 219 215 q 429 94 332 94 q 547 127 500 94 q 613 218 593 160 l 738 208 q 626 45 708 107 q 429 -17 543 -17 m 622 435 q 561 590 614 538 q 424 642 508 642 q 283 589 338 642 q 214 435 228 536 l 622 435 z "},"ѐ":{"ha":833,"x_min":92,"x_max":750,"o":"m 429 -17 q 250 31 326 -17 q 133 165 174 78 q 92 368 92 251 q 133 571 92 483 q 249 706 174 658 q 424 753 324 753 q 594 708 519 753 q 709 575 668 663 q 750 367 750 488 l 750 332 l 214 332 q 276 155 219 215 q 429 94 332 94 q 547 127 500 94 q 613 218 593 160 l 738 208 q 626 45 708 107 q 429 -17 543 -17 m 622 435 q 561 590 614 538 q 424 642 508 642 q 283 589 338 642 q 214 435 228 536 l 622 435 m 258 1011 l 389 1011 l 481 833 l 383 833 l 258 1011 z "},"ё":{"ha":833,"x_min":92,"x_max":750,"o":"m 429 -17 q 250 31 326 -17 q 133 165 174 78 q 92 368 92 251 q 133 571 92 483 q 249 706 174 658 q 424 753 324 753 q 594 708 519 753 q 709 575 668 663 q 750 367 750 488 l 750 332 l 214 332 q 276 155 219 215 q 429 94 332 94 q 547 127 500 94 q 613 218 593 160 l 738 208 q 626 45 708 107 q 429 -17 543 -17 m 622 435 q 561 590 614 538 q 424 642 508 642 q 283 589 338 642 q 214 435 228 536 l 622 435 z "},"ж":{"ha":833,"x_min":15,"x_max":818,"o":"m 233 368 l 24 736 l 157 736 l 358 383 l 358 736 l 475 736 l 475 383 l 676 736 l 810 736 l 600 368 l 818 0 l 685 0 l 475 354 l 475 0 l 358 0 l 358 354 l 149 0 l 15 0 l 233 368 z "},"з":{"ha":833,"x_min":111,"x_max":715,"o":"m 414 -17 q 198 43 279 -17 q 111 206 117 103 l 233 211 q 286 126 238 158 q 414 94 335 94 q 544 125 496 94 q 593 207 593 156 q 548 301 593 267 q 428 335 503 336 l 351 333 l 351 444 l 428 443 q 530 470 492 442 q 568 546 568 499 q 526 616 568 590 q 414 642 485 642 q 310 618 350 642 q 264 554 269 594 l 138 561 q 222 701 147 650 q 414 753 297 753 q 616 697 542 753 q 690 546 690 642 q 651 455 690 494 q 543 396 613 415 q 669 320 624 372 q 715 200 715 268 q 634 42 715 100 q 414 -17 553 -17 z "},"и":{"ha":833,"x_min":131,"x_max":704,"o":"m 131 736 l 247 736 l 247 178 l 567 736 l 704 736 l 704 0 l 588 0 l 588 547 l 275 0 l 131 0 l 131 736 z "},"й":{"ha":833,"x_min":131,"x_max":704,"o":"m 131 736 l 247 736 l 247 178 l 567 736 l 704 736 l 704 0 l 588 0 l 588 547 l 275 0 l 131 0 l 131 736 m 418 838 q 281 885 333 838 q 224 1015 228 933 l 304 1015 q 418 924 317 924 q 532 1015 519 924 l 613 1015 q 556 885 608 933 q 418 838 503 838 z "},"ѝ":{"ha":833,"x_min":131,"x_max":704,"o":"m 131 736 l 247 736 l 247 178 l 567 736 l 704 736 l 704 0 l 588 0 l 588 547 l 275 0 l 131 0 l 131 736 m 251 1014 l 382 1014 l 474 836 l 376 836 l 251 1014 z "},"к":{"ha":833,"x_min":126,"x_max":772,"o":"m 246 358 l 246 0 l 126 0 l 126 736 l 246 736 l 246 378 l 592 736 l 756 736 l 393 368 l 772 0 l 606 0 l 246 358 z "},"ќ":{"ha":833,"x_min":126,"x_max":772,"o":"m 246 358 l 246 0 l 126 0 l 126 736 l 246 736 l 246 378 l 592 736 l 756 736 l 393 368 l 772 0 l 606 0 l 246 358 m 457 1014 l 588 1014 l 463 836 l 365 836 l 457 1014 z "},"л":{"ha":833,"x_min":35,"x_max":736,"o":"m 35 117 l 103 117 q 183 217 172 117 l 239 736 l 736 736 l 736 0 l 619 0 l 619 633 l 346 633 l 300 204 q 244 51 289 101 q 119 0 200 0 l 35 0 l 35 117 z "},"м":{"ha":833,"x_min":50,"x_max":783,"o":"m 64 736 l 218 736 l 425 143 l 631 736 l 783 736 l 783 0 l 667 0 l 667 479 l 497 0 l 351 0 l 178 486 l 167 0 l 50 0 l 64 736 z "},"н":{"ha":833,"x_min":126,"x_max":707,"o":"m 126 736 l 243 736 l 243 418 l 590 418 l 590 736 l 707 736 l 707 0 l 590 0 l 590 315 l 243 315 l 243 0 l 126 0 l 126 736 z "},"о":{"ha":833,"x_min":81,"x_max":753,"o":"m 417 -17 q 240 31 315 -17 q 122 165 164 78 q 81 368 81 251 q 122 572 81 485 q 240 706 164 658 q 417 753 315 753 q 593 706 517 753 q 711 572 669 658 q 753 368 753 485 q 711 165 753 251 q 593 31 669 78 q 417 -17 517 -17 m 417 94 q 574 167 518 94 q 631 368 631 240 q 574 569 631 496 q 417 642 518 642 q 259 569 315 642 q 203 368 203 497 q 259 167 203 239 q 417 94 315 94 z "},"п":{"ha":833,"x_min":125,"x_max":708,"o":"m 125 736 l 708 736 l 708 0 l 592 0 l 592 633 l 242 633 l 242 0 l 125 0 l 125 736 z "},"р":{"ha":833,"x_min":111,"x_max":764,"o":"m 111 736 l 219 736 l 221 618 q 313 718 254 683 q 447 753 372 753 q 624 701 553 753 q 729 561 694 649 q 764 368 764 474 q 729 175 764 263 q 624 35 694 88 q 447 -17 553 -17 q 316 14 375 -17 q 228 97 257 44 l 228 -208 l 111 -208 l 111 736 m 436 94 q 587 167 532 94 q 642 368 642 239 q 587 569 642 497 q 436 642 532 642 q 283 572 339 642 q 228 368 228 501 q 283 165 228 235 q 436 94 338 94 z "},"с":{"ha":833,"x_min":97,"x_max":750,"o":"m 436 -17 q 258 31 335 -17 q 139 165 181 78 q 97 368 97 253 q 139 571 97 483 q 258 706 181 658 q 436 753 335 753 q 641 686 560 753 q 744 497 722 619 l 622 489 q 556 601 606 561 q 436 642 507 642 q 277 569 335 642 q 219 368 219 496 q 277 167 219 240 q 436 94 335 94 q 560 138 510 94 q 628 261 611 181 l 750 253 q 642 56 726 129 q 436 -17 558 -17 z "},"т":{"ha":833,"x_min":93,"x_max":742,"o":"m 358 633 l 93 633 l 93 736 l 742 736 l 742 633 l 476 633 l 476 0 l 358 0 l 358 633 z "},"у":{"ha":833,"x_min":75,"x_max":764,"o":"m 192 -106 l 276 -106 q 333 -94 314 -106 q 363 -56 351 -82 l 389 14 l 349 14 l 75 736 l 203 736 l 426 122 l 636 736 l 764 736 l 465 -93 q 403 -181 444 -153 q 288 -208 361 -208 l 192 -208 l 192 -106 z "},"ў":{"ha":833,"x_min":75,"x_max":764,"o":"m 192 -106 l 276 -106 q 333 -94 314 -106 q 363 -56 351 -82 l 389 14 l 349 14 l 75 736 l 203 736 l 426 122 l 636 736 l 764 736 l 465 -93 q 403 -181 444 -153 q 288 -208 361 -208 l 192 -208 l 192 -106 z "},"ф":{"ha":833,"x_min":32,"x_max":800,"o":"m 358 38 q 188 94 261 49 q 73 210 114 139 q 32 372 32 282 q 73 534 32 463 q 188 651 114 606 q 358 707 261 696 l 358 986 l 476 986 l 476 706 q 646 649 572 694 q 760 533 719 604 q 800 372 800 461 q 760 212 800 283 q 646 95 719 140 q 476 39 572 50 l 476 -208 l 358 -208 l 358 38 m 157 372 q 210 226 157 283 q 358 156 264 169 l 358 589 q 210 518 264 575 q 157 372 157 461 m 476 156 q 622 228 569 171 q 675 372 675 285 q 622 517 675 460 q 476 589 569 574 l 476 156 z "},"х":{"ha":833,"x_min":75,"x_max":758,"o":"m 346 378 l 89 736 l 225 736 l 418 458 l 607 736 l 746 736 l 490 375 l 758 0 l 622 0 l 418 297 l 214 0 l 75 0 l 346 378 z "},"ч":{"ha":833,"x_min":96,"x_max":708,"o":"m 592 357 q 507 257 565 294 q 375 219 449 219 q 172 306 247 219 q 96 539 96 392 l 96 736 l 213 736 l 213 539 q 257 387 213 443 q 375 331 301 331 q 533 387 475 331 q 592 540 592 443 l 592 736 l 708 736 l 708 0 l 592 0 l 592 357 z "},"ц":{"ha":833,"x_min":125,"x_max":811,"o":"m 242 736 l 242 103 l 592 103 l 592 736 l 708 736 l 708 103 l 811 103 l 811 -208 l 694 -208 l 694 0 l 125 0 l 125 736 l 242 736 z "},"ш":{"ha":833,"x_min":78,"x_max":754,"o":"m 78 736 l 194 736 l 194 103 l 357 103 l 357 736 l 475 736 l 475 103 l 638 103 l 638 736 l 754 736 l 754 0 l 78 0 l 78 736 z "},"щ":{"ha":833,"x_min":78,"x_max":819,"o":"m 78 736 l 194 736 l 194 103 l 357 103 l 357 736 l 475 736 l 475 103 l 638 103 l 638 736 l 754 736 l 754 103 l 819 103 l 819 -208 l 703 -208 l 703 0 l 78 0 l 78 736 z "},"џ":{"ha":833,"x_min":125,"x_max":708,"o":"m 358 0 l 125 0 l 125 736 l 242 736 l 242 103 l 592 103 l 592 736 l 708 736 l 708 0 l 475 0 l 475 -208 l 358 -208 l 358 0 z "},"ь":{"ha":833,"x_min":113,"x_max":746,"o":"m 113 736 l 229 736 l 229 465 l 424 465 q 663 405 579 465 q 746 232 746 344 q 663 60 746 121 q 424 0 579 0 l 113 0 l 113 736 m 424 104 q 624 232 624 104 q 424 363 624 363 l 229 363 l 229 104 l 424 104 z "},"ы":{"ha":833,"x_min":49,"x_max":785,"o":"m 49 736 l 165 736 l 165 465 l 275 465 q 514 405 431 465 q 597 232 597 344 q 514 60 597 121 q 275 0 431 0 l 49 0 l 49 736 m 275 104 q 475 232 475 104 q 275 363 475 363 l 165 363 l 165 104 l 275 104 m 668 736 l 785 736 l 785 0 l 668 0 l 668 736 z "},"ъ":{"ha":833,"x_min":14,"x_max":767,"o":"m 14 736 l 250 736 l 250 465 l 444 465 q 683 405 600 465 q 767 232 767 344 q 683 60 767 121 q 444 0 600 0 l 133 0 l 133 633 l 14 633 l 14 736 m 444 104 q 644 232 644 104 q 444 363 644 363 l 250 363 l 250 104 l 444 104 z "},"љ":{"ha":833,"x_min":7,"x_max":826,"o":"m 7 117 l 19 117 q 100 217 89 117 l 156 736 l 496 736 l 496 465 l 574 465 q 761 405 696 465 q 826 232 826 344 q 761 60 826 121 q 574 0 696 0 l 378 0 l 378 633 l 263 633 l 217 204 q 161 51 206 101 q 36 0 117 0 l 7 0 l 7 117 m 574 104 q 670 138 636 104 q 704 232 704 171 q 670 328 704 294 q 574 363 636 363 l 496 363 l 496 104 l 574 104 z "},"њ":{"ha":833,"x_min":28,"x_max":813,"o":"m 364 321 l 144 321 l 144 0 l 28 0 l 28 736 l 144 736 l 144 424 l 364 424 l 364 736 l 481 736 l 481 465 l 560 465 q 747 405 682 465 q 813 232 813 344 q 747 60 813 121 q 560 0 682 0 l 364 0 l 364 321 m 560 104 q 656 138 622 104 q 690 232 690 171 q 656 328 690 294 q 560 363 622 363 l 481 363 l 481 104 l 560 104 z "},"ѕ":{"ha":833,"x_min":111,"x_max":722,"o":"m 431 -17 q 267 16 338 -17 q 157 105 197 49 q 111 232 117 161 l 233 240 q 294 133 244 171 q 431 94 344 94 q 558 119 514 94 q 603 192 603 143 q 588 245 603 225 q 531 280 572 265 q 408 308 490 294 q 242 356 303 326 q 156 426 182 385 q 131 531 131 468 q 204 691 131 629 q 410 753 278 753 q 615 686 539 753 q 708 517 690 619 l 586 508 q 527 606 574 569 q 408 642 481 642 q 290 611 331 642 q 250 531 250 581 q 268 472 250 493 q 324 437 286 450 q 433 411 363 424 q 610 365 547 393 q 697 297 672 338 q 722 192 722 256 q 640 40 722 96 q 431 -17 558 -17 z "},"є":{"ha":833,"x_min":85,"x_max":747,"o":"m 422 -17 q 244 31 321 -17 q 126 165 168 78 q 85 368 85 251 q 126 572 85 485 q 244 706 168 658 q 422 753 321 753 q 633 680 547 753 q 747 479 719 607 l 622 479 q 549 599 601 557 q 422 642 497 642 q 276 583 331 642 q 210 419 221 525 l 456 419 l 456 317 l 210 317 q 276 153 221 211 q 422 94 331 94 q 549 136 497 94 q 621 253 600 178 l 746 253 q 633 55 718 126 q 422 -17 547 -17 z "},"э":{"ha":833,"x_min":86,"x_max":749,"o":"m 411 -17 q 201 55 286 -17 q 88 253 115 126 l 213 253 q 285 136 233 178 q 411 94 336 94 q 558 153 503 94 q 624 317 613 211 l 378 317 l 378 419 l 624 419 q 558 583 613 525 q 411 642 503 642 q 284 599 336 642 q 211 479 232 557 l 86 479 q 200 680 114 607 q 411 753 286 753 q 589 706 513 753 q 707 572 665 658 q 749 368 749 485 q 707 165 749 251 q 589 31 665 78 q 411 -17 513 -17 z "},"і":{"ha":833,"x_min":111,"x_max":778,"o":"m 111 103 l 407 103 l 407 633 l 125 633 l 125 736 l 524 736 l 524 103 l 778 103 l 778 0 l 111 0 l 111 103 m 396 988 l 518 988 l 518 851 l 396 851 l 396 988 z "},"ї":{"ha":833,"x_min":111,"x_max":778,"o":"m 111 103 l 407 103 l 407 633 l 125 633 l 125 736 l 524 736 l 524 103 l 778 103 l 778 0 l 111 0 l 111 103 z "},"ј":{"ha":833,"x_min":153,"x_max":611,"o":"m 153 -106 l 413 -106 q 472 -76 450 -106 q 494 0 494 -46 l 494 633 l 167 633 l 167 736 l 611 736 l 611 0 q 563 -152 611 -96 q 425 -208 515 -208 l 153 -208 l 153 -106 m 489 988 l 611 988 l 611 851 l 489 851 l 489 988 z "},"ћ":{"ha":833,"x_min":35,"x_max":722,"o":"m 35 914 l 139 914 l 139 986 l 256 986 l 256 914 l 388 914 l 388 811 l 256 811 l 256 621 q 341 719 283 686 q 476 753 399 753 q 658 676 593 753 q 722 474 722 600 l 722 0 l 606 0 l 606 440 q 451 650 606 650 q 308 594 361 650 q 256 439 256 539 l 256 0 l 139 0 l 139 811 l 35 811 l 35 914 z "},"ю":{"ha":833,"x_min":28,"x_max":792,"o":"m 508 -17 q 310 69 382 -17 q 228 317 239 156 l 144 317 l 144 0 l 28 0 l 28 736 l 144 736 l 144 419 l 228 419 q 310 667 239 581 q 508 753 382 753 q 718 653 644 753 q 792 368 792 553 q 718 83 792 183 q 508 -17 644 -17 m 508 94 q 628 166 586 94 q 669 368 669 238 q 628 570 669 499 q 508 642 586 642 q 390 571 432 642 q 349 368 349 500 q 390 165 349 236 q 508 94 432 94 z "},"я":{"ha":833,"x_min":113,"x_max":708,"o":"m 292 306 q 167 389 211 335 q 124 514 124 443 q 200 678 124 621 q 418 736 276 736 l 708 736 l 708 0 l 592 0 l 592 285 l 417 285 l 249 0 l 113 0 l 292 306 m 592 388 l 592 635 l 418 635 q 292 603 336 635 q 249 511 249 571 q 292 419 249 451 q 418 388 336 388 l 592 388 z "},"ђ":{"ha":833,"x_min":35,"x_max":717,"o":"m 132 811 l 35 811 l 35 914 l 132 914 l 132 986 l 249 986 l 249 914 l 388 914 l 388 811 l 249 811 l 249 636 q 338 724 279 694 q 468 753 396 753 q 649 677 582 753 q 717 474 717 601 l 717 -4 q 669 -154 717 -100 q 531 -208 621 -208 l 460 -208 l 460 -106 l 517 -106 q 578 -78 556 -106 q 600 -4 600 -51 l 600 432 q 443 642 600 642 q 301 587 354 642 q 249 432 249 532 l 249 0 l 132 0 l 132 811 z "},"ѣ":{"ha":833,"x_min":14,"x_max":811,"o":"m 178 736 l 14 736 l 14 853 l 178 853 l 178 986 l 294 986 l 294 853 l 457 853 l 457 736 l 294 736 l 294 493 l 489 493 q 728 429 644 493 q 811 246 811 365 q 728 64 811 128 q 489 0 644 0 l 178 0 l 178 736 m 489 104 q 637 141 585 104 q 689 246 689 178 q 637 353 689 315 q 489 390 585 390 l 294 390 l 294 104 l 489 104 z "},"ѫ":{"ha":833,"x_min":19,"x_max":814,"o":"m 135 299 q 192 371 153 344 q 278 401 231 397 l 60 633 l 60 736 l 775 736 l 775 633 l 557 401 q 642 370 604 396 q 699 299 681 344 l 814 0 l 681 0 l 596 246 q 563 291 585 279 q 506 303 542 303 l 476 303 l 476 0 l 357 0 l 357 303 l 326 303 q 270 291 292 303 q 238 246 249 279 l 153 0 l 19 0 l 135 299 m 418 404 l 633 633 l 201 633 l 418 404 z "},"ѳ":{"ha":833,"x_min":81,"x_max":753,"o":"m 417 -17 q 240 31 315 -17 q 122 165 164 78 q 81 368 81 251 q 122 572 81 485 q 240 706 164 658 q 417 753 315 753 q 593 706 517 753 q 711 572 669 658 q 753 368 753 485 q 711 165 753 251 q 593 31 669 78 q 417 -17 517 -17 m 417 94 q 547 139 494 94 q 619 264 599 183 l 601 263 q 521 272 558 263 q 390 324 483 282 q 309 349 353 342 q 228 356 265 357 q 203 353 219 356 q 262 163 206 232 q 417 94 318 94 m 217 457 q 301 452 256 460 q 382 428 346 444 q 486 383 451 396 q 540 367 521 369 q 590 365 560 364 q 631 372 610 365 q 573 570 629 499 q 417 642 517 642 q 281 594 333 642 q 211 457 228 546 l 217 457 z "},"ѵ":{"ha":833,"x_min":51,"x_max":806,"o":"m 51 736 l 176 736 l 393 122 l 550 569 q 636 693 578 650 q 774 736 694 736 l 806 736 l 806 633 l 792 633 q 660 531 697 633 l 467 0 l 319 0 l 51 736 z "},"җ":{"ha":833,"x_min":15,"x_max":819,"o":"m 703 0 l 685 0 l 475 354 l 475 0 l 358 0 l 358 354 l 149 0 l 15 0 l 233 368 l 24 736 l 157 736 l 358 383 l 358 736 l 475 736 l 475 383 l 676 736 l 810 736 l 600 368 l 757 103 l 819 103 l 819 -208 l 703 -208 l 703 0 z "},"қ":{"ha":833,"x_min":125,"x_max":778,"o":"m 661 0 l 604 0 l 244 358 l 244 0 l 125 0 l 125 736 l 244 736 l 244 378 l 590 736 l 754 736 l 392 368 l 665 103 l 778 103 l 778 -208 l 661 -208 l 661 0 z "},"ң":{"ha":833,"x_min":126,"x_max":803,"o":"m 686 0 l 590 0 l 590 315 l 243 315 l 243 0 l 126 0 l 126 736 l 243 736 l 243 418 l 590 418 l 590 736 l 707 736 l 707 103 l 803 103 l 803 -208 l 686 -208 l 686 0 z "},"ү":{"ha":833,"x_min":75,"x_max":758,"o":"m 75 736 l 200 736 l 417 140 l 633 736 l 758 736 l 475 0 l 475 -208 l 358 -208 l 358 0 l 75 736 z "},"ұ":{"ha":833,"x_min":75,"x_max":758,"o":"m 194 51 l 339 51 l 75 736 l 200 736 l 417 140 l 633 736 l 758 736 l 494 51 l 638 51 l 638 -51 l 475 -51 l 475 -208 l 358 -208 l 358 -51 l 194 -51 l 194 51 z "},"ҳ":{"ha":833,"x_min":75,"x_max":790,"o":"m 674 0 l 622 0 l 418 297 l 214 0 l 75 0 l 346 378 l 89 736 l 225 736 l 418 458 l 607 736 l 746 736 l 490 375 l 685 103 l 790 103 l 790 -208 l 674 -208 l 674 0 z "},"ҷ":{"ha":833,"x_min":96,"x_max":804,"o":"m 688 0 l 592 0 l 592 357 q 507 257 565 294 q 375 219 449 219 q 172 306 247 219 q 96 539 96 392 l 96 736 l 213 736 l 213 539 q 257 387 213 443 q 375 331 301 331 q 533 387 475 331 q 592 540 592 443 l 592 736 l 708 736 l 708 103 l 804 103 l 804 -208 l 688 -208 l 688 0 z "},"һ":{"ha":833,"x_min":139,"x_max":722,"o":"m 139 986 l 256 986 l 256 621 q 341 719 283 686 q 476 753 399 753 q 658 676 593 753 q 722 474 722 600 l 722 0 l 606 0 l 606 440 q 451 650 606 650 q 308 594 361 650 q 256 439 256 539 l 256 0 l 139 0 l 139 986 z "},"ӏ":{"ha":833,"x_min":111,"x_max":722,"o":"m 111 114 l 357 114 l 357 872 l 111 872 l 111 986 l 722 986 l 722 872 l 476 872 l 476 114 l 722 114 l 722 0 l 111 0 l 111 114 z "},"ә":{"ha":833,"x_min":83,"x_max":742,"o":"m 404 753 q 583 706 507 753 q 701 572 660 658 q 742 368 742 485 q 701 165 742 253 q 585 31 660 78 q 410 -17 510 -17 q 240 28 314 -17 q 124 161 165 74 q 83 369 83 249 l 83 404 l 619 404 q 558 581 614 521 q 404 642 501 642 q 287 609 333 642 q 221 518 240 576 l 96 528 q 208 691 125 629 q 404 753 290 753 m 211 301 q 272 147 219 199 q 410 94 325 94 q 551 147 496 94 q 619 301 606 200 l 211 301 z "},"ӣ":{"ha":833,"x_min":131,"x_max":704,"o":"m 131 736 l 247 736 l 247 178 l 567 736 l 704 736 l 704 0 l 588 0 l 588 547 l 275 0 l 131 0 l 131 736 m 231 968 l 603 968 l 603 868 l 231 868 l 231 968 z "},"ө":{"ha":833,"x_min":81,"x_max":753,"o":"m 417 -17 q 240 31 315 -17 q 122 165 164 78 q 81 368 81 251 q 122 572 81 485 q 240 706 164 658 q 417 753 315 753 q 593 706 517 753 q 711 572 669 658 q 753 368 753 485 q 711 165 753 251 q 593 31 669 78 q 417 -17 517 -17 m 417 94 q 562 153 507 94 q 628 317 617 211 l 206 317 q 271 153 217 211 q 417 94 325 94 m 628 419 q 562 583 617 525 q 417 642 507 642 q 271 583 325 642 q 206 419 217 525 l 628 419 z "},"ӯ":{"ha":833,"x_min":75,"x_max":764,"o":"m 192 -106 l 276 -106 q 333 -94 314 -106 q 363 -56 351 -82 l 389 14 l 349 14 l 75 736 l 203 736 l 426 122 l 636 736 l 764 736 l 465 -93 q 403 -181 444 -153 q 288 -208 361 -208 l 192 -208 l 192 -106 m 233 968 l 606 968 l 606 868 l 233 868 l 233 968 z "},"Λ":{"ha":833,"x_min":36,"x_max":797,"o":"m 336 986 l 497 986 l 797 0 l 675 0 l 417 882 l 158 0 l 36 0 l 336 986 z "},"Ω":{"ha":833,"x_min":13,"x_max":821,"o":"m 15 117 l 199 117 q 65 281 117 172 q 13 506 13 390 q 64 766 13 651 q 207 944 115 881 q 417 1008 299 1008 q 626 944 535 1008 q 769 766 718 881 q 821 506 821 651 q 769 281 821 390 q 635 117 717 172 l 818 117 l 818 0 l 472 0 l 472 117 q 585 169 533 117 q 666 310 636 221 q 696 506 696 399 q 660 706 696 618 q 561 842 625 793 q 417 892 497 892 q 272 842 336 892 q 173 706 208 793 q 138 506 138 618 q 167 310 138 399 q 249 169 197 221 q 361 117 300 117 l 361 0 l 15 0 l 15 117 z "},"λ":{"ha":833,"x_min":82,"x_max":764,"o":"m 717 0 q 587 41 632 0 q 510 186 542 82 l 406 525 l 204 0 l 82 0 l 354 693 l 319 806 q 288 865 307 846 q 233 883 269 883 l 146 883 l 146 986 l 224 986 q 360 944 311 986 q 440 800 408 901 l 631 181 q 662 122 643 140 q 715 103 681 103 l 764 103 l 764 0 l 717 0 z "},"π":{"ha":833,"x_min":22,"x_max":808,"o":"m 763 0 q 602 53 654 0 q 550 203 550 107 l 550 633 l 288 633 l 288 0 l 171 0 l 171 633 l 22 633 l 22 736 l 808 736 l 808 633 l 667 633 l 667 203 q 691 129 667 156 q 761 103 715 103 l 806 103 l 806 0 l 763 0 z "},"ℇ":{"ha":833,"x_min":71,"x_max":781,"o":"m 426 -22 q 241 15 322 -22 q 115 119 160 53 q 71 271 71 186 q 124 435 71 368 q 279 533 176 503 q 104 751 104 586 q 145 885 104 826 q 259 976 186 943 q 426 1008 332 1008 q 608 971 518 1008 q 749 875 697 933 l 671 779 q 558 864 626 831 q 426 897 489 897 q 280 858 333 897 q 226 751 226 818 q 286 619 226 663 q 426 578 346 576 l 501 579 l 501 469 l 426 471 q 257 420 321 472 q 193 281 193 368 q 257 142 193 194 q 426 89 321 89 q 578 126 499 89 q 706 221 657 163 l 781 122 q 628 18 726 58 q 426 -22 529 -22 z "},"⓿":{"ha":833,"x_min":21,"x_max":814,"o":"m 417 206 q 263 283 319 206 q 207 493 207 361 q 263 705 207 626 q 417 783 319 783 q 570 705 514 783 q 626 493 626 626 q 570 283 626 361 q 417 206 514 206 m 417 288 q 509 342 476 288 q 542 493 542 396 q 529 601 542 556 l 349 313 q 417 288 376 288 m 292 493 q 304 389 292 433 l 485 676 q 417 701 458 701 q 324 647 357 701 q 292 493 292 593 m 418 -22 q 628 40 539 -22 q 766 219 718 103 q 814 493 814 336 q 766 767 814 650 q 628 946 718 883 q 418 1008 539 1008 q 208 946 297 1008 q 69 767 118 883 q 21 493 21 650 q 69 219 21 336 q 208 40 118 103 q 418 -22 297 -22 z "},"❶":{"ha":833,"x_min":21,"x_max":814,"o":"m 418 -22 q 628 40 539 -22 q 766 219 718 103 q 814 493 814 336 q 766 767 814 650 q 628 946 718 883 q 418 1008 539 1008 q 208 946 297 1008 q 69 767 118 883 q 21 493 21 650 q 69 219 21 336 q 208 40 118 103 q 418 -22 297 -22 m 386 579 l 249 578 l 249 639 l 282 639 q 374 671 342 639 q 406 763 406 703 l 471 763 l 471 224 l 386 224 l 386 579 z "},"❷":{"ha":833,"x_min":21,"x_max":814,"o":"m 418 -22 q 628 40 539 -22 q 766 219 718 103 q 814 493 814 336 q 766 767 814 650 q 628 946 718 883 q 418 1008 539 1008 q 208 946 297 1008 q 69 767 118 883 q 21 493 21 650 q 69 219 21 336 q 208 40 118 103 q 418 -22 297 -22 m 232 222 q 267 362 232 297 q 396 489 301 426 l 440 518 q 494 568 478 543 q 510 624 510 593 q 486 678 510 657 q 429 700 463 700 q 325 600 344 700 l 242 604 q 302 732 251 685 q 429 779 353 779 q 549 735 503 779 q 594 624 594 692 q 561 526 594 575 q 464 438 528 478 l 425 413 q 333 301 335 351 l 599 301 l 599 222 l 232 222 z "},"❸":{"ha":833,"x_min":21,"x_max":814,"o":"m 418 -22 q 628 40 539 -22 q 766 219 718 103 q 814 493 814 336 q 766 767 814 650 q 628 946 718 883 q 418 1008 539 1008 q 208 946 297 1008 q 69 767 118 883 q 21 493 21 650 q 69 219 21 336 q 208 40 118 103 q 418 -22 297 -22 m 418 206 q 283 251 339 206 q 222 361 226 296 l 307 365 q 342 308 310 332 q 418 285 375 285 q 490 311 461 285 q 519 375 519 338 q 488 444 519 415 q 411 474 457 474 l 376 474 l 376 553 l 411 553 q 475 576 449 553 q 501 626 501 599 q 476 682 501 658 q 417 706 451 706 q 355 688 381 706 q 326 646 329 671 l 242 651 q 301 747 250 708 q 417 785 351 785 q 538 743 489 785 q 586 640 586 701 q 562 565 586 600 q 494 518 538 531 q 575 461 543 503 q 607 369 607 419 q 552 253 607 301 q 418 206 497 206 z "},"❹":{"ha":833,"x_min":21,"x_max":814,"o":"m 418 -22 q 628 40 539 -22 q 766 219 718 103 q 814 493 814 336 q 766 767 814 650 q 628 946 718 883 q 418 1008 539 1008 q 208 946 297 1008 q 69 767 118 883 q 21 493 21 650 q 69 219 21 336 q 208 40 118 103 q 418 -22 297 -22 m 444 329 l 183 329 l 183 399 l 458 763 l 529 763 l 529 408 l 590 408 l 590 329 l 529 329 l 529 224 l 444 224 l 444 329 m 444 408 l 444 611 l 292 408 l 444 408 z "},"❺":{"ha":833,"x_min":21,"x_max":814,"o":"m 418 -22 q 628 40 539 -22 q 766 219 718 103 q 814 493 814 336 q 766 767 814 650 q 628 946 718 883 q 418 1008 539 1008 q 208 946 297 1008 q 69 767 118 883 q 21 493 21 650 q 69 219 21 336 q 208 40 118 103 q 418 -22 297 -22 m 417 201 q 288 244 340 201 q 229 356 235 288 l 317 360 q 353 303 324 325 q 419 281 382 281 q 490 313 461 281 q 518 393 518 344 q 490 474 518 440 q 419 507 461 507 q 367 495 390 507 q 322 450 343 483 l 239 450 l 282 764 l 568 764 l 568 685 l 356 685 l 338 543 q 381 574 358 564 q 432 583 403 583 q 556 528 507 583 q 606 393 606 474 q 553 255 606 308 q 417 201 500 201 z "},"❻":{"ha":833,"x_min":21,"x_max":814,"o":"m 418 -22 q 628 40 539 -22 q 766 219 718 103 q 814 493 814 336 q 766 767 814 650 q 628 946 718 883 q 418 1008 539 1008 q 208 946 297 1008 q 69 767 118 883 q 21 493 21 650 q 69 219 21 336 q 208 40 118 103 q 418 -22 297 -22 m 418 206 q 278 279 326 206 q 229 461 229 353 q 280 690 229 597 q 433 782 331 782 q 538 748 492 782 q 603 651 585 714 l 521 643 q 488 688 511 672 q 433 703 465 703 q 351 655 382 703 q 310 535 319 607 q 433 594 356 594 q 556 541 507 594 q 604 401 604 488 q 551 259 604 313 q 418 206 499 206 m 419 285 q 490 317 464 285 q 517 401 517 350 q 492 484 517 453 q 421 515 467 515 q 351 482 379 515 q 322 399 322 449 q 349 317 322 349 q 419 285 376 285 z "},"❼":{"ha":833,"x_min":21,"x_max":814,"o":"m 418 -22 q 628 40 539 -22 q 766 219 718 103 q 814 493 814 336 q 766 767 814 650 q 628 946 718 883 q 418 1008 539 1008 q 208 946 297 1008 q 69 767 118 883 q 21 493 21 650 q 69 219 21 336 q 208 40 118 103 q 418 -22 297 -22 m 344 224 q 388 464 344 347 q 510 683 431 581 l 231 683 l 231 763 l 614 763 l 614 701 q 429 224 429 464 l 344 224 z "},"❽":{"ha":833,"x_min":21,"x_max":814,"o":"m 418 -22 q 628 40 539 -22 q 766 219 718 103 q 814 493 814 336 q 766 767 814 650 q 628 946 718 883 q 418 1008 539 1008 q 208 946 297 1008 q 69 767 118 883 q 21 493 21 650 q 69 219 21 336 q 208 40 118 103 q 418 -22 297 -22 m 417 206 q 276 250 332 206 q 221 369 221 294 q 249 460 221 421 q 326 518 276 499 q 247 631 247 551 q 297 739 247 696 q 417 782 346 782 q 538 739 489 782 q 586 631 586 696 q 507 518 586 551 q 585 458 557 497 q 613 369 613 419 q 557 250 613 294 q 417 206 501 206 m 417 285 q 495 310 465 285 q 525 375 525 335 q 494 447 525 419 q 417 475 464 475 q 339 447 369 475 q 308 375 308 419 q 338 310 308 335 q 417 285 368 285 m 417 550 q 476 572 453 550 q 499 631 499 594 q 476 683 499 663 q 417 703 453 703 q 358 683 381 703 q 335 631 335 663 q 358 572 335 594 q 417 550 381 550 z "},"❾":{"ha":833,"x_min":21,"x_max":814,"o":"m 418 -22 q 628 40 539 -22 q 766 219 718 103 q 814 493 814 336 q 766 767 814 650 q 628 946 718 883 q 418 1008 539 1008 q 208 946 297 1008 q 69 767 118 883 q 21 493 21 650 q 69 219 21 336 q 208 40 118 103 q 418 -22 297 -22 m 404 206 q 299 240 346 206 q 235 336 253 274 l 317 344 q 349 300 326 315 q 404 285 372 285 q 487 330 454 285 q 529 454 519 375 q 476 409 508 425 q 404 393 444 393 q 282 447 331 393 q 233 586 233 500 q 286 728 233 675 q 419 782 339 782 q 560 708 511 782 q 608 526 608 635 q 553 292 608 379 q 404 206 499 206 m 417 472 q 487 506 458 472 q 515 589 515 539 q 488 671 515 639 q 418 703 460 703 q 347 670 374 703 q 321 586 321 638 q 346 503 321 535 q 417 472 371 472 z "},"⓪":{"ha":833,"x_min":21,"x_max":814,"o":"m 418 -22 q 208 40 297 -22 q 69 219 118 103 q 21 493 21 336 q 69 767 21 650 q 208 946 118 883 q 418 1008 297 1008 q 628 946 539 1008 q 766 767 718 883 q 814 493 814 650 q 766 219 814 336 q 628 40 718 103 q 418 -22 539 -22 m 418 81 q 574 131 508 81 q 676 274 640 181 q 713 493 713 367 q 676 713 713 619 q 574 856 640 806 q 418 907 507 907 q 261 856 328 907 q 159 713 194 806 q 124 493 124 619 q 159 274 124 367 q 261 131 194 181 q 418 81 328 81 m 417 206 q 263 283 319 206 q 207 493 207 361 q 263 705 207 626 q 417 783 319 783 q 570 705 514 783 q 626 493 626 626 q 570 283 626 361 q 417 206 514 206 m 417 288 q 509 342 476 288 q 542 493 542 396 q 529 601 542 556 l 349 313 q 417 288 376 288 m 292 493 q 304 389 292 433 l 485 676 q 417 701 458 701 q 324 647 357 701 q 292 493 292 593 z "},"①":{"ha":833,"x_min":21,"x_max":814,"o":"m 418 -22 q 208 40 297 -22 q 69 219 118 103 q 21 493 21 336 q 69 767 21 650 q 208 946 118 883 q 418 1008 297 1008 q 628 946 539 1008 q 766 767 718 883 q 814 493 814 650 q 766 219 814 336 q 628 40 718 103 q 418 -22 539 -22 m 418 81 q 574 131 508 81 q 676 274 640 181 q 713 493 713 367 q 676 713 713 619 q 574 856 640 806 q 418 907 507 907 q 261 856 328 907 q 159 713 194 806 q 124 493 124 619 q 159 274 124 367 q 261 131 194 181 q 418 81 328 81 m 386 579 l 249 578 l 249 639 l 282 639 q 374 671 342 639 q 406 763 406 703 l 471 763 l 471 224 l 386 224 l 386 579 z "},"②":{"ha":833,"x_min":21,"x_max":814,"o":"m 418 -22 q 208 40 297 -22 q 69 219 118 103 q 21 493 21 336 q 69 767 21 650 q 208 946 118 883 q 418 1008 297 1008 q 628 946 539 1008 q 766 767 718 883 q 814 493 814 650 q 766 219 814 336 q 628 40 718 103 q 418 -22 539 -22 m 418 81 q 574 131 508 81 q 676 274 640 181 q 713 493 713 367 q 676 713 713 619 q 574 856 640 806 q 418 907 507 907 q 261 856 328 907 q 159 713 194 806 q 124 493 124 619 q 159 274 124 367 q 261 131 194 181 q 418 81 328 81 m 232 222 q 267 362 232 297 q 396 489 301 426 l 440 518 q 494 568 478 543 q 510 624 510 593 q 486 678 510 657 q 429 700 463 700 q 325 600 344 700 l 242 604 q 302 732 251 685 q 429 779 353 779 q 549 735 503 779 q 594 624 594 692 q 561 526 594 575 q 464 438 528 478 l 425 413 q 333 301 335 351 l 599 301 l 599 222 l 232 222 z "},"③":{"ha":833,"x_min":21,"x_max":814,"o":"m 418 -22 q 208 40 297 -22 q 69 219 118 103 q 21 493 21 336 q 69 767 21 650 q 208 946 118 883 q 418 1008 297 1008 q 628 946 539 1008 q 766 767 718 883 q 814 493 814 650 q 766 219 814 336 q 628 40 718 103 q 418 -22 539 -22 m 418 81 q 574 131 508 81 q 676 274 640 181 q 713 493 713 367 q 676 713 713 619 q 574 856 640 806 q 418 907 507 907 q 261 856 328 907 q 159 713 194 806 q 124 493 124 619 q 159 274 124 367 q 261 131 194 181 q 418 81 328 81 m 418 206 q 283 251 339 206 q 222 361 226 296 l 307 365 q 342 308 310 332 q 418 285 375 285 q 490 311 461 285 q 519 375 519 338 q 488 444 519 415 q 411 474 457 474 l 376 474 l 376 553 l 411 553 q 475 576 449 553 q 501 626 501 599 q 476 682 501 658 q 417 706 451 706 q 355 688 381 706 q 326 646 329 671 l 242 651 q 301 747 250 708 q 417 785 351 785 q 538 743 489 785 q 586 640 586 701 q 562 565 586 600 q 494 518 538 531 q 575 461 543 503 q 607 369 607 419 q 552 253 607 301 q 418 206 497 206 z "},"④":{"ha":833,"x_min":21,"x_max":814,"o":"m 418 -22 q 208 40 297 -22 q 69 219 118 103 q 21 493 21 336 q 69 767 21 650 q 208 946 118 883 q 418 1008 297 1008 q 628 946 539 1008 q 766 767 718 883 q 814 493 814 650 q 766 219 814 336 q 628 40 718 103 q 418 -22 539 -22 m 418 81 q 574 131 508 81 q 676 274 640 181 q 713 493 713 367 q 676 713 713 619 q 574 856 640 806 q 418 907 507 907 q 261 856 328 907 q 159 713 194 806 q 124 493 124 619 q 159 274 124 367 q 261 131 194 181 q 418 81 328 81 m 444 329 l 183 329 l 183 399 l 458 763 l 529 763 l 529 408 l 590 408 l 590 329 l 529 329 l 529 224 l 444 224 l 444 329 m 444 408 l 444 611 l 292 408 l 444 408 z "},"⑤":{"ha":833,"x_min":21,"x_max":814,"o":"m 418 -22 q 208 40 297 -22 q 69 219 118 103 q 21 493 21 336 q 69 767 21 650 q 208 946 118 883 q 418 1008 297 1008 q 628 946 539 1008 q 766 767 718 883 q 814 493 814 650 q 766 219 814 336 q 628 40 718 103 q 418 -22 539 -22 m 418 81 q 574 131 508 81 q 676 274 640 181 q 713 493 713 367 q 676 713 713 619 q 574 856 640 806 q 418 907 507 907 q 261 856 328 907 q 159 713 194 806 q 124 493 124 619 q 159 274 124 367 q 261 131 194 181 q 418 81 328 81 m 417 201 q 288 244 340 201 q 229 356 235 288 l 317 360 q 353 303 324 325 q 419 281 382 281 q 490 313 461 281 q 518 393 518 344 q 490 474 518 440 q 419 507 461 507 q 367 495 390 507 q 322 450 343 483 l 239 450 l 282 764 l 568 764 l 568 685 l 356 685 l 338 543 q 381 574 358 564 q 432 583 403 583 q 556 528 507 583 q 606 393 606 474 q 553 255 606 308 q 417 201 500 201 z "},"⑥":{"ha":833,"x_min":21,"x_max":814,"o":"m 418 -22 q 208 40 297 -22 q 69 219 118 103 q 21 493 21 336 q 69 767 21 650 q 208 946 118 883 q 418 1008 297 1008 q 628 946 539 1008 q 766 767 718 883 q 814 493 814 650 q 766 219 814 336 q 628 40 718 103 q 418 -22 539 -22 m 418 81 q 574 131 508 81 q 676 274 640 181 q 713 493 713 367 q 676 713 713 619 q 574 856 640 806 q 418 907 507 907 q 261 856 328 907 q 159 713 194 806 q 124 493 124 619 q 159 274 124 367 q 261 131 194 181 q 418 81 328 81 m 418 206 q 278 279 326 206 q 229 461 229 353 q 280 690 229 597 q 433 782 331 782 q 538 748 492 782 q 603 651 585 714 l 521 643 q 488 688 511 672 q 433 703 465 703 q 351 655 382 703 q 310 535 319 607 q 433 594 356 594 q 556 541 507 594 q 604 401 604 488 q 551 259 604 313 q 418 206 499 206 m 419 285 q 490 317 464 285 q 517 401 517 350 q 492 484 517 453 q 421 515 467 515 q 351 482 379 515 q 322 399 322 449 q 349 317 322 349 q 419 285 376 285 z "},"⑦":{"ha":833,"x_min":21,"x_max":814,"o":"m 418 -22 q 208 40 297 -22 q 69 219 118 103 q 21 493 21 336 q 69 767 21 650 q 208 946 118 883 q 418 1008 297 1008 q 628 946 539 1008 q 766 767 718 883 q 814 493 814 650 q 766 219 814 336 q 628 40 718 103 q 418 -22 539 -22 m 418 81 q 574 131 508 81 q 676 274 640 181 q 713 493 713 367 q 676 713 713 619 q 574 856 640 806 q 418 907 507 907 q 261 856 328 907 q 159 713 194 806 q 124 493 124 619 q 159 274 124 367 q 261 131 194 181 q 418 81 328 81 m 344 224 q 388 464 344 347 q 510 683 431 581 l 231 683 l 231 763 l 614 763 l 614 701 q 429 224 429 464 l 344 224 z "},"⑧":{"ha":833,"x_min":21,"x_max":814,"o":"m 418 -22 q 208 40 297 -22 q 69 219 118 103 q 21 493 21 336 q 69 767 21 650 q 208 946 118 883 q 418 1008 297 1008 q 628 946 539 1008 q 766 767 718 883 q 814 493 814 650 q 766 219 814 336 q 628 40 718 103 q 418 -22 539 -22 m 418 81 q 574 131 508 81 q 676 274 640 181 q 713 493 713 367 q 676 713 713 619 q 574 856 640 806 q 418 907 507 907 q 261 856 328 907 q 159 713 194 806 q 124 493 124 619 q 159 274 124 367 q 261 131 194 181 q 418 81 328 81 m 417 206 q 276 250 332 206 q 221 369 221 294 q 249 460 221 421 q 326 518 276 499 q 247 631 247 551 q 297 739 247 696 q 417 782 346 782 q 538 739 489 782 q 586 631 586 696 q 507 518 586 551 q 585 458 557 497 q 613 369 613 419 q 557 250 613 294 q 417 206 501 206 m 417 285 q 495 310 465 285 q 525 375 525 335 q 494 447 525 419 q 417 475 464 475 q 339 447 369 475 q 308 375 308 419 q 338 310 308 335 q 417 285 368 285 m 417 550 q 476 572 453 550 q 499 631 499 594 q 476 683 499 663 q 417 703 453 703 q 358 683 381 703 q 335 631 335 663 q 358 572 335 594 q 417 550 381 550 z "},"⑨":{"ha":833,"x_min":21,"x_max":814,"o":"m 418 -22 q 208 40 297 -22 q 69 219 118 103 q 21 493 21 336 q 69 767 21 650 q 208 946 118 883 q 418 1008 297 1008 q 628 946 539 1008 q 766 767 718 883 q 814 493 814 650 q 766 219 814 336 q 628 40 718 103 q 418 -22 539 -22 m 418 81 q 574 131 508 81 q 676 274 640 181 q 713 493 713 367 q 676 713 713 619 q 574 856 640 806 q 418 907 507 907 q 261 856 328 907 q 159 713 194 806 q 124 493 124 619 q 159 274 124 367 q 261 131 194 181 q 418 81 328 81 m 404 206 q 299 240 346 206 q 235 336 253 274 l 317 344 q 349 300 326 315 q 404 285 372 285 q 487 330 454 285 q 529 454 519 375 q 476 409 508 425 q 404 393 444 393 q 282 447 331 393 q 233 586 233 500 q 286 728 233 675 q 419 782 339 782 q 560 708 511 782 q 608 526 608 635 q 553 292 608 379 q 404 206 499 206 m 417 472 q 487 506 458 472 q 515 589 515 539 q 488 671 515 639 q 418 703 460 703 q 347 670 374 703 q 321 586 321 638 q 346 503 321 535 q 417 472 371 472 z "},"⁄":{"ha":833,"x_min":18,"x_max":815,"o":"m 699 986 l 815 986 l 135 0 l 18 0 l 699 986 z "},"½":{"ha":833,"x_min":56,"x_max":793,"o":"m 664 986 l 772 986 l 579 631 l 471 631 l 664 986 m 249 354 l 357 354 l 164 0 l 56 0 l 249 354 m 426 0 q 461 140 426 75 q 590 267 496 204 l 635 296 q 688 346 672 321 q 704 401 704 371 q 681 456 704 435 q 624 478 657 478 q 519 378 539 478 l 436 382 q 497 510 446 463 q 624 557 547 557 q 743 513 697 557 q 789 401 789 469 q 756 304 789 353 q 658 215 722 256 l 619 190 q 528 79 529 129 l 793 79 l 793 0 l 426 0 m 210 804 l 72 803 l 72 864 l 106 864 q 197 896 165 864 q 229 988 229 928 l 294 988 l 294 449 l 210 449 l 210 804 z "},"⅓":{"ha":833,"x_min":56,"x_max":801,"o":"m 664 986 l 772 986 l 579 631 l 471 631 l 664 986 m 249 354 l 357 354 l 164 0 l 56 0 l 249 354 m 613 -22 q 477 23 533 -22 q 417 133 421 68 l 501 138 q 537 81 504 104 q 613 57 569 57 q 685 83 656 57 q 714 147 714 110 q 683 217 714 188 q 606 246 651 246 l 571 246 l 571 325 l 606 325 q 669 348 643 325 q 696 399 696 371 q 671 454 696 431 q 611 478 646 478 q 549 460 575 478 q 521 418 524 443 l 436 424 q 495 519 444 481 q 611 557 546 557 q 732 515 683 557 q 781 413 781 474 q 756 338 781 372 q 689 290 732 303 q 769 233 738 275 q 801 142 801 192 q 747 26 801 74 q 613 -22 692 -22 m 208 804 l 71 803 l 71 864 l 104 864 q 196 896 164 864 q 228 988 228 928 l 293 988 l 293 449 l 208 449 l 208 804 z "},"⅔":{"ha":833,"x_min":28,"x_max":807,"o":"m 664 986 l 772 986 l 579 631 l 471 631 l 664 986 m 249 354 l 357 354 l 164 0 l 56 0 l 249 354 m 618 -22 q 483 23 539 -22 q 422 133 426 68 l 507 138 q 542 81 510 104 q 618 57 575 57 q 690 83 661 57 q 719 147 719 110 q 688 217 719 188 q 611 246 657 246 l 576 246 l 576 325 l 611 325 q 675 348 649 325 q 701 399 701 371 q 676 454 701 431 q 617 478 651 478 q 555 460 581 478 q 526 418 529 443 l 442 424 q 501 519 450 481 q 617 557 551 557 q 738 515 689 557 q 786 413 786 474 q 762 338 786 372 q 694 290 738 303 q 775 233 743 275 q 807 142 807 192 q 752 26 807 74 q 618 -22 697 -22 m 28 451 q 63 591 28 526 q 192 718 97 656 l 236 747 q 290 797 274 772 q 306 853 306 822 q 282 908 306 886 q 225 929 258 929 q 121 829 140 929 l 38 833 q 98 961 47 914 q 225 1008 149 1008 q 344 965 299 1008 q 390 853 390 921 q 357 756 390 804 q 260 667 324 707 l 221 642 q 129 531 131 581 l 394 531 l 394 451 l 28 451 z "},"¼":{"ha":833,"x_min":56,"x_max":793,"o":"m 664 986 l 772 986 l 579 631 l 471 631 l 664 986 m 249 354 l 357 354 l 164 0 l 56 0 l 249 354 m 647 106 l 386 106 l 386 175 l 661 539 l 732 539 l 732 185 l 793 185 l 793 106 l 732 106 l 732 0 l 647 0 l 647 106 m 647 185 l 647 388 l 494 185 l 647 185 m 208 804 l 71 803 l 71 864 l 104 864 q 196 896 164 864 q 228 988 228 928 l 293 988 l 293 449 l 208 449 l 208 804 z "},"¾":{"ha":833,"x_min":24,"x_max":793,"o":"m 664 986 l 772 986 l 579 631 l 471 631 l 664 986 m 249 354 l 357 354 l 164 0 l 56 0 l 249 354 m 647 106 l 386 106 l 386 175 l 661 539 l 732 539 l 732 185 l 793 185 l 793 106 l 732 106 l 732 0 l 647 0 l 647 106 m 647 185 l 647 388 l 494 185 l 647 185 m 219 429 q 84 474 140 429 q 24 585 28 519 l 108 589 q 144 532 111 556 q 219 508 176 508 q 292 535 263 508 q 321 599 321 561 q 290 668 321 639 q 213 697 258 697 l 178 697 l 178 776 l 213 776 q 276 799 250 776 q 303 850 303 822 q 278 906 303 882 q 218 929 253 929 q 156 912 182 929 q 128 869 131 894 l 43 875 q 102 970 51 932 q 218 1008 153 1008 q 339 967 290 1008 q 388 864 388 925 q 363 789 388 824 q 296 742 339 754 q 376 685 344 726 q 408 593 408 643 q 353 477 408 525 q 219 429 299 429 z "},"⅕":{"ha":833,"x_min":56,"x_max":779,"o":"m 664 986 l 772 986 l 579 631 l 471 631 l 664 986 m 249 354 l 357 354 l 164 0 l 56 0 l 249 354 m 590 -22 q 461 21 514 -22 q 403 132 408 64 l 490 136 q 526 79 497 101 q 593 57 556 57 q 663 89 635 57 q 692 169 692 121 q 663 250 692 217 q 593 283 635 283 q 540 272 564 283 q 496 226 517 260 l 413 226 l 456 540 l 742 540 l 742 461 l 529 461 l 511 319 q 554 350 532 340 q 606 360 576 360 q 730 305 681 360 q 779 169 779 250 q 726 31 779 85 q 590 -22 674 -22 m 208 804 l 71 803 l 71 864 l 104 864 q 196 896 164 864 q 228 988 228 928 l 293 988 l 293 449 l 208 449 l 208 804 z "},"⅛":{"ha":833,"x_min":56,"x_max":793,"o":"m 664 986 l 772 986 l 579 631 l 471 631 l 664 986 m 249 354 l 357 354 l 164 0 l 56 0 l 249 354 m 597 -22 q 457 22 513 -22 q 401 142 401 67 q 429 232 401 193 q 507 290 457 271 q 428 403 428 324 q 477 511 428 468 q 597 554 526 554 q 718 511 669 554 q 767 403 767 468 q 688 290 767 324 q 765 231 738 269 q 793 142 793 192 q 738 22 793 67 q 597 -22 682 -22 m 597 57 q 676 82 646 57 q 706 147 706 107 q 675 219 706 192 q 597 247 644 247 q 519 219 550 247 q 489 147 489 192 q 519 82 489 107 q 597 57 549 57 m 597 322 q 656 344 633 322 q 679 403 679 367 q 656 455 679 435 q 597 475 633 475 q 538 455 561 475 q 515 403 515 435 q 538 344 515 367 q 597 322 561 322 m 208 804 l 71 803 l 71 864 l 104 864 q 196 896 164 864 q 228 988 228 928 l 293 988 l 293 449 l 208 449 l 208 804 z "},"⅜":{"ha":833,"x_min":28,"x_max":793,"o":"m 664 986 l 772 986 l 579 631 l 471 631 l 664 986 m 249 354 l 357 354 l 164 0 l 56 0 l 249 354 m 597 -22 q 457 22 513 -22 q 401 142 401 67 q 429 232 401 193 q 507 290 457 271 q 428 403 428 324 q 477 511 428 468 q 597 554 526 554 q 718 511 669 554 q 767 403 767 468 q 688 290 767 324 q 765 231 738 269 q 793 142 793 192 q 738 22 793 67 q 597 -22 682 -22 m 597 57 q 676 82 646 57 q 706 147 706 107 q 675 219 706 192 q 597 247 644 247 q 519 219 550 247 q 489 147 489 192 q 519 82 489 107 q 597 57 549 57 m 597 322 q 656 344 633 322 q 679 403 679 367 q 656 455 679 435 q 597 475 633 475 q 538 455 561 475 q 515 403 515 435 q 538 344 515 367 q 597 322 561 322 m 215 425 q 86 468 139 425 q 28 579 33 511 l 115 583 q 151 526 122 549 q 218 504 181 504 q 288 536 260 504 q 317 617 317 568 q 288 697 317 664 q 218 731 260 731 q 165 719 189 731 q 121 674 142 707 l 38 674 l 81 988 l 367 988 l 367 908 l 154 908 l 136 767 q 179 797 157 788 q 231 807 201 807 q 355 752 306 807 q 404 617 404 697 q 351 478 404 532 q 215 425 299 425 z "},"⅝":{"ha":833,"x_min":24,"x_max":793,"o":"m 664 986 l 772 986 l 579 631 l 471 631 l 664 986 m 249 354 l 357 354 l 164 0 l 56 0 l 249 354 m 597 -22 q 457 22 513 -22 q 401 142 401 67 q 429 232 401 193 q 507 290 457 271 q 428 403 428 324 q 477 511 428 468 q 597 554 526 554 q 718 511 669 554 q 767 403 767 468 q 688 290 767 324 q 765 231 738 269 q 793 142 793 192 q 738 22 793 67 q 597 -22 682 -22 m 597 57 q 676 82 646 57 q 706 147 706 107 q 675 219 706 192 q 597 247 644 247 q 519 219 550 247 q 489 147 489 192 q 519 82 489 107 q 597 57 549 57 m 597 322 q 656 344 633 322 q 679 403 679 367 q 656 455 679 435 q 597 475 633 475 q 538 455 561 475 q 515 403 515 435 q 538 344 515 367 q 597 322 561 322 m 219 429 q 84 474 140 429 q 24 585 28 519 l 108 589 q 144 532 111 556 q 219 508 176 508 q 292 535 263 508 q 321 599 321 561 q 290 668 321 639 q 213 697 258 697 l 178 697 l 178 776 l 213 776 q 276 799 250 776 q 303 850 303 822 q 278 906 303 882 q 218 929 253 929 q 156 912 182 929 q 128 869 131 894 l 43 875 q 102 970 51 932 q 218 1008 153 1008 q 339 967 290 1008 q 388 864 388 925 q 363 789 388 824 q 296 742 339 754 q 376 685 344 726 q 408 593 408 643 q 353 477 408 525 q 219 429 299 429 z "},"⅞":{"ha":833,"x_min":56,"x_max":793,"o":"m 664 986 l 772 986 l 579 631 l 471 631 l 664 986 m 249 354 l 357 354 l 164 0 l 56 0 l 249 354 m 597 -22 q 457 22 513 -22 q 401 142 401 67 q 429 232 401 193 q 507 290 457 271 q 428 403 428 324 q 477 511 428 468 q 597 554 526 554 q 718 511 669 554 q 767 403 767 468 q 688 290 767 324 q 765 231 738 269 q 793 142 793 192 q 738 22 793 67 q 597 -22 682 -22 m 597 57 q 676 82 646 57 q 706 147 706 107 q 675 219 706 192 q 597 247 644 247 q 519 219 550 247 q 489 147 489 192 q 519 82 489 107 q 597 57 549 57 m 597 322 q 656 344 633 322 q 679 403 679 367 q 656 455 679 435 q 597 475 633 475 q 538 455 561 475 q 515 403 515 435 q 538 344 515 367 q 597 322 561 322 m 192 447 q 235 688 192 571 q 357 907 278 804 l 78 907 l 78 986 l 461 986 l 461 925 q 276 447 276 688 l 192 447 z "},"₀":{"ha":833,"x_min":207,"x_max":626,"o":"m 417 -21 q 263 57 319 -21 q 207 267 207 135 q 263 478 207 400 q 417 557 319 557 q 570 478 514 557 q 626 267 626 400 q 570 57 626 135 q 417 -21 514 -21 m 417 61 q 509 115 476 61 q 542 267 542 169 q 529 375 542 329 l 349 86 q 417 61 376 61 m 292 267 q 304 163 292 207 l 485 450 q 417 475 458 475 q 324 421 357 475 q 292 267 292 367 z "},"₁":{"ha":833,"x_min":249,"x_max":471,"o":"m 386 356 l 249 354 l 249 415 l 282 415 q 374 447 342 415 q 406 539 406 479 l 471 539 l 471 0 l 386 0 l 386 356 z "},"₂":{"ha":833,"x_min":222,"x_max":589,"o":"m 222 0 q 257 140 222 75 q 386 267 292 204 l 431 296 q 484 346 468 321 q 500 401 500 371 q 476 456 500 435 q 419 478 453 478 q 315 378 335 478 l 232 382 q 292 510 242 463 q 419 557 343 557 q 539 513 493 557 q 585 401 585 469 q 551 304 585 353 q 454 215 518 256 l 415 190 q 324 79 325 129 l 589 79 l 589 0 l 222 0 z "},"₃":{"ha":833,"x_min":222,"x_max":607,"o":"m 418 -22 q 283 23 339 -22 q 222 133 226 68 l 307 138 q 342 81 310 104 q 418 57 375 57 q 490 83 461 57 q 519 147 519 110 q 488 217 519 188 q 411 246 457 246 l 376 246 l 376 325 l 411 325 q 475 348 449 325 q 501 399 501 371 q 476 454 501 431 q 417 478 451 478 q 355 460 381 478 q 326 418 329 443 l 242 424 q 301 519 250 481 q 417 557 351 557 q 538 515 489 557 q 586 413 586 474 q 562 338 586 372 q 494 290 538 303 q 575 233 543 275 q 607 142 607 192 q 552 26 607 74 q 418 -22 497 -22 z "},"₄":{"ha":833,"x_min":183,"x_max":590,"o":"m 444 106 l 183 106 l 183 175 l 458 539 l 529 539 l 529 185 l 590 185 l 590 106 l 529 106 l 529 0 l 444 0 l 444 106 m 444 185 l 444 388 l 292 185 l 444 185 z "},"₅":{"ha":833,"x_min":229,"x_max":606,"o":"m 417 -22 q 288 21 340 -22 q 229 132 235 64 l 317 136 q 353 79 324 101 q 419 57 382 57 q 490 89 461 57 q 518 169 518 121 q 490 250 518 217 q 419 283 461 283 q 367 272 390 283 q 322 226 343 260 l 239 226 l 282 540 l 568 540 l 568 461 l 356 461 l 338 319 q 381 350 358 340 q 432 360 403 360 q 556 305 507 360 q 606 169 606 250 q 553 31 606 85 q 417 -22 500 -22 z "},"₆":{"ha":833,"x_min":229,"x_max":604,"o":"m 418 -22 q 278 51 326 -22 q 229 233 229 125 q 280 462 229 369 q 433 554 331 554 q 538 520 492 554 q 603 424 585 486 l 521 415 q 488 460 511 444 q 433 475 465 475 q 351 427 382 475 q 310 307 319 379 q 433 367 356 367 q 556 313 507 367 q 604 174 604 260 q 551 31 604 85 q 418 -22 499 -22 m 419 57 q 490 90 464 57 q 517 174 517 122 q 492 256 517 225 q 421 288 467 288 q 351 254 379 288 q 322 171 322 221 q 349 89 322 121 q 419 57 376 57 z "},"₇":{"ha":833,"x_min":231,"x_max":614,"o":"m 344 -1 q 388 239 344 122 q 510 458 431 356 l 231 458 l 231 538 l 614 538 l 614 476 q 429 -1 429 239 l 344 -1 z "},"₈":{"ha":833,"x_min":221,"x_max":613,"o":"m 417 -22 q 276 22 332 -22 q 221 142 221 67 q 249 232 221 193 q 326 290 276 271 q 247 403 247 324 q 297 511 247 468 q 417 554 346 554 q 538 511 489 554 q 586 403 586 468 q 507 290 586 324 q 585 231 557 269 q 613 142 613 192 q 557 22 613 67 q 417 -22 501 -22 m 417 57 q 495 82 465 57 q 525 147 525 107 q 494 219 525 192 q 417 247 464 247 q 339 219 369 247 q 308 147 308 192 q 338 82 308 107 q 417 57 368 57 m 417 322 q 476 344 453 322 q 499 403 499 367 q 476 455 499 435 q 417 475 453 475 q 358 455 381 475 q 335 403 335 435 q 358 344 335 367 q 417 322 381 322 z "},"₉":{"ha":833,"x_min":233,"x_max":608,"o":"m 404 -22 q 299 12 346 -22 q 235 108 253 46 l 317 117 q 349 72 326 88 q 404 57 372 57 q 487 102 454 57 q 529 226 519 147 q 476 181 508 197 q 404 165 444 165 q 282 219 331 165 q 233 358 233 272 q 286 501 233 447 q 419 554 339 554 q 560 481 511 554 q 608 299 608 407 q 553 65 608 151 q 404 -22 499 -22 m 417 244 q 487 278 458 244 q 515 361 515 311 q 488 443 515 411 q 418 475 460 475 q 347 442 374 475 q 321 358 321 410 q 346 276 321 307 q 417 244 371 244 z "},"⁰":{"ha":833,"x_min":207,"x_max":626,"o":"m 417 431 q 263 508 319 431 q 207 718 207 586 q 263 930 207 851 q 417 1008 319 1008 q 570 930 514 1008 q 626 718 626 851 q 570 508 626 586 q 417 431 514 431 m 417 513 q 509 567 476 513 q 542 718 542 621 q 529 826 542 781 l 349 538 q 417 513 376 513 m 292 718 q 304 614 292 658 l 485 901 q 417 926 458 926 q 324 872 357 926 q 292 718 292 818 z "},"¹":{"ha":833,"x_min":249,"x_max":471,"o":"m 386 804 l 249 803 l 249 864 l 282 864 q 374 896 342 864 q 406 988 406 928 l 471 988 l 471 449 l 386 449 l 386 804 z "},"²":{"ha":833,"x_min":222,"x_max":589,"o":"m 222 451 q 257 591 222 526 q 386 718 292 656 l 431 747 q 484 797 468 772 q 500 853 500 822 q 476 908 500 886 q 419 929 453 929 q 315 829 335 929 l 232 833 q 292 961 242 914 q 419 1008 343 1008 q 539 965 493 1008 q 585 853 585 921 q 551 756 585 804 q 454 667 518 707 l 415 642 q 324 531 325 581 l 589 531 l 589 451 l 222 451 z "},"³":{"ha":833,"x_min":222,"x_max":607,"o":"m 418 429 q 283 474 339 429 q 222 585 226 519 l 307 589 q 342 532 310 556 q 418 508 375 508 q 490 535 461 508 q 519 599 519 561 q 488 668 519 639 q 411 697 457 697 l 376 697 l 376 776 l 411 776 q 475 799 449 776 q 501 850 501 822 q 476 906 501 882 q 417 929 451 929 q 355 912 381 929 q 326 869 329 894 l 242 875 q 301 970 250 932 q 417 1008 351 1008 q 538 967 489 1008 q 586 864 586 925 q 562 789 586 824 q 494 742 538 754 q 575 685 543 726 q 607 593 607 643 q 552 477 607 525 q 418 429 497 429 z "},"⁴":{"ha":833,"x_min":183,"x_max":590,"o":"m 444 554 l 183 554 l 183 624 l 458 988 l 529 988 l 529 633 l 590 633 l 590 554 l 529 554 l 529 449 l 444 449 l 444 554 m 444 633 l 444 836 l 292 633 l 444 633 z "},"⁵":{"ha":833,"x_min":229,"x_max":606,"o":"m 417 425 q 288 468 340 425 q 229 579 235 511 l 317 583 q 353 526 324 549 q 419 504 382 504 q 490 536 461 504 q 518 617 518 568 q 490 697 518 664 q 419 731 461 731 q 367 719 390 731 q 322 674 343 707 l 239 674 l 282 988 l 568 988 l 568 908 l 356 908 l 338 767 q 381 797 358 788 q 432 807 403 807 q 556 752 507 807 q 606 617 606 697 q 553 478 606 532 q 417 425 500 425 z "},"⁶":{"ha":833,"x_min":229,"x_max":604,"o":"m 418 432 q 278 506 326 432 q 229 688 229 579 q 280 916 229 824 q 433 1008 331 1008 q 538 974 492 1008 q 603 878 585 940 l 521 869 q 488 914 511 899 q 433 929 465 929 q 351 881 382 929 q 310 761 319 833 q 433 821 356 821 q 556 767 507 821 q 604 628 604 714 q 551 485 604 539 q 418 432 499 432 m 419 511 q 490 544 464 511 q 517 628 517 576 q 492 710 517 679 q 421 742 467 742 q 351 708 379 742 q 322 625 322 675 q 349 543 322 575 q 419 511 376 511 z "},"⁷":{"ha":833,"x_min":231,"x_max":614,"o":"m 344 447 q 388 688 344 571 q 510 907 431 804 l 231 907 l 231 986 l 614 986 l 614 925 q 429 447 429 688 l 344 447 z "},"⁸":{"ha":833,"x_min":221,"x_max":613,"o":"m 417 432 q 276 476 332 432 q 221 596 221 521 q 249 686 221 647 q 326 744 276 725 q 247 857 247 778 q 297 965 247 922 q 417 1008 346 1008 q 538 965 489 1008 q 586 857 586 922 q 507 744 586 778 q 585 685 557 724 q 613 596 613 646 q 557 476 613 521 q 417 432 501 432 m 417 511 q 495 536 465 511 q 525 601 525 561 q 494 674 525 646 q 417 701 464 701 q 339 674 369 701 q 308 601 308 646 q 338 536 308 561 q 417 511 368 511 m 417 776 q 476 799 453 776 q 499 857 499 821 q 476 909 499 889 q 417 929 453 929 q 358 909 381 929 q 335 857 335 889 q 358 799 335 821 q 417 776 381 776 z "},"⁹":{"ha":833,"x_min":233,"x_max":608,"o":"m 404 432 q 299 466 346 432 q 235 563 253 500 l 317 571 q 349 526 326 542 q 404 511 372 511 q 487 556 454 511 q 529 681 519 601 q 476 635 508 651 q 404 619 444 619 q 282 673 331 619 q 233 813 233 726 q 286 955 233 901 q 419 1008 339 1008 q 560 935 511 1008 q 608 753 608 861 q 553 519 608 606 q 404 432 499 432 m 417 699 q 487 732 458 699 q 515 815 515 765 q 488 897 515 865 q 418 929 460 929 q 347 897 374 929 q 321 813 321 864 q 346 730 321 761 q 417 699 371 699 z "}," ":{"ha":833,"x_min":0,"x_max":0,"o":""},".":{"ha":833,"x_min":333,"x_max":500,"o":"m 333 167 l 500 167 l 500 0 l 333 0 l 333 167 z "},",":{"ha":833,"x_min":333,"x_max":500,"o":"m 408 0 l 333 0 l 333 167 l 500 167 l 500 19 l 413 -217 l 343 -217 l 408 0 z "},":":{"ha":833,"x_min":333,"x_max":500,"o":"m 333 167 l 500 167 l 500 0 l 333 0 l 333 167 m 333 703 l 500 703 l 500 536 l 333 536 l 333 703 z "},";":{"ha":833,"x_min":333,"x_max":500,"o":"m 333 703 l 500 703 l 500 536 l 333 536 l 333 703 m 408 0 l 333 0 l 333 167 l 500 167 l 500 19 l 413 -217 l 343 -217 l 408 0 z "},"…":{"ha":833,"x_min":76,"x_max":757,"o":"m 76 167 l 243 167 l 243 0 l 76 0 l 76 167 m 332 167 l 499 167 l 499 0 l 332 0 l 332 167 m 590 167 l 757 167 l 757 0 l 590 0 l 590 167 z "},"!":{"ha":833,"x_min":333,"x_max":500,"o":"m 333 167 l 500 167 l 500 0 l 333 0 l 333 167 m 379 290 q 357 667 357 550 l 357 986 l 476 986 l 476 667 q 456 290 476 533 l 379 290 z "},"¡":{"ha":833,"x_min":333,"x_max":500,"o":"m 500 761 l 500 594 l 333 594 l 333 761 l 500 761 m 456 471 q 476 94 476 228 l 476 -225 l 357 -225 l 357 94 q 379 471 357 211 l 456 471 z "},"?":{"ha":833,"x_min":93,"x_max":740,"o":"m 329 167 l 496 167 l 496 0 l 329 0 l 329 167 m 353 279 q 384 437 353 378 q 488 542 415 496 q 569 601 543 575 q 606 653 596 626 q 615 725 615 681 q 567 845 615 799 q 438 892 519 892 q 218 686 239 892 l 93 694 q 197 922 106 835 q 438 1008 289 1008 q 595 972 526 1008 q 702 872 664 936 q 740 725 740 807 q 701 585 740 640 q 568 469 663 531 q 492 393 513 433 q 472 279 472 353 l 353 279 z "},"¿":{"ha":833,"x_min":93,"x_max":740,"o":"m 504 617 l 338 617 l 338 783 l 504 783 l 504 617 m 481 504 q 449 347 481 406 q 346 242 418 288 q 264 183 290 208 q 228 130 238 157 q 218 58 218 103 q 266 -62 218 -15 q 396 -108 314 -108 q 615 97 594 -108 l 740 89 q 636 -138 728 -51 q 396 -225 544 -225 q 238 -189 307 -225 q 131 -88 169 -153 q 93 58 93 -24 q 132 198 93 143 q 265 314 171 253 q 341 390 321 350 q 361 504 361 431 l 481 504 z "},"·":{"ha":833,"x_min":333,"x_max":500,"o":"m 333 504 l 500 504 l 500 338 l 333 338 l 333 504 z "},"•":{"ha":833,"x_min":271,"x_max":563,"o":"m 417 276 q 314 319 357 276 q 271 421 271 361 q 314 524 271 482 q 417 567 357 567 q 520 524 478 567 q 563 421 563 482 q 519 319 563 361 q 417 276 476 276 z "},"*":{"ha":833,"x_min":181,"x_max":653,"o":"m 253 578 l 346 719 l 181 719 l 181 808 l 346 808 l 253 950 l 325 997 l 417 849 l 510 997 l 582 950 l 488 808 l 653 808 l 653 719 l 488 719 l 582 578 l 510 531 l 417 678 l 325 531 l 253 578 z "},"〃":{"ha":833,"x_min":224,"x_max":610,"o":"m 481 668 l 610 668 l 485 390 l 394 390 l 481 668 m 311 668 l 439 668 l 314 390 l 224 390 l 311 668 z "},"#":{"ha":833,"x_min":75,"x_max":758,"o":"m 464 274 l 290 274 l 239 0 l 139 0 l 190 274 l 75 274 l 92 371 l 208 371 l 253 611 l 131 611 l 147 708 l 271 708 l 322 986 l 422 986 l 371 708 l 544 708 l 596 986 l 696 986 l 644 708 l 758 708 l 742 611 l 626 611 l 582 371 l 703 371 l 686 274 l 564 274 l 513 0 l 413 0 l 464 274 m 482 371 l 526 611 l 353 611 l 308 371 l 482 371 z "},"/":{"ha":833,"x_min":150,"x_max":683,"o":"m 572 1042 l 683 1042 l 261 -153 l 150 -153 l 572 1042 z "},"\\":{"ha":833,"x_min":150,"x_max":683,"o":"m 572 -153 l 150 1042 l 261 1042 l 683 -153 l 572 -153 z "},"-":{"ha":833,"x_min":208,"x_max":625,"o":"m 208 458 l 625 458 l 625 350 l 208 350 l 208 458 z "},"–":{"ha":833,"x_min":139,"x_max":694,"o":"m 139 460 l 694 460 l 694 351 l 139 351 l 139 460 z "},"—":{"ha":833,"x_min":56,"x_max":778,"o":"m 56 460 l 778 460 l 778 351 l 56 351 l 56 460 z "},"_":{"ha":833,"x_min":111,"x_max":722,"o":"m 111 0 l 722 0 l 722 -108 l 111 -108 l 111 0 z "},"〜":{"ha":833,"x_min":8,"x_max":825,"o":"m 586 343 q 417 403 511 343 q 247 467 314 467 q 89 353 167 467 l 8 433 q 113 543 49 503 q 247 583 178 583 q 417 524 322 583 q 586 460 519 460 q 744 574 665 460 l 825 493 q 722 383 786 424 q 586 343 657 343 z "},"(":{"ha":833,"x_min":263,"x_max":624,"o":"m 524 -125 q 328 159 394 6 q 263 472 263 313 q 328 785 263 632 q 524 1069 394 939 l 624 1069 q 446 781 506 933 q 386 472 386 629 q 446 163 386 315 q 624 -125 506 11 l 524 -125 z "},")":{"ha":833,"x_min":210,"x_max":571,"o":"m 210 -125 q 388 163 328 11 q 447 472 447 315 q 388 781 447 629 q 210 1069 328 933 l 310 1069 q 505 786 439 939 q 571 472 571 633 q 505 159 571 313 q 310 -125 439 6 l 210 -125 z "},"{":{"ha":833,"x_min":132,"x_max":686,"o":"m 608 -132 q 479 -101 536 -132 q 391 -17 422 -71 q 360 107 360 38 l 360 222 q 307 368 360 324 q 132 411 254 413 l 132 526 q 307 569 254 525 q 360 715 360 614 l 360 831 q 391 954 360 900 q 479 1039 422 1008 q 608 1069 536 1069 l 686 1069 l 686 961 q 519 936 567 965 q 471 833 471 907 l 471 706 q 424 549 471 613 q 301 471 376 486 l 301 469 q 424 390 378 454 q 471 232 471 326 l 471 104 q 519 3 471 32 q 686 -24 567 -26 l 686 -132 l 608 -132 z "},"}":{"ha":833,"x_min":147,"x_max":701,"o":"m 147 -132 l 147 -24 q 315 3 267 -26 q 363 104 363 32 l 363 232 q 409 390 363 326 q 532 469 456 454 l 532 471 q 410 549 457 486 q 363 706 363 613 l 363 833 q 315 936 363 907 q 147 961 267 965 l 147 1069 l 225 1069 q 354 1039 297 1069 q 442 954 411 1008 q 474 831 474 900 l 474 715 q 526 569 474 614 q 701 526 579 525 l 701 411 q 526 368 579 413 q 474 222 474 324 l 474 107 q 442 -17 474 38 q 354 -101 411 -71 q 225 -132 297 -132 l 147 -132 z "},"[":{"ha":833,"x_min":235,"x_max":636,"o":"m 235 -125 l 235 1069 l 636 1069 l 636 961 l 346 961 l 346 -17 l 636 -17 l 636 -125 l 235 -125 z "},"]":{"ha":833,"x_min":197,"x_max":599,"o":"m 197 -17 l 488 -17 l 488 961 l 197 961 l 197 1069 l 599 1069 l 599 -125 l 197 -125 l 197 -17 z "},"〈":{"ha":833,"x_min":238,"x_max":603,"o":"m 238 492 l 492 1140 l 603 1140 l 349 492 l 603 -158 l 492 -158 l 238 492 z "},"〉":{"ha":833,"x_min":231,"x_max":596,"o":"m 231 -158 l 485 492 l 231 1140 l 342 1140 l 596 492 l 342 -158 l 231 -158 z "},"【":{"ha":833,"x_min":257,"x_max":638,"o":"m 257 -87 l 257 1146 l 638 1146 q 450 529 450 849 q 638 -87 450 213 l 257 -87 z "},"】":{"ha":833,"x_min":196,"x_max":576,"o":"m 196 -87 q 383 529 383 213 q 196 1146 383 849 l 576 1146 l 576 -87 l 196 -87 z "},"「":{"ha":833,"x_min":236,"x_max":657,"o":"m 236 1147 l 657 1147 l 657 1039 l 349 1039 l 349 326 l 236 326 l 236 1147 z "},"」":{"ha":833,"x_min":176,"x_max":597,"o":"m 597 -143 l 176 -143 l 176 -35 l 485 -35 l 485 678 l 597 678 l 597 -143 z "},"《":{"ha":833,"x_min":117,"x_max":714,"o":"m 117 492 l 371 1140 l 482 1140 l 228 492 l 482 -158 l 371 -158 l 117 492 m 349 492 l 603 1140 l 714 1140 l 460 492 l 714 -158 l 603 -158 l 349 492 z "},"》":{"ha":833,"x_min":119,"x_max":717,"o":"m 351 -158 l 606 492 l 351 1140 l 463 1140 l 717 492 l 463 -158 l 351 -158 m 119 -158 l 374 492 l 119 1140 l 231 1140 l 485 492 l 231 -158 l 119 -158 z "},"〔":{"ha":833,"x_min":244,"x_max":665,"o":"m 244 111 l 244 871 l 590 1181 l 663 1101 l 356 826 l 356 156 l 665 -124 l 593 -203 l 244 111 z "},"〕":{"ha":833,"x_min":168,"x_max":589,"o":"m 168 -124 l 478 156 l 478 826 l 171 1101 l 243 1181 l 589 871 l 589 111 l 240 -203 l 168 -124 z "},"『":{"ha":833,"x_min":236,"x_max":657,"o":"m 236 1147 l 657 1147 l 657 925 l 458 925 l 458 324 l 236 324 l 236 1147 m 404 379 l 404 981 l 603 981 l 603 1092 l 292 1092 l 292 379 l 404 379 z "},"』":{"ha":833,"x_min":176,"x_max":597,"o":"m 597 -143 l 176 -143 l 176 79 l 375 79 l 375 681 l 597 681 l 597 -143 m 429 625 l 429 24 l 231 24 l 231 -87 l 542 -87 l 542 625 l 429 625 z "},"〖":{"ha":833,"x_min":257,"x_max":625,"o":"m 257 -87 l 257 1146 l 625 1146 q 438 529 438 849 q 625 -87 438 213 l 257 -87 m 528 -32 q 383 529 383 250 q 528 1090 383 810 l 313 1090 l 313 -32 l 528 -32 z "},"〗":{"ha":833,"x_min":208,"x_max":576,"o":"m 208 -87 q 396 529 396 213 q 208 1146 396 849 l 576 1146 l 576 -87 l 208 -87 m 521 -32 l 521 1090 l 306 1090 q 450 529 450 814 q 306 -32 450 247 l 521 -32 z "},"‚":{"ha":833,"x_min":342,"x_max":508,"o":"m 417 0 l 342 0 l 342 167 l 508 167 l 508 19 l 421 -217 l 351 -217 l 417 0 z "},"„":{"ha":833,"x_min":219,"x_max":617,"o":"m 294 0 l 219 0 l 219 167 l 386 167 l 386 19 l 299 -217 l 229 -217 l 294 0 m 525 0 l 450 0 l 450 167 l 617 167 l 617 19 l 529 -217 l 460 -217 l 525 0 z "},"“":{"ha":833,"x_min":217,"x_max":614,"o":"m 539 763 l 614 763 l 614 596 l 447 596 l 447 743 l 535 979 l 604 979 l 539 763 m 308 763 l 383 763 l 383 596 l 217 596 l 217 743 l 304 979 l 374 979 l 308 763 z "},"”":{"ha":833,"x_min":219,"x_max":617,"o":"m 294 826 l 219 826 l 219 993 l 386 993 l 386 846 l 299 610 l 229 610 l 294 826 m 525 826 l 450 826 l 450 993 l 617 993 l 617 846 l 529 610 l 460 610 l 525 826 z "},"‘":{"ha":833,"x_min":324,"x_max":490,"o":"m 415 763 l 490 763 l 490 596 l 324 596 l 324 743 l 411 979 l 481 979 l 415 763 z "},"’":{"ha":833,"x_min":342,"x_max":508,"o":"m 417 826 l 342 826 l 342 993 l 508 993 l 508 846 l 421 610 l 351 610 l 417 826 z "},"«":{"ha":833,"x_min":110,"x_max":724,"o":"m 300 106 l 110 332 l 110 435 l 300 661 l 443 661 l 207 383 l 443 106 l 300 106 m 581 106 l 390 332 l 390 435 l 581 661 l 724 661 l 488 383 l 724 106 l 581 106 z "},"»":{"ha":833,"x_min":110,"x_max":724,"o":"m 626 383 l 390 661 l 533 661 l 724 435 l 724 332 l 533 106 l 390 106 l 626 383 m 346 383 l 110 661 l 253 661 l 443 435 l 443 332 l 253 106 l 110 106 l 346 383 z "},"‹":{"ha":833,"x_min":276,"x_max":610,"o":"m 467 106 l 276 332 l 276 435 l 467 661 l 610 661 l 374 383 l 610 106 l 467 106 z "},"›":{"ha":833,"x_min":224,"x_max":557,"o":"m 460 383 l 224 661 l 367 661 l 557 435 l 557 332 l 367 106 l 224 106 l 460 383 z "},"\"":{"ha":833,"x_min":238,"x_max":596,"o":"m 474 986 l 596 986 l 596 875 l 564 532 l 479 532 l 474 986 m 238 875 l 238 986 l 360 986 l 354 532 l 269 532 l 238 875 z "},"'":{"ha":833,"x_min":356,"x_max":478,"o":"m 356 881 l 356 986 l 478 986 l 478 881 l 458 532 l 375 532 l 356 881 z "},"ƒ":{"ha":833,"x_min":69,"x_max":725,"o":"m 69 0 l 69 103 l 215 103 q 275 122 253 103 q 301 179 297 142 l 351 633 l 172 633 l 172 736 l 363 736 l 369 800 q 578 986 390 986 l 725 986 l 725 883 l 568 883 q 508 863 531 883 q 482 806 486 843 l 474 736 l 725 736 l 725 633 l 463 633 l 413 185 q 204 -1 392 -3 l 69 0 z "},"฿":{"ha":833,"x_min":125,"x_max":772,"o":"m 342 0 l 125 0 l 125 986 l 342 986 l 342 1118 l 446 1118 l 446 985 q 658 905 586 975 q 731 717 731 835 q 682 580 731 636 q 554 508 633 524 q 715 433 657 494 q 772 275 772 371 q 685 75 772 149 q 446 0 597 1 l 446 -126 l 342 -126 l 342 0 m 342 114 l 342 444 l 244 444 l 244 114 l 342 114 m 342 558 l 342 872 l 244 872 l 244 558 l 342 558 m 446 114 q 596 158 544 115 q 647 275 647 200 q 596 399 647 354 q 446 444 544 443 l 446 114 m 446 560 q 606 714 606 574 q 446 871 606 857 l 446 560 z "},"":{"ha":833,"x_min":11,"x_max":822,"o":"m 146 0 q 49 38 88 0 q 11 135 11 76 l 11 676 q 49 773 11 735 q 146 811 88 811 l 688 811 q 784 773 746 811 q 822 676 822 735 l 822 135 q 784 38 822 76 q 688 0 746 0 l 146 0 m 713 172 l 415 688 l 119 172 l 713 172 z "},"@":{"ha":833,"x_min":31,"x_max":803,"o":"m 599 -40 q 381 -97 489 -97 q 203 -40 282 -97 q 77 125 124 17 q 31 382 31 233 q 80 673 31 535 q 228 899 129 811 q 467 986 326 986 q 642 923 565 986 q 760 747 718 860 q 803 489 803 633 q 778 299 803 385 q 708 163 753 213 q 610 114 664 114 q 537 143 568 114 q 492 228 506 172 q 433 143 471 174 q 349 113 396 113 q 236 176 279 113 q 193 342 193 239 q 217 500 193 418 q 290 638 242 582 q 407 693 339 693 q 469 676 442 693 q 507 631 496 660 l 511 681 l 613 681 l 588 361 l 585 301 q 624 203 585 203 q 680 276 658 203 q 701 482 701 350 q 672 692 701 600 q 588 834 642 783 q 464 885 535 885 q 281 812 356 885 q 169 624 206 739 q 132 383 132 508 q 164 173 132 260 q 253 42 196 86 q 385 -1 311 -1 q 557 50 465 -1 l 599 -40 m 381 200 q 447 248 422 200 q 483 358 472 296 q 493 464 493 419 q 474 576 493 535 q 419 617 454 617 q 354 572 381 617 q 315 466 328 526 q 303 358 303 406 q 324 243 303 286 q 381 200 344 200 z "},"&":{"ha":833,"x_min":42,"x_max":819,"o":"m 390 -17 q 137 56 232 -17 q 42 261 42 129 q 64 377 42 331 q 121 456 86 424 q 235 546 156 488 q 142 781 142 669 q 173 899 142 846 q 256 981 204 951 q 365 1010 307 1010 q 478 981 425 1010 q 562 903 531 951 q 593 796 593 854 q 582 728 593 760 q 517 619 564 672 q 400 521 471 565 l 628 231 q 662 322 651 264 q 668 442 672 381 l 790 431 q 766 271 790 349 q 701 143 742 193 l 819 0 l 678 0 l 628 63 q 524 3 586 24 q 390 -17 463 -17 m 390 92 q 483 107 442 92 q 547 150 525 122 l 307 454 q 203 367 243 411 q 163 261 163 322 q 224 138 163 183 q 390 92 286 92 m 331 610 q 438 685 399 640 q 476 776 476 731 q 448 860 476 828 q 371 892 419 892 q 293 858 325 892 q 261 779 261 825 q 331 610 261 706 z "},"¶":{"ha":833,"x_min":58,"x_max":700,"o":"m 396 425 q 149 501 240 425 q 58 706 58 576 q 149 910 58 835 q 396 986 240 986 l 700 986 l 700 0 l 597 0 l 597 881 l 500 881 l 500 0 l 396 0 l 396 425 z "},"§":{"ha":833,"x_min":111,"x_max":722,"o":"m 431 -151 q 276 -119 347 -151 q 162 -31 206 -87 q 111 97 118 25 l 233 106 q 297 -1 243 39 q 431 -40 351 -40 q 550 -12 504 -40 q 596 63 596 15 q 553 135 596 104 q 413 190 510 165 q 197 273 260 226 q 135 399 135 319 q 267 576 135 521 q 139 728 139 631 q 220 888 139 831 q 424 946 301 946 q 551 917 486 946 q 663 835 615 889 q 719 710 710 782 l 600 701 q 540 799 589 764 q 410 835 490 835 q 303 808 346 835 q 261 738 261 781 q 276 689 261 708 q 329 653 292 669 q 438 618 367 636 q 608 561 547 592 q 696 488 669 531 q 722 381 722 446 q 604 229 722 275 q 693 156 668 199 q 718 53 718 113 q 677 -58 718 -12 q 570 -128 636 -104 q 431 -151 504 -151 m 433 292 q 554 318 508 292 q 600 390 600 344 q 539 477 600 449 q 406 506 478 506 q 299 478 342 506 q 257 410 257 451 q 433 292 257 311 z "},"©":{"ha":833,"x_min":6,"x_max":826,"o":"m 415 -17 q 203 49 296 -17 q 58 231 110 114 q 6 496 6 347 q 58 761 6 644 q 203 943 110 878 q 415 1008 296 1008 q 628 943 535 1008 q 774 761 722 878 q 826 496 826 644 q 774 231 826 347 q 628 49 722 114 q 415 -17 535 -17 m 415 79 q 583 130 511 79 q 693 275 654 181 q 732 496 732 369 q 693 717 732 624 q 583 862 654 811 q 415 913 511 913 q 248 862 319 913 q 138 717 176 811 q 100 496 100 624 q 138 275 100 369 q 248 130 176 181 q 415 79 319 79 m 425 181 q 247 266 314 181 q 181 494 181 351 q 211 660 181 589 q 297 771 242 732 q 425 810 351 810 q 528 784 479 810 q 608 710 576 758 q 647 600 640 663 l 551 593 q 509 683 543 651 q 425 714 475 714 q 314 658 351 714 q 276 494 276 601 q 314 333 276 389 q 425 276 351 276 q 511 310 476 276 q 556 408 546 344 l 651 401 q 575 241 639 301 q 425 181 511 181 z "},"®":{"ha":833,"x_min":67,"x_max":767,"o":"m 417 306 q 241 353 321 306 q 114 481 161 400 q 67 658 67 563 q 114 833 67 753 q 241 961 161 914 q 417 1008 321 1008 q 592 961 513 1008 q 719 833 672 914 q 767 658 767 753 q 719 481 767 563 q 592 353 672 400 q 417 306 513 306 m 417 385 q 553 422 490 385 q 652 522 615 458 q 689 658 689 585 q 652 794 689 732 q 553 892 615 856 q 417 929 490 929 q 281 892 343 929 q 181 794 218 856 q 144 658 144 732 q 181 522 144 585 q 281 422 218 458 q 417 385 343 385 m 278 846 l 404 846 q 520 815 478 846 q 563 728 563 783 q 540 660 563 688 q 479 622 518 632 l 578 465 l 497 465 l 408 613 l 349 613 l 349 465 l 278 465 l 278 846 m 415 672 q 473 688 453 672 q 493 731 493 703 q 473 771 493 757 q 415 785 453 785 l 349 785 l 349 672 l 415 672 z "},"℗":{"ha":833,"x_min":67,"x_max":767,"o":"m 417 306 q 241 353 321 306 q 114 481 161 400 q 67 658 67 563 q 114 833 67 753 q 241 961 161 914 q 417 1008 321 1008 q 592 961 513 1008 q 719 833 672 914 q 767 658 767 753 q 719 481 767 563 q 592 353 672 400 q 417 306 513 306 m 417 385 q 553 422 490 385 q 652 522 615 458 q 689 658 689 585 q 652 794 689 732 q 553 892 615 856 q 417 929 490 929 q 281 892 343 929 q 181 794 218 856 q 144 658 144 732 q 181 522 144 585 q 281 422 218 458 q 417 385 343 385 m 299 846 l 425 846 q 540 814 497 846 q 583 728 583 782 q 543 642 583 672 q 428 613 503 613 l 369 613 l 369 465 l 299 465 l 299 846 m 436 672 q 493 688 472 672 q 514 731 514 703 q 493 771 514 757 q 436 785 472 785 l 369 785 l 369 672 l 436 672 z "},"™":{"ha":833,"x_min":24,"x_max":801,"o":"m 457 750 l 457 499 l 375 499 l 375 986 l 464 986 l 588 607 l 714 986 l 801 986 l 801 499 l 719 499 l 719 749 l 635 499 l 542 499 l 457 750 m 138 908 l 24 908 l 24 986 l 335 986 l 335 908 l 219 908 l 219 499 l 138 499 l 138 908 z "},"°":{"ha":833,"x_min":208,"x_max":625,"o":"m 417 542 q 313 570 361 542 q 237 647 265 599 q 208 750 208 694 q 237 853 208 806 q 313 930 265 901 q 417 958 361 958 q 520 930 472 958 q 597 853 568 901 q 625 750 625 806 q 597 647 625 694 q 520 570 568 599 q 417 542 472 542 m 417 643 q 491 674 460 643 q 522 750 522 706 q 491 826 522 794 q 417 857 460 857 q 342 826 374 857 q 311 750 311 794 q 342 674 311 706 q 417 643 374 643 z "},"′":{"ha":833,"x_min":308,"x_max":525,"o":"m 396 1026 l 525 1026 l 400 568 l 308 568 l 396 1026 z "},"″":{"ha":833,"x_min":197,"x_max":638,"o":"m 285 1026 l 414 1026 l 289 568 l 197 568 l 285 1026 m 508 1026 l 638 1026 l 513 568 l 421 568 l 508 1026 z "},"|":{"ha":833,"x_min":360,"x_max":474,"o":"m 360 1069 l 474 1069 l 474 -125 l 360 -125 l 360 1069 z "},"¦":{"ha":833,"x_min":363,"x_max":471,"o":"m 363 986 l 471 986 l 471 493 l 363 493 l 363 986 m 363 285 l 471 285 l 471 -208 l 363 -208 l 363 285 z "},"†":{"ha":833,"x_min":149,"x_max":685,"o":"m 364 633 l 149 633 l 149 736 l 364 736 l 364 986 l 472 986 l 472 736 l 685 736 l 685 633 l 472 633 l 472 0 l 364 0 l 364 633 z "},"‡":{"ha":833,"x_min":149,"x_max":685,"o":"m 363 19 l 149 19 l 149 124 l 363 124 l 363 633 l 149 633 l 149 736 l 363 736 l 363 986 l 471 986 l 471 736 l 685 736 l 685 633 l 471 633 l 471 124 l 685 124 l 685 19 l 471 19 l 471 -208 l 363 -208 l 363 19 z "},"№":{"ha":833,"x_min":7,"x_max":828,"o":"m 7 986 l 167 986 l 335 304 l 335 986 l 451 986 l 451 0 l 297 0 l 124 694 l 124 0 l 7 0 l 7 986 m 517 108 l 806 108 l 806 0 l 517 0 l 517 108 m 661 196 q 541 262 588 196 q 494 436 494 328 q 541 610 494 544 q 661 675 588 675 q 781 610 735 675 q 828 436 828 544 q 781 262 828 328 q 661 196 735 196 m 661 301 q 706 338 689 301 q 724 436 724 375 q 706 533 724 497 q 661 569 689 569 q 617 533 635 569 q 600 436 600 496 q 617 338 600 375 q 661 301 635 301 z "},"␣":{"ha":833,"x_min":53,"x_max":781,"o":"m 53 0 l 163 0 l 163 -156 l 671 -156 l 671 0 l 781 0 l 781 -264 l 53 -264 l 53 0 z "},"␌":{"ha":833,"x_min":110,"x_max":744,"o":"m 461 557 l 744 557 l 744 489 l 531 489 l 531 357 l 732 357 l 732 289 l 531 289 l 531 99 l 461 99 l 461 557 m 110 875 l 393 875 l 393 807 l 181 807 l 181 675 l 381 675 l 381 607 l 181 607 l 181 417 l 110 417 l 110 875 z "},"⌧":{"ha":833,"x_min":19,"x_max":814,"o":"m 19 986 l 814 986 l 814 0 l 19 0 l 19 986 m 718 96 l 718 890 l 115 890 l 115 96 l 718 96 m 214 365 l 340 492 l 213 618 l 290 696 l 418 569 l 543 694 l 619 618 l 494 493 l 621 365 l 543 288 l 417 415 l 290 289 l 214 365 z "},"⌫":{"ha":833,"x_min":6,"x_max":822,"o":"m 6 490 l 219 986 l 822 986 l 822 0 l 219 0 l 6 490 m 726 96 l 726 890 l 285 890 l 111 492 l 285 96 l 726 96 m 251 365 l 378 492 l 250 618 l 328 696 l 454 568 l 581 694 l 656 618 l 531 493 l 657 365 l 581 288 l 453 415 l 328 289 l 251 365 z "},"⌦":{"ha":833,"x_min":11,"x_max":828,"o":"m 11 0 l 11 986 l 614 986 l 828 490 l 614 0 l 11 0 m 722 492 l 549 890 l 107 890 l 107 96 l 549 96 l 722 492 m 381 415 l 253 288 l 176 365 l 303 493 l 178 618 l 253 694 l 379 568 l 506 696 l 583 618 l 457 492 l 582 365 l 506 289 l 381 415 z "},"⏎":{"ha":833,"x_min":6,"x_max":824,"o":"m 6 419 l 419 847 l 419 581 l 501 581 l 501 986 l 824 986 l 824 258 l 419 258 l 419 -11 l 6 419 m 715 367 l 715 878 l 610 878 l 610 472 l 332 472 l 332 608 l 150 418 l 332 229 l 332 367 l 715 367 z "},"␋":{"ha":833,"x_min":72,"x_max":761,"o":"m 72 875 l 146 875 l 250 521 l 354 875 l 428 875 l 288 417 l 213 417 l 72 875 m 558 489 l 426 489 l 426 557 l 761 557 l 761 489 l 629 489 l 629 99 l 558 99 l 558 489 z "},"¢":{"ha":833,"x_min":97,"x_max":750,"o":"m 332 -3 q 160 128 222 31 q 97 368 97 225 q 178 635 97 532 q 397 751 260 738 l 408 874 l 513 874 l 501 747 q 662 667 599 732 q 744 497 725 603 l 622 489 q 574 583 608 546 q 492 635 540 621 l 444 94 q 563 140 514 97 q 628 261 611 182 l 750 253 q 642 56 726 129 q 436 -17 558 -17 l 435 -17 l 425 -126 l 321 -126 l 332 -3 m 219 368 q 251 208 219 274 q 342 114 283 143 l 388 638 q 263 551 307 621 q 219 368 219 481 z "},"¤":{"ha":833,"x_min":78,"x_max":754,"o":"m 415 135 q 258 183 332 135 l 150 75 l 78 147 l 186 256 q 138 413 138 329 q 186 569 138 499 l 78 679 l 150 751 l 260 643 q 415 690 332 690 q 571 642 500 690 l 682 751 l 754 679 l 644 568 q 693 413 693 497 q 646 257 693 329 l 754 147 l 682 75 l 572 183 q 415 135 501 135 m 415 236 q 503 260 463 236 q 567 324 543 283 q 592 413 592 365 q 567 501 592 460 q 503 565 543 542 q 415 589 463 589 q 327 565 368 589 q 263 501 286 542 q 239 413 239 460 q 263 324 239 365 q 327 260 286 283 q 415 236 368 236 z "},"$":{"ha":833,"x_min":65,"x_max":776,"o":"m 369 -17 q 158 92 240 1 q 65 315 76 182 l 190 324 q 249 177 203 233 q 369 103 294 121 l 369 457 q 205 522 265 488 q 117 606 144 557 q 89 728 89 654 q 164 917 89 842 q 369 1006 239 993 l 369 1118 l 472 1118 l 472 1004 q 669 904 594 988 q 758 694 743 821 l 633 686 q 582 817 622 764 q 472 886 542 869 l 472 549 q 651 474 585 515 q 747 378 717 433 q 776 242 776 322 q 692 60 776 132 q 472 -21 608 -11 l 472 -126 l 369 -126 l 369 -17 m 214 733 q 247 643 214 675 q 369 581 279 611 l 369 889 q 256 837 297 879 q 214 733 214 794 m 472 96 q 606 140 560 101 q 651 244 651 179 q 615 347 651 307 q 472 425 578 388 l 472 96 z "},"€":{"ha":833,"x_min":14,"x_max":786,"o":"m 14 643 l 78 643 q 197 913 106 817 q 433 1008 289 1008 q 656 923 564 1008 q 778 685 747 838 l 650 676 q 569 836 626 781 q 433 892 513 892 q 283 828 342 892 q 204 643 225 764 l 529 643 l 514 540 l 193 540 l 192 492 l 193 429 l 501 429 l 486 326 l 207 326 q 288 153 231 213 q 433 94 344 94 q 580 156 521 94 q 660 332 639 217 l 786 325 q 665 70 758 163 q 433 -22 572 -22 q 201 69 292 -22 q 81 326 110 161 l 14 326 l 14 429 l 68 429 l 67 492 l 68 540 l 14 540 l 14 643 z "},"₴":{"ha":833,"x_min":31,"x_max":803,"o":"m 31 643 l 600 643 q 635 732 635 678 q 578 847 635 801 q 432 892 521 892 q 308 849 363 892 q 219 729 253 807 l 89 742 q 209 937 121 865 q 415 1008 297 1008 q 667 933 574 1008 q 760 732 760 858 q 733 643 760 685 l 803 643 l 803 540 l 31 540 l 31 643 m 407 -17 q 231 18 308 -17 q 111 115 154 53 q 68 256 68 176 q 85 326 68 296 l 31 326 l 31 429 l 803 429 l 803 326 l 218 326 q 193 256 193 293 q 251 143 193 186 q 400 100 308 100 q 538 139 476 100 q 628 243 600 178 l 764 232 q 635 50 731 117 q 407 -17 539 -17 z "},"₽":{"ha":833,"x_min":46,"x_max":792,"o":"m 46 272 l 153 272 l 153 986 l 453 986 q 700 907 608 986 q 792 688 792 828 q 700 468 792 547 q 453 389 608 389 l 272 389 l 272 272 l 396 272 l 396 169 l 272 169 l 272 0 l 153 0 l 153 169 l 46 169 l 46 272 m 439 503 q 667 688 667 503 q 439 872 667 872 l 272 872 l 272 503 l 439 503 z "},"₹":{"ha":833,"x_min":51,"x_max":779,"o":"m 51 383 l 51 500 l 321 500 q 539 632 507 500 l 51 632 l 51 736 l 540 736 q 321 869 511 869 l 51 869 l 51 986 l 779 986 l 779 883 l 601 883 q 667 736 654 825 l 779 736 l 779 632 l 665 632 q 558 449 647 514 q 321 383 468 383 l 215 383 l 636 0 l 468 0 l 51 383 z "},"₪":{"ha":833,"x_min":28,"x_max":804,"o":"m 247 771 l 367 771 l 367 115 l 599 115 q 660 138 638 115 q 683 201 683 161 l 683 986 l 804 986 l 804 208 q 748 56 804 113 q 596 0 692 0 l 247 0 l 247 771 m 28 986 l 378 986 q 528 930 472 986 q 585 778 585 874 l 585 215 l 465 215 l 465 785 q 442 847 465 824 q 381 871 419 871 l 149 871 l 149 0 l 28 0 l 28 986 z "},"£":{"ha":833,"x_min":65,"x_max":772,"o":"m 67 121 q 226 386 226 215 l 224 440 l 65 440 l 65 543 l 200 543 l 192 571 q 160 735 160 669 q 199 874 160 811 q 305 972 238 936 q 453 1008 372 1008 q 673 941 592 1008 q 772 778 754 874 l 635 768 q 569 859 617 826 q 458 892 521 892 q 372 869 413 892 q 308 806 332 846 q 283 715 283 765 q 321 543 283 660 l 567 543 l 567 440 l 343 440 q 346 400 346 413 q 302 234 346 308 q 172 121 258 160 l 757 121 l 757 4 l 67 0 l 67 121 z "},"¥":{"ha":833,"x_min":61,"x_max":772,"o":"m 358 199 l 131 199 l 131 307 l 358 307 l 358 399 l 131 399 l 131 507 l 306 507 l 61 986 l 197 986 l 417 542 l 636 986 l 772 986 l 531 507 l 706 507 l 706 399 l 478 399 l 478 307 l 706 307 l 706 199 l 478 199 l 478 0 l 358 0 l 358 199 z "},"+":{"ha":833,"x_min":86,"x_max":747,"o":"m 363 369 l 86 369 l 86 478 l 363 478 l 363 754 l 471 754 l 471 478 l 747 478 l 747 369 l 471 369 l 471 93 l 363 93 l 363 369 z "},"−":{"ha":833,"x_min":86,"x_max":747,"o":"m 86 507 l 747 507 l 747 399 l 86 399 l 86 507 z "},"×":{"ha":833,"x_min":175,"x_max":719,"o":"m 371 389 l 175 583 l 251 660 l 447 464 l 643 660 l 719 583 l 524 389 l 719 193 l 643 117 l 447 313 l 251 117 l 175 193 l 371 389 z "},"÷":{"ha":833,"x_min":86,"x_max":747,"o":"m 86 507 l 747 507 l 747 399 l 86 399 l 86 507 m 417 117 q 358 141 382 117 q 333 200 333 165 q 358 259 333 235 q 417 283 382 283 q 476 259 451 283 q 500 200 500 235 q 476 141 500 165 q 417 117 451 117 m 417 635 q 358 659 382 635 q 333 718 333 683 q 358 777 333 753 q 417 801 382 801 q 476 777 451 801 q 500 718 500 753 q 476 659 500 683 q 417 635 451 635 z "},"=":{"ha":833,"x_min":111,"x_max":722,"o":"m 111 628 l 722 628 l 722 519 l 111 519 l 111 628 m 111 321 l 722 321 l 722 213 l 111 213 l 111 321 z "},"≠":{"ha":833,"x_min":111,"x_max":722,"o":"m 303 213 l 111 213 l 111 321 l 336 321 l 396 519 l 111 519 l 111 628 l 429 628 l 472 768 l 579 768 l 536 628 l 722 628 l 722 519 l 503 519 l 443 321 l 722 321 l 722 213 l 410 213 l 363 60 l 256 60 l 303 213 z "},">":{"ha":833,"x_min":101,"x_max":733,"o":"m 101 193 l 629 429 l 101 665 l 101 785 l 733 503 l 733 356 l 101 74 l 101 193 z "},"<":{"ha":833,"x_min":100,"x_max":732,"o":"m 100 356 l 100 503 l 732 785 l 732 665 l 204 429 l 732 193 l 732 74 l 100 356 z "},"≥":{"ha":833,"x_min":86,"x_max":747,"o":"m 86 364 l 629 508 l 86 651 l 86 765 l 747 582 l 747 435 l 86 251 l 86 364 m 86 108 l 747 108 l 747 0 l 86 0 l 86 108 z "},"≤":{"ha":833,"x_min":86,"x_max":747,"o":"m 86 435 l 86 582 l 747 765 l 747 651 l 204 508 l 747 364 l 747 251 l 86 435 m 86 0 l 86 108 l 747 108 l 747 0 l 86 0 z "},"±":{"ha":833,"x_min":86,"x_max":747,"o":"m 86 158 l 747 158 l 747 50 l 86 50 l 86 158 m 86 568 l 363 568 l 363 750 l 471 750 l 471 568 l 747 568 l 747 460 l 471 460 l 471 278 l 363 278 l 363 460 l 86 460 l 86 568 z "}}}
